<svg width="20" height="20" viewBox="0 0 20 20" fill="currentColor" xmlns="http://www.w3.org/2000/svg">
<path d="M13.3335 1.5415C13.3664 1.54155 13.398 1.55449 13.4214 1.57764C13.4448 1.60108 13.4585 1.63335 13.4585 1.6665V3.4624L13.9536 3.46631C14.7553 3.47367 15.5213 3.79805 16.0854 4.36768C16.6359 4.92349 16.9488 5.6691 16.9634 6.44971H3.03564C3.0502 5.66893 3.36197 4.92253 3.9126 4.3667C4.47703 3.79703 5.24448 3.47329 6.04639 3.46631L6.5415 3.4624V1.6665C6.5415 1.63335 6.55517 1.60108 6.57861 1.57764C6.60198 1.55449 6.6336 1.54154 6.6665 1.5415C6.69962 1.5415 6.73194 1.55424 6.75537 1.57764C6.77881 1.60108 6.7915 1.63335 6.7915 1.6665V3.4165H13.2085V1.6665C13.2085 1.63335 13.2212 1.60108 13.2446 1.57764C13.2681 1.55425 13.3004 1.5415 13.3335 1.5415Z" fill="currentColor" stroke="currentColor"/>
<path d="M3.33301 8.7002H16.667C16.7553 8.70028 16.8399 8.73542 16.9023 8.79785C16.9648 8.86029 16.9999 8.94491 17 9.0332V14.167C17 15.3403 16.7061 16.2418 16.1436 16.8477C15.5872 17.4466 14.6958 17.834 13.333 17.834H6.66699C5.30421 17.834 4.41281 17.4466 3.85645 16.8477C3.2939 16.2418 3.00002 15.3403 3 14.167V9.0332C3.00009 8.94492 3.03522 8.86029 3.09766 8.79785C3.16009 8.73542 3.24472 8.70028 3.33301 8.7002ZM10 13.2471C9.64547 13.2471 9.30538 13.388 9.05469 13.6387C8.80414 13.8893 8.66309 14.2296 8.66309 14.584C8.66321 14.9382 8.80427 15.2778 9.05469 15.5283C9.30537 15.779 9.64547 15.9199 10 15.9199C10.3545 15.9199 10.6946 15.779 10.9453 15.5283C11.1957 15.2778 11.3368 14.9382 11.3369 14.584C11.3369 14.2296 11.1959 13.8893 10.9453 13.6387C10.6946 13.388 10.3545 13.2471 10 13.2471ZM12.917 13.2471C12.7415 13.2471 12.5674 13.2815 12.4053 13.3486C12.2431 13.4158 12.0958 13.5145 11.9717 13.6387C11.721 13.8894 11.5801 14.2295 11.5801 14.584C11.5802 14.9383 11.7212 15.2777 11.9717 15.5283C12.2224 15.779 12.5625 15.9199 12.917 15.9199C13.2714 15.9198 13.6117 15.7789 13.8623 15.5283C13.9862 15.4043 14.0843 15.2567 14.1514 15.0947C14.2184 14.9327 14.2529 14.7593 14.2529 14.584C14.2529 14.4085 14.2185 14.2344 14.1514 14.0723C14.0843 13.9103 13.9862 13.7627 13.8623 13.6387C13.7382 13.5145 13.5899 13.4158 13.4277 13.3486C13.2658 13.2816 13.0923 13.2471 12.917 13.2471ZM7.35254 13.2773C7.09421 13.2232 6.82596 13.2501 6.58301 13.3525V13.3516C6.42173 13.4152 6.27443 13.5098 6.14844 13.6289L6.1416 13.6348L6.13477 13.6416C5.88817 13.893 5.75 14.2318 5.75 14.584C5.75012 14.936 5.88827 15.2741 6.13477 15.5254L6.1416 15.5322L6.14844 15.5381C6.27106 15.654 6.41407 15.746 6.57031 15.8096V15.8105C6.57444 15.8123 6.57886 15.8137 6.58301 15.8154V15.8145C6.73982 15.8795 6.90732 15.9149 7.07715 15.917H7.0957C7.17634 15.9149 7.25746 15.9065 7.33691 15.8926L7.33594 15.8916C7.41395 15.878 7.48882 15.8532 7.56152 15.8223L7.5625 15.8232C7.65762 15.7906 7.74788 15.745 7.83105 15.6885L7.83789 15.6836C7.89814 15.6411 7.95611 15.5954 8.01074 15.5459L8.02148 15.5361L8.03223 15.5254C8.27867 15.2741 8.41687 14.936 8.41699 14.584C8.41699 14.2318 8.2788 13.893 8.03223 13.6416L8.01074 13.6201L7.9873 13.6016L7.8623 13.501L7.84668 13.4893L7.83105 13.4785L7.70117 13.4023C7.65622 13.3799 7.60918 13.3601 7.56152 13.3438C7.4938 13.3149 7.42397 13.2921 7.35156 13.2783L7.35254 13.2773ZM6.8252 10.3594C6.56654 10.4092 6.32812 10.5347 6.14062 10.7197L6.13477 10.7246C5.88817 10.9761 5.75 11.3148 5.75 11.667C5.75003 12.0191 5.88824 12.357 6.13477 12.6084L6.1416 12.6152C6.39297 12.8618 6.73094 12.9999 7.08301 13C7.43519 13 7.77395 12.8618 8.02539 12.6152L8.03223 12.6084C8.27865 12.357 8.41696 12.019 8.41699 11.667C8.41699 11.3148 8.27883 10.9761 8.03223 10.7246L8.02637 10.7188L7.9248 10.6299C7.82454 10.5501 7.71259 10.4861 7.59277 10.4395H7.59375C7.59146 10.4385 7.5892 10.4375 7.58691 10.4365C7.58268 10.4349 7.57847 10.4332 7.57422 10.4316L7.57324 10.4326C7.33589 10.3373 7.07666 10.311 6.8252 10.3594ZM10.2588 10.3594C10.0648 10.322 9.86562 10.3284 9.67578 10.377L9.50977 10.4316C9.34062 10.4944 9.18618 10.5922 9.05762 10.7188L9.0459 10.7305C8.80718 10.9813 8.67216 11.313 8.66699 11.6592V11.6621C8.66525 11.8381 8.69816 12.0128 8.76465 12.1758C8.83127 12.339 8.93005 12.4877 9.05469 12.6123C9.17931 12.7369 9.32805 12.8357 9.49121 12.9023C9.6542 12.9688 9.82887 13.0018 10.0049 13H10.0127C10.0926 12.998 10.1722 12.9893 10.251 12.9756L10.252 12.9766C10.3302 12.963 10.4056 12.9373 10.4785 12.9062C10.5737 12.8736 10.6648 12.829 10.748 12.7725L10.7793 12.749L10.9043 12.6494L10.9277 12.6299L10.9482 12.6084C11.1948 12.357 11.333 12.0191 11.333 11.667C11.333 11.3148 11.1948 10.9761 10.9482 10.7246L10.9424 10.7197L10.793 10.5918C10.6349 10.4763 10.4526 10.3967 10.2588 10.3594ZM13.168 10.3574C12.9423 10.3134 12.7094 10.3299 12.4932 10.4053L12.416 10.4355C12.2549 10.4992 12.1073 10.5929 11.9814 10.7119L11.9717 10.7207L11.9629 10.7305C11.7241 10.9813 11.5882 11.3129 11.583 11.6592V11.6621C11.5813 11.8382 11.6151 12.0128 11.6816 12.1758C11.7483 12.339 11.847 12.4877 11.9717 12.6123C12.0963 12.7368 12.2442 12.8358 12.4072 12.9023C12.5704 12.969 12.7456 13.0018 12.9219 13H12.9326C13.0107 12.9975 13.0889 12.9895 13.166 12.9766H13.1689C13.2471 12.963 13.3217 12.9363 13.3945 12.9053L13.3955 12.9062C13.4905 12.8737 13.581 12.8289 13.6641 12.7725L13.6807 12.7607L13.6953 12.749L13.8203 12.6494L13.8438 12.6299L13.8652 12.6084C14.1118 12.357 14.25 12.0191 14.25 11.667C14.25 11.3148 14.1118 10.9761 13.8652 10.7246L13.8438 10.7031L13.8203 10.6846L13.6953 10.585L13.6807 10.5723L13.6641 10.5615C13.5809 10.505 13.4906 10.4594 13.3955 10.4268L13.3945 10.4277C13.3267 10.3989 13.2571 10.3751 13.1846 10.3613H13.1855C13.18 10.3602 13.1745 10.3585 13.1689 10.3574H13.168Z" fill="currentColor" stroke="currentColor"/>
</svg>
