<svg width="107" height="93" viewBox="0 0 107 93" fill="none" xmlns="http://www.w3.org/2000/svg">
<g opacity="0.5" filter="url(#filter0_d_40006496_32876)">
<path d="M80.1088 70.0255C88.7029 62.0663 93 48.1378 93 28.2398C93 21.8282 91.5676 17.1854 88.7029 14.3112C85.6179 11.4371 80.7699 10 74.159 10C67.5481 10 63.1409 11.216 60.9372 13.6479C58.7336 15.8588 57.6318 19.2857 57.6318 23.9286C57.6318 30.5612 58.2929 34.983 59.6151 37.1939C60.7169 40.5102 64.463 42.1684 70.8536 42.1684C74.8201 42.1684 76.8033 44.1582 76.8033 48.1377C76.8033 57.2024 74.0488 65.051 68.5397 71.6836C68.5397 73.8945 69.311 75 70.8536 75C73.7183 74.5578 76.8033 72.8996 80.1088 70.0255ZM36.477 70.0255C45.0711 62.0663 49.3682 48.1378 49.3682 28.2398C49.3682 21.8282 47.9358 17.1854 45.0711 14.3112C41.9861 11.4371 37.1381 10 30.5272 10C23.9163 10 19.5091 11.216 17.3055 13.6479C15.1018 15.8588 14 19.2857 14 23.9286C14 30.5612 14.6611 34.983 15.9833 37.1939C17.0851 40.5102 20.8312 42.1684 27.2218 42.1684C31.1883 42.1684 33.1716 44.1582 33.1716 48.1377C33.1716 57.2024 30.417 65.051 24.908 71.6836C24.908 73.8945 25.6792 75 27.2218 75C30.0865 74.5578 33.1716 72.8996 36.477 70.0255Z" fill="url(#paint0_linear_40006496_32876)"/>
<path d="M80.1088 70.0255C88.7029 62.0663 93 48.1378 93 28.2398C93 21.8282 91.5676 17.1854 88.7029 14.3112C85.6179 11.4371 80.7699 10 74.159 10C67.5481 10 63.1409 11.216 60.9372 13.6479C58.7336 15.8588 57.6318 19.2857 57.6318 23.9286C57.6318 30.5612 58.2929 34.983 59.6151 37.1939C60.7169 40.5102 64.463 42.1684 70.8536 42.1684C74.8201 42.1684 76.8033 44.1582 76.8033 48.1377C76.8033 57.2024 74.0488 65.051 68.5397 71.6836C68.5397 73.8945 69.311 75 70.8536 75C73.7183 74.5578 76.8033 72.8996 80.1088 70.0255ZM36.477 70.0255C45.0711 62.0663 49.3682 48.1378 49.3682 28.2398C49.3682 21.8282 47.9358 17.1854 45.0711 14.3112C41.9861 11.4371 37.1381 10 30.5272 10C23.9163 10 19.5091 11.216 17.3055 13.6479C15.1018 15.8588 14 19.2857 14 23.9286C14 30.5612 14.6611 34.983 15.9833 37.1939C17.0851 40.5102 20.8312 42.1684 27.2218 42.1684C31.1883 42.1684 33.1716 44.1582 33.1716 48.1377C33.1716 57.2024 30.417 65.051 24.908 71.6836C24.908 73.8945 25.6792 75 27.2218 75C30.0865 74.5578 33.1716 72.8996 36.477 70.0255Z" fill="url(#paint1_linear_40006496_32876)"/>
</g>
<defs>
<filter id="filter0_d_40006496_32876" x="0" y="0" width="107" height="93" filterUnits="userSpaceOnUse" color-interpolation-filters="sRGB">
<feFlood flood-opacity="0" result="BackgroundImageFix"/>
<feColorMatrix in="SourceAlpha" type="matrix" values="0 0 0 0 0 0 0 0 0 0 0 0 0 0 0 0 0 0 127 0" result="hardAlpha"/>
<feOffset dy="4"/>
<feGaussianBlur stdDeviation="7"/>
<feComposite in2="hardAlpha" operator="out"/>
<feColorMatrix type="matrix" values="0 0 0 0 0.39369 0 0 0 0 0.457783 0 0 0 0 0.547514 0 0 0 0.25 0"/>
<feBlend mode="normal" in2="BackgroundImageFix" result="effect1_dropShadow_40006496_32876"/>
<feBlend mode="normal" in="SourceGraphic" in2="effect1_dropShadow_40006496_32876" result="shape"/>
</filter>
<linearGradient id="paint0_linear_40006496_32876" x1="53.5" y1="10" x2="53.5" y2="75" gradientUnits="userSpaceOnUse">
<stop stop-color="#1B8FF3"/>
<stop offset="1" stop-color="#1B8FF3"/>
</linearGradient>
<linearGradient id="paint1_linear_40006496_32876" x1="53.5" y1="10" x2="53.5" y2="75" gradientUnits="userSpaceOnUse">
<stop stop-color="#1B8FF3"/>
<stop offset="1" stop-color="#0064BA"/>
</linearGradient>
</defs>
</svg>
