<svg width="48" height="48" viewBox="0 0 48 48" fill="none" xmlns="http://www.w3.org/2000/svg">
<path d="M26.5752 0C27.4624 8.75251e-05 28.0498 0.587236 28.0625 1.46191C28.075 4.87441 28.0625 8.28769 28.0625 11.7002C28.0625 11.7625 28.0498 11.8249 28.0498 11.8623C21.8625 10.2499 16.7 11.7622 13.1875 17.2119C10.3375 21.6244 10.4004 26.3748 13.3379 30.7373C16.8879 36.0122 21.9877 37.4621 28.0752 35.8496V46.0752C28.0751 47.1874 27.5375 47.7245 26.4004 47.7246H21.25C20.1875 47.7246 19.6504 47.1746 19.6504 46.0996V44.4873C16.9879 43.9248 14.5375 42.925 12.1875 41.375C11.8126 41.7874 11.4624 42.2122 11.0625 42.5996C10.3625 43.3121 9.57461 43.2994 8.84961 42.5869C7.61237 41.3497 6.37513 40.1249 5.15039 38.8877C4.40044 38.1252 4.39977 37.3748 5.16211 36.6123C5.53709 36.2373 5.92521 35.8877 6.3252 35.5127C4.81274 33.2003 3.78732 30.7501 3.2373 28.0752C2.78745 28.0752 2.33755 28.037 1.8877 28.0869C1.0127 28.1619 0.375 27.8623 0 27.0498V20.6621C0.375014 19.8498 1.01278 19.55 1.8877 19.625C2.325 19.6625 2.74984 19.6377 3.22461 19.6377C3.78711 16.9877 4.7877 14.5369 6.3252 12.2119C5.93774 11.8495 5.54957 11.4746 5.16211 11.0996C4.39994 10.3372 4.4005 9.57509 5.15039 8.8252C6.38779 7.5878 7.61221 6.3499 8.84961 5.125C9.5621 4.41251 10.35 4.39984 11.0625 5.1123C11.45 5.4998 11.8129 5.9 12.2129 6.3125C14.5003 4.81258 16.9378 3.79979 19.6377 3.2373V1.625C19.6377 0.562567 20.1874 7.08448e-05 21.2373 0H26.5752ZM34.6504 41.2754C35.5254 39.8879 37.325 39.4121 38.875 39.9746C40.4374 40.5371 41.4377 42.0622 41.3379 43.7246C41.2504 45.337 40.0377 46.7751 38.4629 47.1377C36.8255 47.5127 35.1499 46.8002 34.3623 45.3379C34.1623 44.9755 33.9501 44.8752 33.5752 44.8877C32.7003 44.9127 31.8126 44.9004 30.8877 44.9004V42.0879C31.5751 42.0879 32.2499 42.0496 32.9248 42.0996C33.6873 42.1621 34.1879 42.0128 34.6504 41.2754ZM37.8496 28.9746C38.3621 28.9746 38.7873 29.1252 39.1748 29.4502C40.1623 30.2877 41.1629 31.1 42.1504 31.9375C42.3628 32.1248 42.5376 32.1623 42.8125 32.0498C44.3874 31.4374 46.125 31.9248 47.125 33.2246C48.15 34.5621 48.175 36.3504 47.1875 37.7129C46.225 39.0377 44.5247 39.5875 42.9873 39.0625C41.3875 38.525 40.3625 37.0252 40.4248 35.3379C40.4248 35.2629 40.4125 35.1746 40.4375 35.0996C40.7872 34.3998 40.3497 34.0371 39.8623 33.6621C39.1874 33.1372 38.5499 32.562 37.875 32.0371C37.6875 31.8872 37.4123 31.7879 37.1748 31.7754C35.2623 31.7504 33.3373 31.7627 31.4248 31.7627C31.25 31.8001 31.0876 31.7998 30.9004 31.7998V29.0127C31.0501 29.0002 31.1999 28.9873 31.3496 28.9873C33.512 28.9873 35.6872 28.9996 37.8496 28.9746ZM14.1123 24.9873C13.2374 17.5374 20.737 11.8881 27.6494 14.7754C27.9744 14.9129 28.0752 15.0749 28.0752 15.4248C28.0627 18.2373 28.0752 21.0627 28.0752 23.8877C28.0752 26.6751 28.0619 29.4753 28.0869 32.2627C28.0869 32.6125 27.987 32.7746 27.6621 32.9121C21.6371 35.4245 14.8873 31.4748 14.1123 24.9873ZM40.9248 22.0127C41.7373 20.5127 43.4749 19.788 45.1123 20.2129C46.7623 20.6379 47.9255 22.1624 47.9131 23.8623C47.9006 25.5497 46.7254 27.0503 45.1006 27.4629C43.4507 27.8754 41.7249 27.1502 40.9248 25.6504C40.7499 25.3255 40.5627 25.2374 40.2129 25.2373C37.3005 25.2498 34.3753 25.25 31.4629 25.25H30.9248C30.9123 24.3125 30.9131 23.4 30.9131 22.4375C34.0253 22.4375 37.1001 22.4377 40.1748 22.4502C40.5372 22.4502 40.7374 22.3624 40.9248 22.0127ZM41.9502 9.15039C43.2002 8.22539 44.5877 8.1248 45.9502 8.8623C47.3126 9.61231 47.9754 10.8251 47.9004 12.375C47.7754 14.8748 45.2003 16.5245 42.8379 15.6123C42.5505 15.4998 42.3626 15.5375 42.1377 15.7373C41.1502 16.5748 40.1496 17.3998 39.1621 18.2373C38.7872 18.5497 38.375 18.7001 37.8877 18.7002C35.5629 18.6877 33.2627 18.7002 30.9004 18.7002V15.8877H31.4004C33.3127 15.8877 35.2381 15.9 37.1504 15.875C37.4003 15.8749 37.7005 15.762 37.9004 15.5996C38.7002 14.9747 39.4502 14.2997 40.25 13.6748C40.5248 13.45 40.6002 13.25 40.5254 12.9004C40.2254 11.3629 40.7002 10.0879 41.9502 9.15039ZM34.6748 1.9375C35.5373 0.550082 37.3747 0.112655 38.9121 0.6875C40.4744 1.27494 41.4502 2.79961 41.3379 4.46191C41.2254 6.06191 40.0246 7.4627 38.4746 7.8252C36.8497 8.19999 35.1622 7.48679 34.3623 6.02441C34.1624 5.66234 33.9624 5.56275 33.5752 5.5752C32.7003 5.61269 31.8126 5.59961 30.8877 5.59961V2.8252C31.0001 2.81269 31.1249 2.78713 31.2373 2.78711C31.7873 2.78711 32.325 2.74961 32.875 2.78711C33.6499 2.8371 34.1873 2.72486 34.6748 1.9375Z" fill="white"/>
</svg>
