<svg width="20" height="20" viewBox="0 0 20 20" fill="none" xmlns="http://www.w3.org/2000/svg">
<path d="M6.44043 12.7386H10.6071M8.52258 10.6553H8.53033M8.5245 14.8219H8.53233" stroke="#1B8FF3" stroke-width="1.5" stroke-linecap="round" stroke-linejoin="round"/>
<path d="M5.41699 3.08101C7.94476 5.65176 12.1134 0.103426 14.5801 2.11698C15.9994 3.27556 15.5507 5.83366 13.7082 7.50033" stroke="#1B8FF3" stroke-width="1.5" stroke-linecap="round"/>
<path d="M15.5537 5.48193C16.3731 5.63056 16.5569 6.11928 16.8016 7.4754C17.0219 8.69675 17.0837 10.1624 17.0837 10.7863C17.0612 11.0162 16.9613 11.2308 16.8016 11.4058C15.0882 13.1017 11.6879 16.3042 9.97174 17.895C9.29824 18.4629 8.28215 18.4752 7.56737 17.9539C6.10372 16.7105 4.69744 15.305 3.31985 14.0357C2.76641 13.3625 2.77938 12.4055 3.38241 11.7712C5.19792 9.99242 8.48308 6.94776 10.3376 5.26573C10.5235 5.11525 10.7513 5.02113 10.9955 5C11.4116 4.9999 12.1254 5.05273 12.8207 5.0908" stroke="#1B8FF3" stroke-width="1.5" stroke-linecap="round"/>
</svg>
