<svg width="29" height="32" viewBox="0 0 29 32" fill="none" xmlns="http://www.w3.org/2000/svg">
<path d="M2.21338 21.7843C2.66721 21.7843 2.88122 22.0071 3.05029 22.3097C4.1537 24.2674 5.26611 26.2251 6.37842 28.1827C6.69875 28.7433 7.01034 29.3038 7.32178 29.8644C7.61543 30.3983 7.50877 30.7991 6.99268 31.1017C6.55669 31.3597 6.1115 31.6084 5.65771 31.8575C5.16829 32.1245 4.74998 32.0179 4.47412 31.5284C3.03255 28.9834 1.5905 26.4387 0.148926 23.8937C-0.126843 23.3955 -0.0198186 22.9948 0.469238 22.7101C0.931963 22.4431 1.39519 22.176 1.85791 21.9269C1.9911 21.8292 2.1508 21.8021 2.21338 21.7843ZM8.86963 20.5118C9.56373 20.1381 10.3029 20.1739 11.0415 20.4142C12.2427 20.8146 13.4261 21.2416 14.6362 21.6154C15.2323 21.8022 15.8553 21.927 16.4692 22.0782C17.2434 22.2651 17.6261 23.0038 17.2612 23.6534C17.0298 24.0714 16.5586 24.2401 15.9448 24.089C14.8681 23.8131 13.7998 23.5202 12.7319 23.2355C12.643 23.2088 12.563 23.182 12.4741 23.1642C12.1805 23.1108 11.9224 23.2617 11.8423 23.5197C11.7622 23.7955 11.8868 24.0889 12.1626 24.1691C13.7911 24.6051 15.3751 25.1928 17.0747 25.3263C18 25.3975 18.8452 25.166 19.646 24.6945C21.4257 23.6444 23.1971 22.6034 24.9946 21.589C25.5374 21.2864 26.1427 21.0722 26.73 20.8497C26.9168 20.7787 27.1485 20.7794 27.353 20.7794C27.8956 20.7796 28.2694 21.0638 28.4028 21.5353C28.563 22.1047 28.3936 22.6383 27.9487 22.9142C26.8276 23.6082 25.7067 24.3031 24.5767 24.9972C22.4321 26.3142 20.2867 27.6313 18.1421 28.9572C17.1901 29.5442 16.2025 29.7217 15.0903 29.4103C12.8123 28.7607 10.5161 28.1735 8.22021 27.5773C7.95334 27.5151 7.65066 27.5685 7.25928 27.5685C6.42285 26.0914 5.52441 24.5074 4.60791 22.879C6.04932 22.0782 7.45491 21.277 8.86963 20.5118ZM2.07178 23.3331C1.78706 23.3153 1.53787 23.5464 1.52002 23.84C1.50223 24.1424 1.73316 24.4003 2.04443 24.4005C2.32908 24.4005 2.56954 24.1784 2.57861 23.8849C2.58751 23.6002 2.3475 23.3511 2.07178 23.3331ZM13.106 13.5704C13.2394 13.7751 13.3818 13.9711 13.5063 14.1847C14.1115 15.2169 15.0014 15.7336 16.2739 15.6447C15.7756 16.7124 15.3035 17.7359 14.8052 18.8126C14.6539 18.5546 14.5206 18.3407 14.3872 18.1183C14.138 17.6912 13.8794 17.2545 13.6392 16.8185C13.5503 16.6498 13.4609 16.5875 13.2476 16.632C12.607 16.7654 11.9575 16.863 11.3169 16.9786C11.2191 16.9964 11.1213 16.9971 10.9702 17.006C11.5575 15.7335 12.1361 14.5055 12.7056 13.2775C12.7678 13.2419 12.8212 13.2056 12.8745 13.17C12.9546 13.3035 13.0259 13.4459 13.106 13.5704ZM24.8423 16.3566C24.0772 16.2053 23.3655 16.0714 22.6626 15.9113C22.3956 15.849 22.2707 15.9113 22.1372 16.1427C21.7724 16.7566 21.3816 17.3532 20.9634 18.0294C20.6074 17.2107 20.2869 16.4628 19.9487 15.6886C20.1621 15.6531 20.3577 15.6355 20.5444 15.5822C21.1673 15.4131 21.6835 15.0836 22.0483 14.5587C22.2352 14.2829 22.44 14.0155 22.5913 13.7218C22.7782 13.3749 23.072 13.2239 23.4546 13.1349C23.9084 14.1938 24.3618 15.2443 24.8423 16.3566ZM16.9673 0.329224C17.5635 -0.0977906 18.2404 -0.115449 18.8276 0.311646C20.4826 1.54839 19.9488 1.24631 21.853 1.39758C22.5114 1.4511 23.063 1.90499 23.2231 2.58118C23.6769 4.48533 23.437 3.99567 24.7896 5.31262C25.3234 5.82867 25.4299 6.46955 25.1187 7.13684C25.0475 7.28812 24.985 7.44867 24.896 7.58215C24.4155 8.29403 24.3796 9.0594 24.522 9.87805C24.7177 11.0171 24.4062 11.5336 23.3384 11.9874C23.1784 12.0586 23.018 12.1382 22.8491 12.1915C22.3421 12.3606 21.9686 12.681 21.7017 13.1525C21.5593 13.4015 21.3901 13.6419 21.23 13.8732C20.8206 14.4605 20.1885 14.7185 19.5122 14.5138C17.7863 13.9889 18.0083 13.9711 16.3003 14.5138C15.624 14.7274 14.9919 14.4516 14.5825 13.8732C14.5738 13.8644 14.5737 13.8556 14.5649 13.8468C13.5327 12.2985 13.9329 12.6188 12.1978 11.8624C11.5661 11.5955 11.2548 11.0972 11.228 10.4122C11.2725 9.99405 11.3697 9.57553 11.3608 9.15735C11.3519 8.7925 11.2636 8.41846 11.1479 8.07141C11.0412 7.75106 10.8451 7.45708 10.6938 7.14563C10.3915 6.49617 10.4983 5.8382 11.0054 5.33997C12.3312 4.06748 12.1621 4.47646 12.5981 2.58118C12.7672 1.86053 13.3187 1.44222 14.0659 1.39758C14.4219 1.37979 14.7873 1.39748 15.1255 1.32629C15.4547 1.26399 15.784 1.13976 16.0776 0.979614C16.398 0.801641 16.6647 0.542792 16.9673 0.329224ZM17.9644 2.94543C15.553 2.92764 13.586 4.84107 13.5591 7.22571C13.5324 9.66395 15.4638 11.6396 17.8843 11.6573C20.2867 11.6749 22.2356 9.735 22.2534 7.30579C22.271 4.93906 20.3222 2.96343 17.9644 2.94543ZM19.8325 5.46399C20.1173 5.20593 20.4472 5.20604 20.6519 5.4552C20.8565 5.68656 20.8203 5.99805 20.5444 6.24719C19.4766 7.21711 18.4091 8.18754 17.3413 9.14856C17.021 9.43321 16.7807 9.42373 16.4692 9.12122C16.06 8.72089 15.6508 8.31168 15.2505 7.90247C14.9747 7.61773 14.9567 7.31546 15.188 7.08411C15.4105 6.86164 15.7305 6.87954 16.0063 7.1554C16.3177 7.44899 16.612 7.76861 16.9233 8.09778C17.5906 7.49281 18.231 6.91435 18.8716 6.33606C19.1919 6.04243 19.5122 5.74872 19.8325 5.46399Z" fill="white"/>
</svg>
