<svg width="45" height="45" viewBox="0 0 45 45" fill="none" xmlns="http://www.w3.org/2000/svg">
<path d="M31.7906 36.2493C31.7906 37.8243 31.7906 39.3618 31.7906 40.9368C33.2531 40.9368 34.6781 40.9243 36.1156 40.9493C36.5531 40.9618 37.0281 41.0368 37.4281 41.1993C38.3031 41.5493 38.8031 42.1868 38.7656 43.1868C38.7531 43.5493 38.7656 43.8993 38.7531 44.2618C38.7406 44.7243 38.5031 44.9368 38.0531 44.9618C37.9281 44.9743 37.8031 44.9618 37.6781 44.9618C29.7031 44.9618 21.7406 44.9618 13.7656 44.9618C12.8281 44.9618 12.7031 44.8243 12.7031 43.8743C12.7031 43.7368 12.7031 43.5993 12.7031 43.4493C12.7031 41.8493 13.5906 40.9493 15.2156 40.9368C16.5281 40.9243 17.8406 40.9368 19.1406 40.9368C19.3031 40.9368 19.4781 40.9368 19.6656 40.9368C19.6656 39.3743 19.6656 37.8493 19.6656 36.2493C19.4781 36.2493 19.3031 36.2493 19.1281 36.2493C16.0031 36.2493 12.8906 36.2493 9.76558 36.2493C7.75308 36.2493 6.52808 35.0243 6.52808 33.0243C6.52808 27.4743 6.52808 21.9243 6.52808 16.3618C6.52808 16.2118 6.52808 16.0493 6.52808 15.8618C7.34058 15.8618 8.12808 15.8618 8.97808 15.8618C8.97808 20.9743 8.97808 26.0993 8.97808 31.2493C20.1531 31.2493 31.2656 31.2493 42.4406 31.2493C42.4406 31.0618 42.4406 30.8618 42.4406 30.6618C42.4406 25.3868 42.4406 20.1118 42.4281 14.8493C42.4281 14.4118 42.5156 14.0743 42.8531 13.7868C43.1906 13.5118 43.6281 13.1993 43.7156 12.8368C43.7906 12.4993 43.4781 12.0618 43.2906 11.6868C43.0406 11.2243 43.4281 10.9368 43.5031 10.4993C44.3781 11.0868 44.7906 11.8368 44.8906 12.7868C44.9031 12.9618 44.9031 13.1243 44.9031 13.2993C44.9031 19.8493 44.9031 26.3993 44.9031 32.9493C44.9031 35.0368 43.7031 36.2243 41.6281 36.2243C38.5281 36.2243 35.4156 36.2243 32.3156 36.2243C32.1531 36.2493 31.9906 36.2493 31.7906 36.2493Z" fill="white"/>
<path d="M11.8281 14.3243C9.25306 14.3243 6.67806 14.3368 4.10306 14.3243C1.71556 14.3118 -0.0844414 12.5243 0.00305861 10.2243C0.0530586 8.71177 0.803054 7.59927 2.11555 6.87427C2.35305 6.74927 2.44056 6.61177 2.44056 6.34927C2.52806 3.69927 3.74056 1.69927 6.16556 0.611766C8.56556 -0.475734 10.8406 -0.0882341 12.9031 1.57427C13.0406 1.68677 13.3031 1.74927 13.4656 1.69927C16.8156 0.786766 20.0406 2.79927 20.6781 6.23677C20.7281 6.52427 20.9031 6.59927 21.1281 6.68677C22.7531 7.32427 23.7656 8.89927 23.6531 10.6243C23.5531 12.3243 22.3406 13.7868 20.6406 14.1993C20.2406 14.2993 19.8031 14.3368 19.3906 14.3368C16.8781 14.3368 14.3531 14.3243 11.8281 14.3243ZM4.10306 6.08677C4.07806 6.76177 4.37805 7.12427 4.90305 7.07427C5.32805 7.03677 5.56555 6.74927 5.59055 6.17427C5.64055 5.29927 5.99055 4.58677 6.61555 3.99927C7.21555 3.44927 7.92805 3.21177 8.74055 3.16177C9.22806 3.12427 9.52806 2.79927 9.50306 2.38677C9.47806 1.94927 9.14056 1.67427 8.62806 1.68677C6.24056 1.71177 4.17806 3.71177 4.10306 6.08677Z" fill="white"/>
<path d="M43.5156 9.03687C42.5031 9.07437 42.1906 9.77437 41.8531 10.5744C41.6031 11.1744 41.5406 11.6369 41.8906 12.1619C42.0531 12.4119 42.0156 12.6119 41.7781 12.7994C41.6531 12.8869 41.5406 12.9994 41.4531 13.1244C40.9656 13.8119 40.4031 14.0619 39.6406 13.5119C39.5531 13.4494 39.3406 13.4744 39.2156 13.5244C38.9031 13.6494 38.6031 13.8744 38.2781 13.9369C37.6781 14.0494 37.3656 14.3994 37.2531 14.9619C37.1781 15.3119 36.9781 15.4619 36.6281 15.3994C36.4906 15.3744 36.3406 15.3744 36.2031 15.3994C35.3906 15.5369 34.8156 15.3369 34.6781 14.4244C34.6531 14.2994 34.4781 14.1744 34.3406 14.1119C34.0156 13.9619 33.6406 13.8994 33.3531 13.7119C32.8906 13.4119 32.4656 13.4369 32.0281 13.7244C31.6906 13.9494 31.4031 13.9244 31.1531 13.5744C31.1156 13.5119 31.0531 13.4494 30.9906 13.4119C30.2781 12.8994 29.9406 12.3244 30.5406 11.4994C30.6031 11.4119 30.5531 11.2119 30.4906 11.0744C30.3656 10.7744 30.1656 10.4869 30.1031 10.1869C29.9906 9.58687 29.6531 9.26187 29.0781 9.16187C28.7281 9.09937 28.5781 8.89937 28.6406 8.54937C28.6656 8.42437 28.6656 8.29937 28.6406 8.17437C28.5031 7.33687 28.6781 6.72437 29.6531 6.57437C29.7656 6.56187 29.8781 6.38687 29.9406 6.26187C30.0406 6.06187 30.0406 5.82437 30.1531 5.64937C30.5781 4.98687 30.6906 4.32437 30.2031 3.63687C30.1531 3.56187 30.2156 3.33687 30.3031 3.24937C30.6281 2.88687 30.9656 2.54937 31.3281 2.22437C31.4281 2.13687 31.6906 2.07437 31.7906 2.13687C32.4031 2.51187 32.9906 2.54937 33.5781 2.11187C33.5906 2.09937 33.6031 2.09937 33.6281 2.09937C34.3781 1.97437 34.8281 1.54937 34.9906 0.799365C35.0156 0.686865 35.2531 0.549365 35.3906 0.549365C35.8406 0.511865 36.2906 0.511865 36.7406 0.549365C36.8906 0.561865 37.1406 0.711865 37.1656 0.836865C37.3406 1.53687 37.7406 1.97437 38.4656 2.08687C38.4781 2.08687 38.4906 2.09937 38.5031 2.09937C39.1281 2.52437 39.7406 2.57437 40.3781 2.13687C40.4656 2.07437 40.7031 2.13687 40.8031 2.22437C41.1531 2.53687 41.4656 2.88687 41.8031 3.19937C42.0031 3.38687 42.0406 3.54937 41.8906 3.76187C41.5281 4.31187 41.4656 4.87437 41.8906 5.42437C41.9281 5.47437 41.9531 5.53687 41.9656 5.59937C42.0656 6.33687 42.5031 6.72437 43.2031 6.89937C43.3281 6.92437 43.4781 7.14937 43.4781 7.27437C43.5281 7.81187 43.5156 8.37437 43.5156 9.03687ZM36.0656 11.4744C38.0156 11.4744 39.5781 9.91187 39.5781 7.97437C39.5781 6.03687 38.0031 4.44937 36.0656 4.44937C34.1281 4.44937 32.5531 6.02437 32.5531 7.96187C32.5531 9.91187 34.1156 11.4744 36.0656 11.4744Z" fill="white"/>
<path d="M20.553 17.9869C20.778 17.8494 20.9905 17.7244 21.203 17.5994C22.6155 16.7869 24.028 15.9619 25.453 15.1619C25.5905 15.0869 25.828 15.0494 25.9405 15.1119C27.578 16.0369 29.203 16.9869 30.828 17.9244C30.853 17.9369 30.8655 17.9744 30.903 18.0369C30.5905 18.2244 30.278 18.4119 29.953 18.5869C28.6655 19.3369 27.3655 20.0869 26.0655 20.8119C25.903 20.8994 25.628 20.9369 25.4905 20.8619C23.878 19.9619 22.278 19.0244 20.678 18.0994C20.6405 18.0869 20.6155 18.0494 20.553 17.9869Z" fill="white"/>
<path d="M19.7904 19.3368C20.1279 19.5243 20.4529 19.7118 20.7779 19.8868C22.0904 20.6368 23.3904 21.3868 24.6904 22.1618C24.8279 22.2368 24.9779 22.4243 24.9779 22.5618C24.9904 24.4243 24.9904 26.2993 24.9904 28.1618C24.9904 28.1993 24.9654 28.2493 24.9404 28.3368C24.2154 27.9118 23.5029 27.5118 22.7904 27.0993C21.8779 26.5743 20.9529 26.0493 20.0529 25.4993C19.9154 25.4243 19.7654 25.2368 19.7654 25.0993C19.7529 23.2368 19.7529 21.3618 19.7529 19.4993C19.7529 19.4618 19.7654 19.4243 19.7904 19.3368Z" fill="white"/>
<path d="M26.478 28.3493C26.478 27.5368 26.478 26.7868 26.478 26.0243C26.478 24.9118 26.478 23.8118 26.4905 22.6993C26.4905 22.5493 26.5655 22.3868 26.6405 22.2493C26.6655 22.1868 26.7655 22.1618 26.8405 22.1243C28.4405 21.1993 30.053 20.2743 31.703 19.3243C31.7155 19.4993 31.728 19.6118 31.728 19.7243C31.728 21.4743 31.7405 23.2243 31.7155 24.9618C31.7155 25.1368 31.6155 25.3993 31.478 25.4868C29.9155 26.4243 28.328 27.3243 26.753 28.2368C26.678 28.2743 26.603 28.2993 26.478 28.3493Z" fill="white"/>
<path d="M24.8281 12.5243C24.9781 11.6618 25.1156 10.8868 25.2656 10.0743C26.3156 9.98682 27.4406 9.93682 28.4531 10.5243C28.6656 10.6493 28.8906 10.9993 28.8781 11.2368C28.8531 11.6368 28.6656 12.0368 28.4781 12.3868C28.4156 12.4993 28.1281 12.5118 27.9281 12.5118C26.8906 12.5368 25.8531 12.5243 24.8281 12.5243Z" fill="white"/>
</svg>
