<svg width="44" height="45" viewBox="0 0 44 45" fill="none" xmlns="http://www.w3.org/2000/svg">
<path d="M30.6932 23.95C24.6932 23.95 18.7432 23.95 12.7682 23.95C12.7557 23.825 12.7307 23.7125 12.7307 23.5875C12.7307 22.025 12.7307 20.475 12.7307 18.9125C12.7307 18.2375 12.9932 17.975 13.6682 17.975C19.0307 17.975 24.3932 17.975 29.7557 17.975C30.4307 17.975 30.7057 18.2375 30.7057 18.9C30.6932 20.5625 30.6932 22.2375 30.6932 23.95ZM23.1682 22.45C23.1682 21.9375 23.1682 21.4625 23.1682 21.0125C22.6557 21.0125 22.1932 21.0125 21.7307 21.0125C21.7307 21.5125 21.7307 21.975 21.7307 22.45C22.2182 22.45 22.6807 22.45 23.1682 22.45ZM24.7182 22.45C25.2307 22.45 25.6932 22.45 26.1682 22.45C26.1682 21.95 26.1682 21.4875 26.1682 21C25.6682 21 25.1932 21 24.7182 21C24.7182 21.5 24.7182 21.9625 24.7182 22.45ZM29.1557 22.45C29.1557 21.925 29.1557 21.4625 29.1557 21C28.6557 21 28.1932 21 27.7182 21C27.7182 21.5 27.7182 21.9625 27.7182 22.45C28.2182 22.45 28.6682 22.45 29.1557 22.45Z" fill="white"/>
<path d="M43.4181 37.4251C38.4181 37.4251 33.4681 37.4251 28.4806 37.4251C28.4681 37.3001 28.4431 37.1876 28.4431 37.0626C28.4431 35.5001 28.4431 33.9501 28.4431 32.3876C28.4431 31.7126 28.7056 31.4501 29.3681 31.4501C33.7306 31.4501 38.0931 31.4501 42.4556 31.4501C43.1306 31.4501 43.4056 31.7126 43.4056 32.3751C43.4181 34.0376 43.4181 35.7126 43.4181 37.4251Z" fill="white"/>
<path d="M8.96822 31.4875C8.96822 34.475 8.96822 37.4375 8.96822 40.4125C5.99322 40.4125 3.03071 40.4125 0.0432129 40.4125C0.0432129 37.45 0.0432129 34.4875 0.0432129 31.4875C2.99321 31.4875 5.95572 31.4875 8.96822 31.4875Z" fill="white"/>
<path d="M0.00555556 10.5126C5.50556 10.5126 10.9556 10.5126 16.3931 10.5126C16.8181 12.0126 15.7556 13.4751 14.2056 13.4876C10.2306 13.5001 6.26806 13.5001 2.29306 13.4876C0.955562 13.4876 0.0180556 12.5126 0.00555556 11.1751C-0.00694444 10.9751 0.00555556 10.7751 0.00555556 10.5126Z" fill="white"/>
<path d="M4.51807 8.96252C4.51807 6.97502 4.51807 5.01252 4.51807 3.02502C6.99307 3.02502 9.45557 3.02502 11.9431 3.02502C11.9431 4.98752 11.9431 6.95002 11.9431 8.96252C9.48057 8.96252 7.01807 8.96252 4.51807 8.96252Z" fill="white"/>
<path d="M2.99316 8.97512C2.46816 8.97512 2.00566 8.97512 1.51816 8.97512C1.50566 8.81262 1.49316 8.65012 1.49316 8.50012C1.49316 6.48762 1.49316 4.47512 1.49316 2.46262C1.49316 0.937622 2.41816 0.00012207 3.93066 0.00012207C6.79316 0.00012207 9.66817 0.00012207 12.5307 0.00012207C14.0307 0.00012207 14.9557 0.925122 14.9682 2.41262C14.9682 4.57512 14.9682 6.75012 14.9682 8.95012C14.4807 8.95012 14.0057 8.95012 13.4682 8.95012C13.4682 8.78762 13.4682 8.62512 13.4682 8.46262C13.4682 6.70012 13.4682 4.93762 13.4682 3.17512C13.4682 2.10012 12.8682 1.50012 11.7807 1.50012C9.40567 1.50012 7.04317 1.50012 4.66817 1.50012C3.59317 1.50012 2.98067 2.10012 2.98067 3.17512C2.99317 5.10012 2.99316 7.01262 2.99316 8.97512Z" fill="white"/>
<path d="M29.968 44.9C29.968 44.4 29.968 43.9375 29.968 43.45C30.7055 43.45 31.4055 43.45 32.168 43.45C32.168 42.95 32.168 42.475 32.168 41.975C34.6805 41.975 37.1555 41.975 39.668 41.975C39.668 42.45 39.668 42.925 39.668 43.425C40.4305 43.425 41.143 43.425 41.8805 43.425C41.8805 43.925 41.8805 44.4 41.8805 44.9C37.918 44.9 33.968 44.9 29.968 44.9Z" fill="white"/>
<path d="M12.7555 25.4875C18.7305 25.4875 24.6805 25.4875 30.6805 25.4875C30.6805 25.7625 30.7055 26.025 30.6805 26.275C30.6305 26.6875 30.393 26.9125 29.9805 26.9625C29.8305 26.975 29.668 26.975 29.518 26.975C24.3555 26.975 19.2055 26.975 14.043 26.975C12.8305 26.9625 12.643 26.7625 12.7555 25.4875Z" fill="white"/>
<path d="M16.4932 6.00007C16.4932 5.48757 16.4932 5.02507 16.4932 4.45007C17.5682 4.51257 18.6557 4.46257 19.6932 4.66257C21.2932 4.98757 22.4307 6.48757 22.4557 8.12507C22.4807 10.8251 22.4682 13.5126 22.4682 16.2126C22.4682 16.2876 22.4557 16.3626 22.4557 16.4501C21.9682 16.4501 21.5057 16.4501 20.9807 16.4501C20.9807 16.2876 20.9807 16.1251 20.9807 15.9501C20.9807 13.9126 20.9182 11.8626 20.9932 9.82507C21.1307 6.58757 20.3432 5.80007 17.1682 5.98757C16.9432 6.01257 16.7432 6.00007 16.4932 6.00007Z" fill="white"/>
<path d="M28.4806 38.9625C33.4556 38.9625 38.4056 38.9625 43.4181 38.9625C43.4181 39.2 43.4306 39.4375 43.4181 39.6625C43.3931 40.15 43.1181 40.425 42.6181 40.4375C42.1556 40.45 41.6806 40.4375 41.2181 40.4375C37.4056 40.4375 33.5806 40.4375 29.7681 40.4375C28.5431 40.4375 28.3556 40.225 28.4806 38.9625Z" fill="white"/>
<path d="M20.9807 28.475C21.4807 28.475 21.9307 28.475 22.4557 28.475C22.4557 28.65 22.4557 28.8125 22.4557 28.975C22.4557 30.2625 22.4557 31.5625 22.4557 32.85C22.4682 34.25 23.4057 35.1875 24.8057 35.2C25.5057 35.2 26.1932 35.2 26.9182 35.2C26.9182 35.7125 26.9182 36.175 26.9182 36.7C25.8057 36.6375 24.6807 36.875 23.5932 36.5125C22.0932 36.025 21.1307 34.9625 21.0057 33.4C20.8807 31.7875 20.9807 30.1375 20.9807 28.475Z" fill="white"/>
<path d="M5.24313 26.9501C4.71813 26.9501 4.26813 26.9501 3.74313 26.9501C3.81813 25.7751 3.55563 24.5751 3.98063 23.4376C4.51813 22.0126 5.58062 21.1376 7.08062 21.0126C8.44312 20.9001 9.81812 20.9876 11.2056 20.9876C11.2056 21.4626 11.2056 21.9251 11.2056 22.4626C11.0681 22.4626 10.9181 22.4626 10.7681 22.4626C9.69312 22.4626 8.61813 22.4501 7.54313 22.4626C6.20563 22.4751 5.25563 23.4251 5.24313 24.7626C5.24313 25.3376 5.24313 25.9126 5.24313 26.4876C5.24313 26.6626 5.24313 26.8001 5.24313 26.9501Z" fill="white"/>
<path d="M38.9932 6.73755C36.8807 6.73755 34.9557 6.73755 32.9932 6.73755C33.0557 5.72505 33.3557 4.80005 33.7557 3.91255C33.7932 3.83755 33.9432 3.76255 34.0432 3.76255C35.2932 3.75005 36.5307 3.75005 37.7807 3.76255C37.8932 3.76255 38.0932 3.87505 38.1182 3.97505C38.4182 4.86255 38.6932 5.76255 38.9932 6.73755Z" fill="white"/>
<path d="M32.9932 8.27502C34.9682 8.27502 36.8932 8.27502 38.8682 8.27502C38.7932 9.27502 38.5057 10.1875 38.1182 11.0625C38.0807 11.15 37.9057 11.2375 37.8057 11.2375C36.5557 11.25 35.3182 11.25 34.0682 11.2375C33.9557 11.2375 33.7932 11.15 33.7557 11.0625C33.3557 10.175 33.0682 9.26252 32.9932 8.27502Z" fill="white"/>
<path d="M0.00555556 29.9251C0.00555556 29.6626 -0.00694444 29.4376 0.00555556 29.2001C0.0305556 28.7626 0.305556 28.4626 0.755556 28.4626C3.24306 28.4501 5.74306 28.4501 8.23056 28.4626C8.68056 28.4626 8.95556 28.7501 8.98056 29.2001C8.99306 29.4251 8.98056 29.6626 8.98056 29.9251C5.99306 29.9251 3.03056 29.9251 0.00555556 29.9251Z" fill="white"/>
<path d="M0.00555556 41.9501C3.01806 41.9501 5.96806 41.9501 8.98056 41.9501C8.98056 42.2001 8.99306 42.4501 8.98056 42.6876C8.95556 43.1251 8.68056 43.4251 8.23056 43.4251C5.74306 43.4376 3.24306 43.4376 0.755556 43.4251C0.305556 43.4251 0.0305556 43.1251 0.00555556 42.6876C-0.00694444 42.4626 0.00555556 42.2251 0.00555556 41.9501Z" fill="white"/>
<path d="M32.2056 22.4376C32.2056 21.9501 32.2056 21.4876 32.2056 20.9751C32.4556 20.9751 32.6806 20.9751 32.9181 20.9751C34.1931 20.9501 35.1556 20.0001 35.1806 18.7251C35.1931 18.0001 35.1806 17.2626 35.1806 16.5001C35.6806 16.5001 36.1556 16.5001 36.7306 16.5001C36.6806 17.5501 36.7431 18.6251 36.5431 19.6376C36.1556 21.5501 34.3306 22.6751 32.2056 22.4376Z" fill="white"/>
<path d="M43.3681 6.73752C42.3556 6.73752 41.4056 6.73752 40.4681 6.73752C40.2306 5.75002 40.0056 4.77502 39.7556 3.76252C40.5681 3.76252 41.4056 3.75002 42.2306 3.77502C42.3306 3.77502 42.4556 3.87502 42.5056 3.96252C42.9806 4.81252 43.2681 5.72502 43.3681 6.73752Z" fill="white"/>
<path d="M31.4056 8.28748C31.6431 9.26248 31.8806 10.2375 32.1181 11.25C31.3181 11.25 30.5056 11.2625 29.7056 11.2375C29.5806 11.2375 29.4056 11.125 29.3556 11.025C28.8931 10.1875 28.5931 9.28748 28.5056 8.28748C29.4931 8.28748 30.4556 8.28748 31.4056 8.28748Z" fill="white"/>
<path d="M40.4557 8.27502C41.4182 8.27502 42.3682 8.27502 43.3557 8.27502C43.2807 9.28752 42.9682 10.2125 42.4932 11.075C42.4432 11.1625 42.3057 11.25 42.2057 11.25C41.3807 11.2625 40.5557 11.2625 39.7432 11.2625C39.9932 10.2375 40.2182 9.26252 40.4557 8.27502Z" fill="white"/>
<path d="M31.4056 6.73751C30.4681 6.73751 29.5181 6.73751 28.5181 6.73751C28.5806 5.70001 28.9181 4.76251 29.4056 3.87501C29.4431 3.80001 29.5931 3.76251 29.6806 3.76251C30.4931 3.75001 31.2931 3.76251 32.1181 3.76251C31.8681 4.75001 31.6431 5.72501 31.4056 6.73751Z" fill="white"/>
<path d="M41.2555 12.7375C40.2305 13.7375 39.143 14.375 37.7805 14.7375C38.193 14.0625 38.5555 13.45 38.943 12.85C38.9805 12.7875 39.1305 12.75 39.2305 12.75C39.868 12.7375 40.5055 12.7375 41.2555 12.7375Z" fill="white"/>
<path d="M41.2555 2.26252C40.493 2.26252 39.8555 2.27502 39.218 2.25002C39.1055 2.25002 38.9555 2.16252 38.893 2.07502C38.518 1.50002 38.1805 0.912524 37.7805 0.275024C39.1305 0.612524 40.2305 1.25002 41.2555 2.26252Z" fill="white"/>
<path d="M34.0682 0.275024C33.6682 0.937524 33.3057 1.52502 32.9432 2.12502C32.8932 2.20002 32.7682 2.26252 32.6807 2.26252C32.0307 2.27502 31.3807 2.27502 30.6182 2.27502C31.6307 1.23752 32.7432 0.625024 34.0682 0.275024Z" fill="white"/>
<path d="M30.6057 12.7375C31.3932 12.7375 32.0432 12.7375 32.6932 12.75C32.7807 12.75 32.9057 12.8125 32.9557 12.8875C33.3307 13.475 33.6807 14.075 34.0807 14.7375C32.7432 14.3875 31.6432 13.7625 30.6057 12.7375Z" fill="white"/>
<path d="M37.293 2.24998C36.3555 2.24998 35.5305 2.24998 34.593 2.24998C35.043 1.61248 35.443 1.02498 35.918 0.349976C36.393 0.999976 36.8055 1.57498 37.293 2.24998Z" fill="white"/>
<path d="M37.2805 12.7626C36.818 13.4126 36.4055 13.9876 35.9305 14.6376C35.468 13.9876 35.043 13.4001 34.593 12.7626C35.518 12.7626 36.343 12.7626 37.2805 12.7626Z" fill="white"/>
</svg>
