<svg width="32" height="32" viewBox="0 0 32 32" fill="none" xmlns="http://www.w3.org/2000/svg">
<path d="M17.5664 27.252C17.6711 26.8857 17.8025 26.8074 18.1602 26.9034C21.2929 27.7411 24.4346 28.5783 27.5674 29.4161C27.7855 29.4684 27.9951 29.5387 28.0039 29.8702C27.8643 30.3501 27.7331 30.8915 27.5586 31.4151C27.48 31.6505 27.2532 31.6334 27.0264 31.5723C25.2374 31.0836 23.4393 30.6031 21.6504 30.1231C20.333 29.7654 19.0069 29.4164 17.6895 29.0674C17.2095 28.9365 17.1483 28.8316 17.2705 28.3516C17.3665 27.9852 17.4617 27.6184 17.5664 27.252ZM13.7881 26.9122C14.1894 26.8075 14.3113 26.8772 14.416 27.2784C14.5469 27.7234 14.6609 28.1776 14.7656 28.5616C14.783 28.9366 14.5472 28.9976 14.3291 29.0587C13.0376 29.4077 11.7457 29.7487 10.4629 30.0977C8.64793 30.5864 6.83253 31.0661 5.01758 31.5547C4.55541 31.6768 4.45019 31.6157 4.31934 31.1446C4.22334 30.7955 4.13701 30.4546 4.04102 30.1055C3.91895 29.6433 3.9887 29.5304 4.44238 29.4083C6.32719 28.9022 8.22067 28.4046 10.1055 27.8985C11.3359 27.5669 12.5577 27.2351 13.7881 26.9122ZM1.23926 7.26862C1.94591 7.27739 2.46073 7.83592 2.46094 8.60358V15.1661C2.46094 15.262 2.46065 15.3669 2.42578 15.4542C2.18149 16.0823 2.23376 16.7107 2.4082 17.3389C2.65253 18.2028 2.87964 19.0757 3.11523 19.9483C3.28972 20.6026 3.57781 21.1872 4.04883 21.6758C4.29317 21.9289 4.59037 21.9645 4.7998 21.7725C5.00922 21.5805 4.96548 21.3094 4.78223 21.0128C4.52052 20.6115 4.24119 20.1929 4.10156 19.7393C3.79614 18.7794 3.56069 17.7929 3.30762 16.8155C3.08079 15.9516 3.53419 15.14 4.3457 14.9131C5.16596 14.6775 6.00367 15.1576 6.24805 16.0128C6.45748 16.7458 6.63242 17.4877 6.85059 18.212C7.12112 19.1107 7.66205 19.818 8.46484 20.3067C9.35484 20.8477 10.2625 21.3709 11.1699 21.877C11.6411 22.1388 11.9549 22.5057 12.0684 23.0206C12.2603 23.8757 12.4183 24.7485 12.5928 25.6036C12.6276 25.7953 12.6713 25.9696 12.7148 26.1788C10.0272 26.903 7.34801 27.6195 4.68652 28.335C4.65162 28.3088 4.63373 28.291 4.625 28.2735C4.02287 26.7987 3.0192 25.6289 1.88477 24.5381C1.52711 24.1979 1.18676 23.8491 0.829102 23.5176C0.270607 22.9766 0 22.3217 0 21.5538V8.59576C0 7.82783 0.541139 7.26862 1.23926 7.26862ZM30.5605 7.29498C31.1189 7.19029 31.6859 7.50429 31.8955 8.05377C31.9653 8.22824 31.9922 8.43802 31.9922 8.62994C32.0009 12.9321 31.9923 17.2262 32.001 21.5284C32.0009 22.3223 31.7214 22.9856 31.1543 23.544C30.4213 24.2596 29.6971 24.9839 28.999 25.7256C28.266 26.4674 27.751 27.3489 27.3408 28.335C24.6356 27.6107 21.965 26.8943 19.2686 26.17C19.4867 25.1055 19.6872 24.058 19.9141 23.0284C20.0276 22.5137 20.3424 22.1475 20.8135 21.8858C21.6511 21.4234 22.4709 20.9253 23.2998 20.4542C24.2858 19.8957 24.9317 19.0759 25.2197 17.9678C25.3855 17.3395 25.5608 16.7104 25.7266 16.0821C25.9711 15.1836 26.765 14.695 27.6113 14.9044C28.4489 15.1139 28.9114 15.9519 28.6758 16.8506C28.4227 17.8192 28.196 18.7969 27.8906 19.7393C27.7423 20.1929 27.4716 20.6115 27.21 21.0128C27.018 21.3095 26.9742 21.5718 27.1836 21.7725C27.393 21.9643 27.6893 21.9289 27.9336 21.6846C28.3961 21.2047 28.6848 20.6205 28.8594 19.9835C29.1212 19.0323 29.3739 18.0723 29.627 17.1212C29.7666 16.5888 29.7663 16.0647 29.5918 15.5499C29.557 15.4365 29.5313 15.3145 29.5312 15.2012C29.5312 12.9848 29.5225 10.7595 29.5312 8.54303C29.5312 7.89729 29.941 7.40845 30.5605 7.29498ZM18.9629 8.02838C19.1374 7.89748 19.269 7.87966 19.4609 7.97565C21.4765 9.03151 22.6023 10.672 22.7158 12.9581C22.7682 13.9442 22.7333 14.9398 22.7246 15.9258C22.7245 16.3007 22.6367 16.379 22.2529 16.379C20.1673 16.4051 18.0817 16.3965 15.9961 16.3965H9.79199C9.32079 16.3965 9.25977 16.3355 9.25977 15.8731C9.25977 14.9045 9.22395 13.9355 9.26758 12.9669C9.38109 10.6806 10.5164 9.04031 12.5234 7.98444C12.7153 7.8886 12.8461 7.90627 13.0205 8.02838C14.8005 9.32833 17.1828 9.32827 18.9629 8.02838ZM15.9785 6.10352e-05C18.2299 -0.00866534 20.0537 1.78852 20.0537 4.01373C20.0537 6.23026 18.2299 8.03711 15.9785 8.02838C13.7447 8.02821 11.9385 6.22143 11.9385 4.01373C11.9385 1.80608 13.7534 0.00895994 15.9785 6.10352e-05Z" fill="white"/>
</svg>
