<svg width="32" height="32" viewBox="0 0 32 32" fill="none" xmlns="http://www.w3.org/2000/svg">
<path d="M32 17.374C32 18.613 31.9825 18.6395 30.7695 18.8926C30.3245 18.9886 29.8708 19.0584 29.4258 19.1631C29.3036 19.1893 29.1549 19.3026 29.1025 19.416C28.6226 20.5417 28.1519 21.6763 27.6895 22.8193C27.6458 22.9328 27.6713 23.1161 27.7324 23.2295C28.064 23.7618 28.4312 24.2763 28.7803 24.8086C29.077 25.2536 29.0413 25.5681 28.666 25.9434C27.7586 26.8508 26.8508 27.7673 25.9434 28.666C25.5683 29.041 25.2545 29.0671 24.8096 28.7705C24.2947 28.4302 23.7882 28.0728 23.2559 27.7412C23.1424 27.6714 22.9415 27.6361 22.8193 27.6885C21.6763 28.1422 20.5416 28.6139 19.416 29.1025C19.3114 29.1464 19.1981 29.2861 19.1807 29.3906C19.0411 30.0013 18.9278 30.6295 18.8057 31.2402C18.7009 31.7725 18.456 31.9824 17.9062 31.9824H14.085C13.5352 31.9824 13.2903 31.7725 13.1855 31.2402C13.0634 30.6294 12.959 30.0181 12.8193 29.416C12.7844 29.2852 12.6708 29.1286 12.5488 29.0762C11.4319 28.5963 10.3062 28.1334 9.17188 27.6797C9.0497 27.6273 8.8488 27.6626 8.73535 27.7324C8.20304 28.064 7.67886 28.4302 7.15527 28.7793C6.72792 29.0583 6.41417 29.0322 6.04785 28.666L3.3252 25.9434C2.9325 25.5507 2.90557 25.2447 3.21973 24.7822C3.55998 24.2762 3.89224 23.7707 4.24121 23.2646C4.35466 23.1076 4.3803 22.9762 4.30176 22.793C3.83062 21.6849 3.36873 20.5679 2.91504 19.4512C2.84523 19.2679 2.73111 19.1804 2.54785 19.1455C1.93715 19.0321 1.33531 18.9093 0.724609 18.7871C0.209779 18.6824 2.57248e-05 18.4298 0 17.9062V15.9951H7.78418C7.88018 18.7176 8.96225 20.9513 11.1611 22.5918C12.697 23.735 14.4512 24.2504 16.3623 24.1719C20.804 23.9885 24.2246 20.2972 24.2246 15.9863H32V17.374ZM17.4531 21.4668C17.6276 22.3743 17.226 22.8721 16.3359 22.8721H15.6211C14.8445 22.8633 14.4951 22.5051 14.4951 21.7285V21.4492H17.1738C17.2697 21.4492 17.3659 21.4581 17.4531 21.4668ZM18.6494 18.7354C18.6494 19.1018 18.6755 19.4508 18.6406 19.791C18.597 20.2535 18.2649 20.5158 17.7588 20.5332C17.2442 20.5506 16.7383 20.5332 16.2236 20.5332C15.5779 20.5332 14.9406 20.5419 14.2949 20.5332C13.6493 20.5245 13.335 20.21 13.3262 19.5645C13.3349 19.294 13.335 19.0232 13.335 18.7354H18.6494ZM14.8701 6.31738C18.1861 5.64554 21.2578 8.01945 21.3975 11.4053C21.4585 12.9236 20.9523 14.2588 19.8877 15.3408C19.2158 16.0302 18.6833 16.7632 18.6484 17.7842H16.5371C16.5284 17.7231 16.5107 17.6793 16.5107 17.627C16.4148 16.7979 16.3188 15.9686 16.2402 15.1309C16.2229 14.9391 16.2661 14.7386 16.3184 14.5469C16.3794 14.2851 16.4934 14.0313 16.5283 13.7607C16.5545 13.5604 16.6245 13.5165 16.8076 13.499C18.8406 13.2894 19.9662 11.2563 19.0674 9.42383C18.9627 9.20574 18.8575 8.99648 18.7354 8.78711C18.587 8.51672 18.3869 8.49067 18.1514 8.68262C17.6889 9.05785 17.226 9.43323 16.7461 9.79102C16.2314 10.1837 15.917 10.6289 15.6465 11.4316C14.8 10.943 13.9451 10.4623 13.0986 9.96484C12.7496 9.75543 12.584 9.7997 12.4443 10.1924C12.1739 10.9515 11.9731 11.7023 12.1738 12.5225C12.5056 13.8747 13.6657 14.8521 15.0703 14.9482C15.1227 14.9482 15.1754 14.9571 15.2627 14.9658C15.4721 15.882 15.647 16.807 15.5859 17.7842H13.3779C13.3343 17.5486 13.2994 17.3039 13.2383 17.0596C13.0637 16.4313 12.6968 15.9342 12.2344 15.4805C11.292 14.5556 10.7598 13.4298 10.6201 12.1123C10.3409 9.43328 12.226 6.8497 14.8701 6.31738ZM13.1074 11.1436C14.1196 11.606 15.2627 11.9023 15.5596 13.2109C15.6119 13.464 15.6213 13.7176 15.6475 13.9619C14.042 14.3371 12.6279 12.749 13.1074 11.1436ZM24.3818 12.5049C25.3592 11.2832 27.4625 11.2744 28.501 12.5049C27.4626 13.7351 25.3069 13.7263 24.3818 12.5049ZM3.50879 12.4873C4.50361 11.2743 6.6156 11.2831 7.61914 12.4961C6.70282 13.7262 4.36408 13.7174 3.50879 12.4873ZM18.2568 9.9043C18.536 10.5238 18.518 11.1263 18.1689 11.7021C17.8112 12.2865 17.2788 12.5831 16.5635 12.6006C16.2842 11.4923 16.7297 10.8031 18.2568 9.9043ZM23.248 8.30664C23.5276 6.72738 25.43 5.64604 26.8174 6.25684C26.5728 7.80991 24.7052 8.89126 23.248 8.30664ZM5.16602 6.25684C6.63206 5.68089 8.54343 6.78042 8.74414 8.29883C7.61851 8.81365 5.58509 8.15017 5.16602 6.25684ZM22.2266 1.6748C22.8025 2.88779 21.9474 4.93871 20.1934 5.24414C19.6525 3.92654 20.5165 2.02403 22.2266 1.6748ZM9.75684 1.66602C11.371 2.02398 12.339 3.72572 11.8154 5.22656C10.306 5.06045 9.16349 3.16683 9.75684 1.66602ZM15.9873 0C17.2177 0.959919 17.2266 3.09716 16.0137 4.11816C14.7835 3.24553 14.7661 1.11703 15.9873 0Z" fill="white"/>
</svg>
