<svg width="29" height="32" viewBox="0 0 29 32" fill="none" xmlns="http://www.w3.org/2000/svg">
<path d="M13.4365 25.7188C13.722 26.3762 14.1711 26.9134 14.7939 27.294C15.512 27.7266 16.2737 27.8817 17.0869 27.6827C17.2772 27.6395 17.416 27.657 17.5371 27.8214C17.6841 28.0116 17.8487 28.1764 18.0303 28.3926C18.0216 28.4013 17.9867 28.4787 17.9521 28.5479C17.3466 29.6032 16.741 30.6586 16.1182 31.7139C16.049 31.8264 15.9105 31.9049 15.8066 32.0001C15.7288 31.8963 15.6253 31.8008 15.582 31.6797C15.2792 30.8839 14.9935 30.0792 14.708 29.2833C14.6821 29.1708 14.639 29.0754 14.5957 28.963C13.696 29.1187 12.8219 29.2838 11.9395 29.4395C11.8357 29.4568 11.7229 29.4826 11.6191 29.4913C11.3598 29.5084 11.256 29.3783 11.3857 29.1622C12.0432 28.0116 12.7177 26.8695 13.3838 25.7276C13.384 25.7191 13.4022 25.7188 13.4365 25.7188ZM26.3955 25.6758C26.4474 25.7364 26.4996 25.7882 26.5342 25.8487C27.1484 26.9128 27.7626 27.977 28.3682 29.0411C28.4286 29.1448 28.4282 29.2746 28.4541 29.3956C28.3244 29.4215 28.1943 29.4822 28.0732 29.4649C27.1304 29.3092 26.1875 29.1359 25.2188 28.963C24.8814 29.8886 24.5698 30.7798 24.2324 31.6622C24.1892 31.7833 24.0678 31.8875 23.9727 31.9913C23.8776 31.8963 23.7569 31.8183 23.6963 31.7061C23.0475 30.5902 22.3986 29.4739 21.7412 28.3321C21.9488 28.1245 22.148 27.9169 22.3643 27.7266C22.4335 27.6661 22.563 27.6486 22.6582 27.6573C24.4056 27.9168 25.6083 27.2849 26.3955 25.6758ZM18.29 12.4395C18.9127 11.7218 19.7085 11.5486 20.5732 11.8165C20.9106 11.9203 21.2481 12.1634 21.499 12.4229C21.9056 12.8467 22.3385 13.0194 22.918 12.8897C24.2156 12.5956 25.3927 13.4784 25.5225 14.8106C25.5745 15.3726 25.8512 15.7448 26.3701 15.961C27.5896 16.4802 28.0563 17.9069 27.373 19.0401C27.0703 19.5419 27.0791 20.0011 27.3818 20.4942C28.0478 21.6101 27.5806 23.055 26.3955 23.5567C25.8508 23.7903 25.5744 24.1794 25.5225 24.7589C25.4186 26.0046 24.1895 26.9302 22.9697 26.6534C22.3557 26.5151 21.8888 26.6622 21.4736 27.1465C20.6777 28.0808 19.1201 28.0633 18.3242 27.129C17.9264 26.6707 17.4767 26.5151 16.8887 26.6534C15.643 26.9388 14.423 26.0479 14.3018 24.7676C14.2499 24.188 13.9814 23.7903 13.4277 23.5567C12.2253 23.0463 11.7676 21.6101 12.4336 20.4942C12.7363 19.9839 12.7275 19.5163 12.4248 19.0059C11.7673 17.9072 12.2346 16.4715 13.4111 15.9698C13.9646 15.7362 14.2498 15.3379 14.3018 14.7413C14.3969 13.686 15.3483 12.8203 16.4209 12.8028C16.5939 12.8287 16.7673 12.8465 16.9316 12.8897C17.4853 13.0368 17.9267 12.8634 18.29 12.4395ZM19.9248 14.8448C17.2171 14.8362 15.0028 17.0425 14.9941 19.7589C14.9857 22.4664 17.1654 24.6721 19.873 24.6807C22.6067 24.6893 24.804 22.5267 24.8213 19.793C24.8386 17.0767 22.6498 14.8621 19.9248 14.8448ZM9.50098 12.7169C10.9369 12.5006 12.3643 12.5783 13.7656 12.9503C13.8002 12.9589 13.8437 12.9761 13.9043 13.002C13.5151 13.5469 13.2643 14.1181 13.2383 14.7755C13.2383 14.862 13.1079 14.9656 13.0127 15.0089C11.222 15.8307 10.5651 17.8557 11.5254 19.5772C11.5772 19.6724 11.6026 19.8365 11.5508 19.9229C10.8155 21.1773 10.9539 22.3713 11.7324 23.5391C11.767 23.5651 11.767 23.5999 11.793 23.6778H0.746094C0.0801233 23.6778 -0.0410717 23.5479 0.0107422 22.8995C0.434639 17.6483 4.28445 13.5127 9.50098 12.7169ZM19.9688 16.3848C20.2195 16.9902 20.4872 17.5871 20.7207 18.1924C20.8159 18.426 20.9376 18.5217 21.1885 18.5303C21.7679 18.5563 22.3473 18.6171 22.9268 18.669C22.996 18.6777 23.0656 18.7035 23.1348 18.7208C23.1693 18.7639 23.195 18.7987 23.2295 18.8419C23.1259 18.9022 23.0139 18.9371 22.9189 19.0147C22.4691 19.3867 22.0274 19.767 21.6035 20.1563C21.5257 20.2255 21.474 20.3992 21.5 20.503C21.6384 21.1775 21.8026 21.8434 21.9756 22.5958C21.8199 22.5266 21.7243 22.4924 21.6465 22.4405C21.1621 22.1551 20.678 21.8692 20.2109 21.5665C20.0033 21.4367 19.8559 21.4106 19.6396 21.5577C19.1726 21.8691 18.6885 22.1463 18.2041 22.4317C18.1176 22.4836 18.0218 22.5267 17.8574 22.6046C17.9958 22.0077 18.0653 21.4796 18.2383 20.9952C18.4198 20.4763 18.3245 20.1306 17.8574 19.8106C17.425 19.5165 17.0617 19.136 16.5947 18.7296C16.7764 18.695 16.8718 18.6689 16.9756 18.6602C17.5638 18.6083 18.1608 18.5732 18.749 18.504C18.8615 18.4865 19.0173 18.3741 19.0605 18.2618C19.3027 17.7342 19.5184 17.1975 19.752 16.6612C19.7952 16.5662 19.8386 16.4712 19.8818 16.3848H19.9688ZM11.084 6.10352e-05C14.3798 0.00889714 17.0438 2.69049 17.0352 5.98639C17.0264 9.29081 14.328 11.981 11.0322 11.9639C7.73621 11.938 5.06264 9.25618 5.07129 5.96881C5.07999 2.66419 7.7707 -0.0172407 11.084 6.10352e-05Z" fill="white"/>
</svg>
