<svg width="48" height="48" viewBox="0 0 48 48" fill="none" xmlns="http://www.w3.org/2000/svg">
<path fill-rule="evenodd" clip-rule="evenodd" d="M31.3964 7.5072C33.2584 6.59778 35.3303 6.08829 37.0566 6.92301C37.9768 7.36798 38.6134 8.11329 38.9986 9.00047C39.3485 9.80645 39.4912 10.7233 39.4995 11.6715C39.5064 12.4687 39.4185 13.3298 39.2504 14.2356C38.9963 15.6049 38.5556 17.0934 37.9631 18.6454C37.9011 18.8079 37.8139 18.9533 37.7076 19.079C38.0781 19.2041 38.4397 19.3328 38.7918 19.4648L38.7951 19.466C38.8884 19.501 38.9909 19.54 39.0826 19.5754C39.3494 19.6784 39.6105 19.7833 39.8656 19.8901C40.5175 20.163 41.1303 20.4481 41.6996 20.7438C42.2848 21.0478 42.831 21.3667 43.331 21.6998C45.0554 22.8488 46.5405 24.3808 46.6905 26.2924C46.7705 27.3115 46.448 28.2371 45.8763 29.0172C45.3569 29.7259 44.6372 30.3116 43.8226 30.797C43.1377 31.2051 42.3499 31.5636 41.4829 31.8753C40.1725 32.3466 38.6649 32.7169 37.0259 32.9882C36.2086 33.1234 35.4364 32.5705 35.3011 31.7532C35.1659 30.9359 35.7188 30.1637 36.5361 30.0284C37.6598 29.8425 38.6675 29.6134 39.5499 29.352L39.56 29.3489C40.692 29.0128 41.6033 28.6272 42.2869 28.2198C42.8755 27.8691 43.2454 27.532 43.4566 27.2438C43.6671 26.9565 43.7156 26.7298 43.6997 26.5272C43.6626 26.0551 43.2056 25.2212 41.6675 24.1964C41.2702 23.9316 40.8194 23.6672 40.3166 23.406L37.7239 22.2682C34.2182 20.9561 29.5223 19.9521 24.3529 19.5914C23.7114 19.5467 23.079 19.5129 22.4568 19.4898C21.6241 20.5423 20.8017 21.6589 20.003 22.8304C18.5156 25.0122 17.266 27.1564 16.2721 29.1687C16.9015 29.5273 17.195 30.2998 16.9319 30.9994C16.6464 31.7586 15.8111 32.1504 15.0485 31.8927C14.5961 33.0182 14.2396 34.0798 13.9828 35.057C13.9557 35.1599 13.9299 35.2614 13.9053 35.3616L13.9008 35.3802C13.5097 36.9781 13.4237 38.2299 13.561 39.1036C13.6143 39.4427 13.6942 39.6938 13.7863 39.8808C13.9269 40.1658 14.0961 40.3023 14.2412 40.3741L14.249 40.3779C14.3355 40.4198 14.4423 40.4551 14.5763 40.4771C14.8214 40.5173 15.1576 40.5123 15.6001 40.417C16.3997 40.2448 17.4136 39.8063 18.602 39.0617C18.8765 38.8897 19.1579 38.7029 19.4453 38.5015C19.9246 38.1659 20.4193 37.7909 20.9262 37.3783L23.277 35.4681C23.9199 34.9457 24.8646 35.0433 25.387 35.6863C25.9095 36.3292 25.8118 37.2739 25.1688 37.7963L22.8202 39.7047C22.2628 40.1586 21.7103 40.5779 21.1663 40.9588C20.8398 41.1875 20.5158 41.4028 20.195 41.6038C18.8399 42.4529 17.4942 43.0778 16.232 43.3497C15.5192 43.5033 14.7937 43.5528 14.0908 43.4375C13.6967 43.3729 13.3106 43.2565 12.9431 43.0788L12.9104 43.0628C11.4514 42.3407 10.7794 40.9166 10.5756 39.4213C10.3736 37.9395 10.5871 36.175 11.0813 34.2945C11.3623 33.2251 11.7431 32.0851 12.2172 30.8933L11.2037 30.5357C10.5307 30.2833 9.88993 30.0177 9.28659 29.7401C8.92446 29.5736 8.57512 29.4024 8.23972 29.2268C6.82304 28.485 5.60468 27.6383 4.73318 26.6855C4.24108 26.1476 3.83232 25.5461 3.57729 24.881C3.43433 24.5082 3.3401 24.1161 3.30816 23.7091L3.30547 23.6728C3.19308 22.0488 4.08372 20.7502 5.27203 19.8199C6.44962 18.8981 8.08087 18.1923 9.95394 17.6705C12.929 16.8416 16.7737 16.4062 21.0574 16.4551C23.0843 14.0255 25.1751 11.9293 27.1769 10.2992L27.1796 10.297C27.2569 10.2341 27.3423 10.1652 27.4192 10.1039C27.6426 9.92547 27.8649 9.75298 28.0858 9.58659C28.6503 9.16135 29.2056 8.77597 29.7481 8.43361C30.3057 8.08167 30.8566 7.77085 31.3964 7.5072ZM24.8916 16.6226C28.5434 16.8968 32.0198 17.4806 35.0722 18.2894C35.0438 18.0553 35.0704 17.811 35.1604 17.5754C35.5666 16.5114 35.8772 15.5257 36.0965 14.6319L36.099 14.6216C36.3797 13.4747 36.5065 12.4932 36.4996 11.6975C36.4936 11.0124 36.3891 10.523 36.2468 10.1952C36.1049 9.86853 35.9337 9.71234 35.7507 9.62385C35.3244 9.41773 34.3738 9.3917 32.713 10.2029C32.284 10.4124 31.8283 10.6683 31.3492 10.9706L29.0589 12.6354C27.7197 13.7271 26.3093 15.0709 24.8916 16.6226ZM18.6967 19.4797C15.6 19.5834 12.8854 19.9681 10.7591 20.5604C10.6566 20.589 10.5559 20.6179 10.4569 20.6472L10.4387 20.6527C8.8617 21.121 7.73739 21.6782 7.05227 22.2375C6.78633 22.4545 6.60981 22.6502 6.49477 22.824C6.31968 23.0892 6.28713 23.3041 6.29831 23.4657L6.29896 23.4743C6.30648 23.5702 6.3298 23.6801 6.37842 23.8069C6.46737 24.0389 6.64122 24.3267 6.94675 24.6607C7.49877 25.2641 8.38882 25.9185 9.63126 26.569C9.91822 26.7193 10.2214 26.868 10.5403 27.0146C11.0718 27.2592 11.6452 27.4972 12.2571 27.7267L13.4345 28.1422C14.5262 25.8912 15.9016 23.5207 17.5243 21.1406C17.9091 20.5761 18.3003 20.0221 18.6967 19.4797Z" fill="white"/>
<path d="M23.5293 28.5626C23.5019 26.7418 23.4882 25.8314 24.0622 25.5C24.6362 25.1686 25.4178 25.6357 26.9809 26.5698L27.3853 26.8115C27.8295 27.077 28.0516 27.2097 28.2963 27.2406C28.541 27.2715 28.7805 27.1971 29.2596 27.0484L29.6957 26.9129C31.3816 26.3894 32.2246 26.1277 32.7313 26.5957C33.2379 27.0637 33.0728 27.9515 32.7426 29.7271L32.6572 30.1864C32.5633 30.691 32.5164 30.9433 32.5721 31.1897C32.6277 31.4362 32.7797 31.6489 33.0835 32.0744L33.3602 32.4618C34.4295 33.959 34.9642 34.7077 34.7034 35.3283C34.4425 35.9489 33.5589 36.0305 31.7916 36.1938L31.3344 36.236C30.8322 36.2824 30.5811 36.3056 30.3709 36.427C30.1606 36.5484 30.015 36.7542 29.7237 37.166L29.4585 37.5408C28.4335 38.9897 27.921 39.7141 27.2531 39.6297C26.5852 39.5453 26.2042 38.7079 25.4422 37.0332L25.2451 36.5999C25.0286 36.124 24.9203 35.8861 24.7347 35.7146C24.5491 35.5432 24.3071 35.4577 23.8233 35.2867L23.3827 35.131C21.6799 34.5292 20.8285 34.2283 20.6765 33.5555C20.5246 32.8827 21.1727 32.2835 22.469 31.0853L22.8044 30.7753C23.1728 30.4348 23.357 30.2645 23.4525 30.0371C23.5481 29.8098 23.5442 29.5511 23.5364 29.0337L23.5293 28.5626Z" fill="white"/>
</svg>
