<svg width="32" height="32" viewBox="0 0 32 32" fill="none" xmlns="http://www.w3.org/2000/svg">
<g clip-path="url(#clip0_40003484_37525)">
<mask id="mask0_40003484_37525" style="mask-type:luminance" maskUnits="userSpaceOnUse" x="1" y="0" width="30" height="31">
<path d="M31 0.905151H1V30.9052H31V0.905151Z" fill="white"/>
</mask>
<g mask="url(#mask0_40003484_37525)">
<path d="M25.3842 22.7771C22.8719 22.7771 20.803 20.7081 20.803 18.1958C20.803 15.6835 22.8719 13.6145 25.3842 13.6145C27.8966 13.6145 29.9655 15.6835 29.9655 18.1958C29.9655 20.7081 28.0443 22.7771 25.3842 22.7771ZM10.9015 30.0185C7.35468 30.0185 4.39901 27.0628 4.39901 23.516C4.39901 19.9692 7.35468 17.0135 10.9015 17.0135C14.4483 17.0135 17.4039 19.9692 17.4039 23.516C17.4039 27.2106 14.4483 30.0185 10.9015 30.0185ZM5.87685 13.6145C3.6601 13.6145 1.73892 11.8411 1.73892 9.47658C1.73892 7.25983 3.51232 5.33865 5.87685 5.33865C8.24138 5.33865 10.0148 7.11205 10.0148 9.47658C10.0148 11.8411 8.0936 13.6145 5.87685 13.6145ZM21.9852 1.64407C23.6108 1.64407 25.0887 2.97412 25.0887 4.74752C25.0887 6.37313 23.7586 7.85096 21.9852 7.85096C20.3596 7.85096 18.8818 6.52092 18.8818 4.74752C18.8818 2.97412 20.3596 1.64407 21.9852 1.64407ZM29.2266 14.3534C28.1921 13.3189 26.8621 12.7278 25.3842 12.7278C23.9064 12.7278 22.7241 13.3189 21.6897 14.3534C21.5419 14.5012 21.3941 14.649 21.2463 14.7968L10.7537 9.77215V9.62436C10.7537 9.3288 10.7537 8.88545 10.6059 8.58988L18.2906 5.63422C18.734 7.40761 20.2118 8.58988 21.9852 8.58988C24.0542 8.58988 25.8276 6.81648 25.8276 4.74752C25.8276 2.67855 24.0542 0.905151 21.9852 0.905151C19.9163 0.905151 18.1429 2.67855 18.1429 4.74752L10.4581 7.70318C9.71921 5.92978 7.94581 4.59973 5.87685 4.59973C3.21675 4.59973 1 6.81648 1 9.47658C1 12.1367 3.21675 14.3534 5.87685 14.3534C8.24138 14.3534 10.1626 12.7278 10.6059 10.5111L20.803 15.5357C20.3596 16.2746 20.064 17.3091 20.064 18.1958C20.064 18.9347 20.2118 19.5258 20.5074 20.2648L17.6995 21.447C17.4039 20.4125 16.8128 19.3781 15.9261 18.6391C14.5961 17.1613 12.8227 16.4224 10.9015 16.4224C8.9803 16.4224 7.2069 17.1613 5.87685 18.4914C4.5468 19.8214 3.80788 21.5948 3.80788 23.516C3.80788 25.4372 4.5468 27.2106 5.87685 28.5406C7.2069 29.8707 8.9803 30.6096 10.9015 30.6096C12.8227 30.6096 14.5961 29.8707 15.9261 28.5406C17.2562 27.2106 17.9951 25.4372 17.9951 23.516C17.9951 23.0726 17.9951 22.4815 17.8473 22.0382L20.6552 20.7081C20.9507 21.1515 21.0985 21.447 21.5419 21.7426C22.5764 22.7771 23.9064 23.3682 25.3842 23.3682C26.8621 23.3682 28.1921 22.7771 29.2266 21.7426C30.2611 20.7081 30.8522 19.3781 30.8522 17.9002C30.8522 16.718 30.2611 15.3879 29.2266 14.3534Z" fill="white"/>
</g>
<mask id="mask1_40003484_37525" style="mask-type:luminance" maskUnits="userSpaceOnUse" x="1" y="0" width="30" height="31">
<path d="M31 0.905151H1V30.9052H31V0.905151Z" fill="white"/>
</mask>
<g mask="url(#mask1_40003484_37525)">
<path d="M13.5615 20.8559C13.5615 21.1515 13.5615 21.4471 13.4137 21.7426C13.2659 22.0382 13.1181 22.3338 12.8226 22.4816C12.527 22.7771 12.3792 22.9249 12.0837 23.0727C11.7881 23.2205 11.4925 23.2205 11.197 23.2205C10.9014 23.2205 10.6058 23.2205 10.3103 23.0727C9.86691 23.0727 9.57135 22.7771 9.27578 22.6293C8.98021 22.3338 8.83243 22.186 8.68465 21.8904C8.53687 21.5949 8.53687 21.2993 8.53687 21.0037C8.53687 20.7082 8.53687 20.4126 8.68465 20.117C8.83243 19.8215 8.98021 19.5259 9.27578 19.3781C9.57135 19.2303 9.86691 18.6392 10.1625 18.4914C10.458 18.3436 10.7536 18.3436 11.0492 18.3436C11.3447 18.3436 11.6403 18.3436 11.9359 18.4914C12.3792 18.6392 12.6748 18.787 12.8226 19.0825C12.9704 19.3781 13.2659 19.5259 13.4137 19.8215C13.5615 20.2648 13.5615 20.5604 13.5615 20.8559Z" fill="white"/>
</g>
<mask id="mask2_40003484_37525" style="mask-type:luminance" maskUnits="userSpaceOnUse" x="1" y="0" width="30" height="31">
<path d="M31 0.905151H1V30.9052H31V0.905151Z" fill="white"/>
</mask>
<g mask="url(#mask2_40003484_37525)">
<path d="M27.1576 16.1268C27.1576 16.4224 27.1576 16.5701 27.0099 16.7179C26.8621 16.8657 26.8621 17.1613 26.5665 17.3091C26.4187 17.4568 26.2709 17.6046 25.9754 17.7524C25.8276 17.9002 25.532 17.9002 25.3842 17.9002C25.0887 17.9002 24.9409 17.9002 24.7931 17.7524C24.6453 17.6046 24.3498 17.6046 24.202 17.3091C24.0542 17.1613 23.9064 17.0135 23.7586 16.7179C23.6108 16.5701 23.6108 16.2746 23.6108 16.1268C23.6108 15.8312 23.6108 15.6834 23.7586 15.5357C23.9064 15.3879 23.9064 15.0923 24.202 14.9445C24.3498 14.7967 24.4975 14.649 24.7931 14.5012C24.9409 14.3534 25.2365 14.3534 25.3842 14.3534C25.6798 14.3534 25.8276 14.3534 25.9754 14.5012C26.1232 14.649 26.4187 14.649 26.5665 14.9445C26.7143 15.0923 26.8621 15.2401 27.0099 15.5357C27.1576 15.6834 27.1576 15.8312 27.1576 16.1268Z" fill="white"/>
</g>
<mask id="mask3_40003484_37525" style="mask-type:luminance" maskUnits="userSpaceOnUse" x="1" y="0" width="30" height="31">
<path d="M31 0.905151H1V30.9052H31V0.905151Z" fill="white"/>
</mask>
<g mask="url(#mask3_40003484_37525)">
<path d="M7.65031 7.85091C7.65031 8.14648 7.65031 8.29426 7.50253 8.44205C7.35475 8.73761 7.20696 8.8854 7.05918 9.03318C6.9114 9.18096 6.76361 9.32875 6.61583 9.32875C6.32026 9.47653 6.17248 9.47653 5.87691 9.47653C5.58135 9.47653 5.43357 9.47653 5.28578 9.32875C4.99022 9.32875 4.84243 9.18096 4.69465 9.03318C4.54687 8.8854 4.39908 8.73761 4.2513 8.44205C4.2513 8.29426 4.10352 7.9987 4.10352 7.85091C4.10352 7.55535 4.10352 7.40756 4.2513 7.25978C4.39908 7.112 4.39908 6.81643 4.69465 6.66865C4.99022 6.52086 4.99022 6.37308 5.28578 6.2253C5.43357 6.07751 5.58135 6.07751 5.87691 6.07751C6.17248 6.07751 6.32026 6.07751 6.46805 6.2253C6.61583 6.37308 6.9114 6.37308 7.05918 6.52086C7.20696 6.66865 7.35475 6.81643 7.50253 7.112C7.50253 7.40756 7.65031 7.55535 7.65031 7.85091Z" fill="white"/>
</g>
<mask id="mask4_40003484_37525" style="mask-type:luminance" maskUnits="userSpaceOnUse" x="1" y="0" width="30" height="31">
<path d="M31 0.905151H1V30.9052H31V0.905151Z" fill="white"/>
</mask>
<g mask="url(#mask4_40003484_37525)">
<path d="M23.0196 4.0086C23.0196 4.30417 22.8719 4.59974 22.7241 4.74752C22.5763 4.8953 22.2807 5.04309 21.9852 5.04309C21.6896 5.04309 21.394 4.8953 21.2462 4.74752C21.0985 4.59974 20.9507 4.30417 20.9507 4.0086C20.9507 3.71304 21.0985 3.41747 21.2462 3.26969C21.394 3.1219 21.6896 2.97412 21.9852 2.97412C22.2807 2.97412 22.5763 3.1219 22.7241 3.26969C23.0196 3.41747 23.0196 3.71304 23.0196 4.0086Z" fill="white"/>
</g>
<mask id="mask5_40003484_37525" style="mask-type:luminance" maskUnits="userSpaceOnUse" x="1" y="0" width="30" height="31">
<path d="M31 0.905151H1V30.9052H31V0.905151Z" fill="white"/>
</mask>
<g mask="url(#mask5_40003484_37525)">
<path d="M12.9706 23.6638C12.3794 23.9594 11.7883 24.255 11.1972 24.255C10.4582 24.255 9.86711 24.1072 9.27598 23.6638C7.94593 24.255 6.76366 25.4372 6.32031 26.7673C7.3548 28.2451 8.98041 29.1318 10.9016 29.1318C12.9706 29.1318 14.744 28.0973 15.6307 26.4717C15.1873 25.2894 14.1528 24.255 12.9706 23.6638Z" fill="white"/>
</g>
<mask id="mask6_40003484_37525" style="mask-type:luminance" maskUnits="userSpaceOnUse" x="1" y="0" width="30" height="31">
<path d="M31 0.905151H1V30.9052H31V0.905151Z" fill="white"/>
</mask>
<g mask="url(#mask6_40003484_37525)">
<path d="M27.0099 18.1958C26.5666 18.4914 25.9754 18.7869 25.3843 18.7869C24.7932 18.7869 24.202 18.6392 23.7587 18.1958C23.0198 18.6392 22.2808 19.3781 22.1331 20.2648C22.872 21.2992 24.0542 22.0382 25.3843 22.0382C26.7143 22.0382 28.0444 21.2992 28.6355 20.2648C28.4877 19.3781 27.8966 18.6392 27.0099 18.1958Z" fill="white"/>
</g>
<mask id="mask7_40003484_37525" style="mask-type:luminance" maskUnits="userSpaceOnUse" x="1" y="0" width="30" height="31">
<path d="M31 0.905151H1V30.9052H31V0.905151Z" fill="white"/>
</mask>
<g mask="url(#mask7_40003484_37525)">
<path d="M6.91129 9.77209C6.61572 9.91988 6.32016 10.0677 5.87681 10.0677C5.43346 10.0677 5.13789 9.91988 4.84232 9.77209C3.95563 10.0677 3.21671 10.8066 2.92114 11.5455C3.51228 12.4322 4.69454 13.0233 5.87681 13.0233C7.05907 13.0233 8.09356 12.4322 8.83247 11.5455C8.53691 10.8066 7.79799 10.0677 6.91129 9.77209Z" fill="white"/>
</g>
<mask id="mask8_40003484_37525" style="mask-type:luminance" maskUnits="userSpaceOnUse" x="1" y="0" width="30" height="31">
<path d="M31 0.905151H1V30.9052H31V0.905151Z" fill="white"/>
</mask>
<g mask="url(#mask8_40003484_37525)">
<path d="M21.9851 7.40767C22.8718 7.40767 23.6108 6.96432 24.0541 6.37318C23.7585 5.78205 23.3152 5.3387 22.8718 5.19092C22.5763 5.3387 22.2807 5.48648 21.9851 5.48648C21.6896 5.48648 21.394 5.3387 21.2462 5.3387C20.6551 5.63427 20.2117 6.07762 20.064 6.66875C20.5073 7.1121 21.2462 7.40767 21.9851 7.40767Z" fill="white"/>
</g>
</g>
<defs>
<clipPath id="clip0_40003484_37525">
<rect width="30" height="30" fill="white" transform="translate(1 0.905151)"/>
</clipPath>
</defs>
</svg>
