<svg width="24" height="24" viewBox="0 0 24 24" fill="none" xmlns="http://www.w3.org/2000/svg">
<path d="M11.2608 0.811331C11.6574 0.375976 12.3426 0.375977 12.7392 0.811332L14.0529 2.25322C14.316 2.54202 14.7233 2.65114 15.0955 2.53259L16.9542 1.94073C17.5154 1.76203 18.1087 2.10458 18.2345 2.67993L18.6513 4.58549C18.7347 4.96716 19.0328 5.26527 19.4145 5.34875L21.3201 5.7655C21.8954 5.89133 22.238 6.48465 22.0593 7.04583L21.4674 8.90447C21.3489 9.27675 21.458 9.68397 21.7468 9.9471L23.1887 11.2608C23.624 11.6574 23.624 12.3426 23.1887 12.7392L21.7468 14.0529C21.458 14.316 21.3489 14.7233 21.4674 15.0955L22.0593 16.9542C22.238 17.5154 21.8954 18.1087 21.3201 18.2345L19.4145 18.6513C19.0328 18.7347 18.7347 19.0328 18.6513 19.4145L18.2345 21.3201C18.1087 21.8954 17.5154 22.238 16.9542 22.0593L15.0955 21.4674C14.7233 21.3489 14.316 21.458 14.0529 21.7468L12.7392 23.1887C12.3426 23.624 11.6574 23.624 11.2608 23.1887L9.9471 21.7468C9.68397 21.458 9.27675 21.3489 8.90447 21.4674L7.04583 22.0593C6.48465 22.238 5.89133 21.8954 5.7655 21.3201L5.34875 19.4145C5.26527 19.0328 4.96716 18.7347 4.58549 18.6513L2.67993 18.2345C2.10458 18.1087 1.76203 17.5154 1.94073 16.9542L2.53259 15.0955C2.65114 14.7233 2.54202 14.316 2.25322 14.0529L0.811331 12.7392C0.375976 12.3426 0.375977 11.6574 0.811332 11.2608L2.25322 9.9471C2.54202 9.68397 2.65114 9.27675 2.53259 8.90447L1.94073 7.04583C1.76203 6.48465 2.10458 5.89133 2.67993 5.7655L4.58549 5.34875C4.96716 5.26527 5.26527 4.96716 5.34875 4.58549L5.7655 2.67993C5.89133 2.10458 6.48465 1.76203 7.04583 1.94073L8.90447 2.53259C9.27675 2.65114 9.68397 2.54202 9.9471 2.25322L11.2608 0.811331Z" fill="#109B76"/>
<ellipse cx="12" cy="11.625" rx="4.5" ry="4.125" fill="white"/>
<path d="M12 4.5C10.5166 4.5 9.0666 4.93987 7.83323 5.76398C6.59986 6.58809 5.63856 7.75943 5.07091 9.12987C4.50325 10.5003 4.35472 12.0083 4.64411 13.4632C4.9335 14.918 5.64781 16.2544 6.6967 17.3033C7.7456 18.3522 9.08197 19.0665 10.5368 19.3559C11.9917 19.6453 13.4997 19.4968 14.8701 18.9291C16.2406 18.3614 17.4119 17.4001 18.236 16.1668C19.0601 14.9334 19.5 13.4834 19.5 12C19.4968 10.0119 18.7056 8.10604 17.2998 6.7002C15.894 5.29437 13.9882 4.50317 12 4.5V4.5ZM15.585 10.275L11.3325 14.5275C11.2804 14.5798 11.2184 14.6214 11.1502 14.6497C11.082 14.678 11.0089 14.6926 10.935 14.6926C10.8611 14.6926 10.788 14.678 10.7198 14.6497C10.6516 14.6214 10.5896 14.5798 10.5375 14.5275L8.415 12.405C8.35974 12.3535 8.31541 12.2914 8.28467 12.2224C8.25392 12.1534 8.23739 12.0789 8.23606 12.0034C8.23473 11.9279 8.24862 11.8528 8.27691 11.7828C8.3052 11.7128 8.34731 11.6491 8.40072 11.5957C8.45414 11.5423 8.51776 11.5002 8.5878 11.4719C8.65785 11.4436 8.73287 11.4297 8.8084 11.4311C8.88392 11.4324 8.95841 11.4489 9.02741 11.4797C9.09641 11.5104 9.15851 11.5547 9.21 11.61L10.935 13.335L14.79 9.48C14.8966 9.38064 15.0377 9.32655 15.1834 9.32912C15.3291 9.33169 15.4682 9.39072 15.5712 9.49378C15.6743 9.59684 15.7333 9.73588 15.7359 9.88161C15.7385 10.0273 15.6844 10.1684 15.585 10.275V10.275Z" fill="url(#paint0_linear_40004731_30842)"/>
<defs>
<linearGradient id="paint0_linear_40004731_30842" x1="12" y1="4.5" x2="12" y2="19.5" gradientUnits="userSpaceOnUse">
<stop stop-color="#36D667"/>
<stop offset="1" stop-color="#00C85A"/>
</linearGradient>
</defs>
</svg>
