<svg width="32" height="32" viewBox="0 0 32 32" fill="none" xmlns="http://www.w3.org/2000/svg">
<g clip-path="url(#clip0_40003142_20083)">
<path d="M21.0412 14.2598H10.9424C10.3901 14.2598 9.94238 14.7075 9.94238 15.2598V19.5278C9.94238 20.0801 10.3901 20.5278 10.9424 20.5278H21.0412C21.5935 20.5278 22.0412 20.0801 22.0412 19.5278V15.2598C22.0412 14.7075 21.5935 14.2598 21.0412 14.2598Z" stroke="url(#paint0_linear_40003142_20083)" stroke-width="1.5" stroke-miterlimit="10"/>
<path d="M21.0412 14.2598H10.9424C10.3901 14.2598 9.94238 14.7075 9.94238 15.2598V19.5278C9.94238 20.0801 10.3901 20.5278 10.9424 20.5278H21.0412C21.5935 20.5278 22.0412 20.0801 22.0412 19.5278V15.2598C22.0412 14.7075 21.5935 14.2598 21.0412 14.2598Z" stroke="url(#paint1_linear_40003142_20083)" stroke-width="1.5" stroke-miterlimit="10"/>
<path d="M20.1243 14.0487V14.2596H11.8587C11.8437 14.1843 11.8438 14.124 11.8438 14.0487C11.8438 11.7434 13.7005 9.875 15.9915 9.875C18.2675 9.875 20.1243 11.7434 20.1243 14.0487Z" stroke="url(#paint2_linear_40003142_20083)" stroke-width="1.5" stroke-miterlimit="10"/>
<path d="M20.1243 14.0487V14.2596H11.8587C11.8437 14.1843 11.8438 14.124 11.8438 14.0487C11.8438 11.7434 13.7005 9.875 15.9915 9.875C18.2675 9.875 20.1243 11.7434 20.1243 14.0487Z" stroke="url(#paint3_linear_40003142_20083)" stroke-width="1.5" stroke-miterlimit="10"/>
<path d="M27.4612 22.8172C25.1552 26.7197 20.9326 29.3264 16.0961 29.3264C8.77387 29.3264 2.84424 23.3596 2.84424 15.9917C2.84424 15.5999 2.85921 15.1931 2.90413 14.8164" stroke="url(#paint4_linear_40003142_20083)" stroke-width="1.5" stroke-miterlimit="10" stroke-linecap="round"/>
<path d="M27.4612 22.8172C25.1552 26.7197 20.9326 29.3264 16.0961 29.3264C8.77387 29.3264 2.84424 23.3596 2.84424 15.9917C2.84424 15.5999 2.85921 15.1931 2.90413 14.8164" stroke="url(#paint5_linear_40003142_20083)" stroke-width="1.5" stroke-miterlimit="10" stroke-linecap="round"/>
<path d="M29.0037 18.9447C29.2283 17.9955 29.3331 17.001 29.3331 15.9915C29.3331 8.63858 23.4035 2.67188 16.0962 2.67188C10.6158 2.67188 5.92902 6.00178 3.89258 10.7631" stroke="url(#paint6_linear_40003142_20083)" stroke-width="1.5" stroke-miterlimit="10" stroke-linecap="round"/>
<path d="M29.0037 18.9447C29.2283 17.9955 29.3331 17.001 29.3331 15.9915C29.3331 8.63858 23.4035 2.67188 16.0962 2.67188C10.6158 2.67188 5.92902 6.00178 3.89258 10.7631" stroke="url(#paint7_linear_40003142_20083)" stroke-width="1.5" stroke-miterlimit="10" stroke-linecap="round"/>
<path d="M28.2552 27.2627L27.9257 22.1699L23.0742 23.3301" stroke="url(#paint8_linear_40003142_20083)" stroke-width="1.5" stroke-miterlimit="10" stroke-linecap="round"/>
<path d="M28.2552 27.2627L27.9257 22.1699L23.0742 23.3301" stroke="url(#paint9_linear_40003142_20083)" stroke-width="1.5" stroke-miterlimit="10" stroke-linecap="round"/>
<path d="M2.6499 6.00195L3.45849 11.2906L8.60948 9.51267" stroke="url(#paint10_linear_40003142_20083)" stroke-width="1.5" stroke-miterlimit="10" stroke-linecap="round"/>
<path d="M2.6499 6.00195L3.45849 11.2906L8.60948 9.51267" stroke="url(#paint11_linear_40003142_20083)" stroke-width="1.5" stroke-miterlimit="10" stroke-linecap="round"/>
</g>
<defs>
<linearGradient id="paint0_linear_40003142_20083" x1="15.9918" y1="14.2598" x2="15.9918" y2="20.5278" gradientUnits="userSpaceOnUse">
<stop stop-color="#1B8FF3"/>
<stop offset="1" stop-color="#1B8FF3"/>
</linearGradient>
<linearGradient id="paint1_linear_40003142_20083" x1="15.9918" y1="14.2598" x2="15.9918" y2="20.5278" gradientUnits="userSpaceOnUse">
<stop stop-color="#1B8FF3"/>
<stop offset="1" stop-color="#0064BA"/>
</linearGradient>
<linearGradient id="paint2_linear_40003142_20083" x1="15.984" y1="9.875" x2="15.984" y2="14.2596" gradientUnits="userSpaceOnUse">
<stop stop-color="#1B8FF3"/>
<stop offset="1" stop-color="#1B8FF3"/>
</linearGradient>
<linearGradient id="paint3_linear_40003142_20083" x1="15.984" y1="9.875" x2="15.984" y2="14.2596" gradientUnits="userSpaceOnUse">
<stop stop-color="#1B8FF3"/>
<stop offset="1" stop-color="#0064BA"/>
</linearGradient>
<linearGradient id="paint4_linear_40003142_20083" x1="15.1527" y1="14.8164" x2="15.1527" y2="29.3264" gradientUnits="userSpaceOnUse">
<stop stop-color="#1B8FF3"/>
<stop offset="1" stop-color="#1B8FF3"/>
</linearGradient>
<linearGradient id="paint5_linear_40003142_20083" x1="15.1527" y1="14.8164" x2="15.1527" y2="29.3264" gradientUnits="userSpaceOnUse">
<stop stop-color="#1B8FF3"/>
<stop offset="1" stop-color="#0064BA"/>
</linearGradient>
<linearGradient id="paint6_linear_40003142_20083" x1="16.6128" y1="2.67187" x2="16.6128" y2="18.9447" gradientUnits="userSpaceOnUse">
<stop stop-color="#1B8FF3"/>
<stop offset="1" stop-color="#1B8FF3"/>
</linearGradient>
<linearGradient id="paint7_linear_40003142_20083" x1="16.6128" y1="2.67187" x2="16.6128" y2="18.9447" gradientUnits="userSpaceOnUse">
<stop stop-color="#1B8FF3"/>
<stop offset="1" stop-color="#0064BA"/>
</linearGradient>
<linearGradient id="paint8_linear_40003142_20083" x1="25.6647" y1="22.1699" x2="25.6647" y2="27.2627" gradientUnits="userSpaceOnUse">
<stop stop-color="#1B8FF3"/>
<stop offset="1" stop-color="#1B8FF3"/>
</linearGradient>
<linearGradient id="paint9_linear_40003142_20083" x1="25.6647" y1="22.1699" x2="25.6647" y2="27.2627" gradientUnits="userSpaceOnUse">
<stop stop-color="#1B8FF3"/>
<stop offset="1" stop-color="#0064BA"/>
</linearGradient>
<linearGradient id="paint10_linear_40003142_20083" x1="5.62969" y1="6.00195" x2="5.62969" y2="11.2906" gradientUnits="userSpaceOnUse">
<stop stop-color="#1B8FF3"/>
<stop offset="1" stop-color="#1B8FF3"/>
</linearGradient>
<linearGradient id="paint11_linear_40003142_20083" x1="5.62969" y1="6.00195" x2="5.62969" y2="11.2906" gradientUnits="userSpaceOnUse">
<stop stop-color="#1B8FF3"/>
<stop offset="1" stop-color="#0064BA"/>
</linearGradient>
<clipPath id="clip0_40003142_20083">
<rect width="32" height="32" fill="white"/>
</clipPath>
</defs>
</svg>
