<svg width="202" height="65" viewBox="0 0 202 65" fill="none" xmlns="http://www.w3.org/2000/svg">
<circle cx="28.7077" cy="20.5056" r="6.71068" fill="white"/>
<path d="M31.8138 29.2051C32.8524 29.2051 33.3717 29.2051 33.8098 29.2396C36.5492 29.4552 39.0071 30.6499 40.8351 32.4753C40.8522 32.5066 40.8691 32.538 40.8856 32.5697C38.1993 33.07 30.6913 36.7475 28.2663 40.5483L28.2099 40.6381C25.8471 36.8056 18.2416 33.0739 15.5342 32.5697C15.5507 32.538 15.5675 32.5065 15.5846 32.4753C17.4126 30.6499 19.8705 29.4552 22.61 29.2396C23.0481 29.2051 23.5675 29.2051 24.6061 29.2051H31.8138Z" fill="white"/>
<path d="M50.082 27.4648C51.1801 27.4649 52.0703 28.3551 52.0703 29.4531C52.0703 30.5512 51.1801 31.4413 50.082 31.4414C49.2233 31.4414 48.4932 30.8966 48.2153 30.1341C48.1764 30.0276 48.079 29.9502 47.9656 29.9502H42.7582C42.6923 29.9502 42.6291 29.9764 42.5825 30.0229L41.6972 30.9074C41.6002 31.0044 41.4428 31.0044 41.3458 30.9073L41.1708 30.7323C41.0738 30.6353 41.0737 30.478 41.1707 30.3809L42.2373 29.3135L42.2739 29.2769C42.3205 29.2303 42.3837 29.2041 42.4496 29.2041H47.8909C48.0163 29.2041 48.1204 29.1102 48.1495 28.9883C48.3588 28.1145 49.1441 27.4649 50.082 27.4648ZM4.72266 25.9731C4.72266 26.1104 4.83393 26.2217 4.9712 26.2217H11.3599C11.4259 26.2217 11.4891 26.2479 11.5357 26.2945L15.8702 30.6289C15.9672 30.726 15.9672 30.8834 15.8702 30.9804L15.6943 31.1563C15.5972 31.2533 15.4399 31.2533 15.3428 31.1563L11.2271 27.0406C11.1805 26.994 11.1173 26.9678 11.0513 26.9678H4.9712C4.83393 26.9678 4.72266 27.0791 4.72266 27.2163V28.5835C4.72266 28.7208 4.61138 28.832 4.47411 28.832H0.248544C0.111277 28.832 0 28.7208 0 28.5835V24.3579C0 24.2207 0.111277 24.1094 0.248544 24.1094H4.47411C4.61138 24.1094 4.72266 24.2207 4.72266 24.3579V25.9731ZM50.082 28.2109C49.3958 28.211 48.8399 28.7668 48.8398 29.4531C48.8399 30.1394 49.3957 30.6963 50.082 30.6963C50.7683 30.6962 51.3252 30.1394 51.3252 29.4531C51.3252 28.7669 50.7683 28.211 50.082 28.2109ZM8.20215 20.3813C8.20215 20.5186 8.31343 20.6299 8.45069 20.6299H9.49601C9.56231 20.6299 9.62587 20.6564 9.67254 20.7035L9.70801 20.7393L17.8581 28.8894C17.9553 28.9865 17.9552 29.1442 17.8578 29.2412L17.7705 29.3281L17.6835 29.4154C17.5865 29.5128 17.4289 29.5129 17.3317 29.4157L9.36283 21.4478C9.31622 21.4012 9.25301 21.375 9.1871 21.375H8.45069C8.31343 21.375 8.20215 21.4863 8.20215 21.6235V23.1157C8.20215 23.253 8.09087 23.3643 7.9536 23.3643H3.72804C3.59077 23.3643 3.47949 23.253 3.47949 23.1157V18.8901C3.47949 18.7529 3.59077 18.6416 3.72804 18.6416H7.9536C8.09087 18.6416 8.20215 18.7529 8.20215 18.8901V20.3813ZM56.2959 23.4878C56.2959 23.6251 56.1846 23.7363 56.0474 23.7363H52.5669C52.4296 23.7363 52.3184 23.6251 52.3184 23.4878V22.3696C52.3184 22.2324 52.2071 22.1211 52.0698 22.1211H51.2084C51.1425 22.1211 51.0793 22.1473 51.0327 22.1939L45.9961 27.2314L45.9594 27.2678C45.9128 27.314 45.85 27.3398 45.7844 27.3398H42.1381C42.0722 27.3398 42.009 27.366 41.9624 27.4126L39.958 29.4161C39.8609 29.5132 39.7036 29.5131 39.6065 29.4161L39.5186 29.3281L39.4313 29.2412C39.3339 29.1442 39.3338 28.9865 39.431 28.8894L41.6528 26.6675C41.6994 26.6209 41.7626 26.5947 41.8285 26.5947H45.4752C45.5411 26.5947 45.6043 26.5685 45.6509 26.5219L50.6875 21.4844L50.7241 21.4478C50.7707 21.4012 50.8339 21.375 50.8998 21.375H52.0698C52.2071 21.375 52.3184 21.2637 52.3184 21.1265V20.0083C52.3184 19.871 52.4296 19.7598 52.5669 19.7598H56.0474C56.1846 19.7598 56.2959 19.871 56.2959 20.0083V23.4878ZM11.0605 11.9131C12.1586 11.9131 13.0488 12.8033 13.0488 13.9014C13.0488 14.8005 12.4518 15.5591 11.6326 15.8047C11.5182 15.839 11.4326 15.94 11.4326 16.0594V18.2584C11.4326 18.3243 11.4588 18.3875 11.5054 18.4341L20.9655 27.8952C21.0627 27.9924 21.0626 28.15 20.9652 28.247L20.8779 28.334L20.79 28.4219C20.6929 28.519 20.5356 28.519 20.4385 28.4219L10.7603 18.7437C10.7137 18.6971 10.6875 18.6339 10.6875 18.5679V16.0593C10.6875 15.9399 10.602 15.839 10.4876 15.8047C9.66889 15.5588 9.07227 14.8002 9.07227 13.9014C9.07232 12.8033 9.96248 11.9131 11.0605 11.9131ZM48.5908 16.3872C48.5908 16.5245 48.4795 16.6357 48.3423 16.6357H47.2232C47.0859 16.6357 46.9746 16.747 46.9746 16.8843V18.5679C46.9746 18.6339 46.9484 18.6971 46.9018 18.7437L37.2236 28.4219C37.1265 28.519 36.9692 28.519 36.8721 28.4219L36.7842 28.334L36.6969 28.247C36.5995 28.15 36.5994 27.9924 36.6966 27.8952L46.1567 18.4351C46.2033 18.3885 46.2295 18.3253 46.2295 18.2594V16.8843C46.2295 16.747 46.1182 16.6357 45.9809 16.6357H44.8628C44.7255 16.6357 44.6143 16.5245 44.6143 16.3872V12.9077C44.6143 12.7705 44.7255 12.6592 44.8628 12.6592H48.3423C48.4795 12.6592 48.5908 12.7705 48.5908 12.9077V16.3872ZM0.746094 27.8374C0.746094 27.9747 0.857371 28.0859 0.994637 28.0859H3.72802C3.86529 28.0859 3.97656 27.9747 3.97656 27.8374V25.104C3.97656 24.9667 3.86529 24.8555 3.72802 24.8555H0.994638C0.857371 24.8555 0.746094 24.9667 0.746094 25.104V27.8374ZM18.0195 8.32665C18.0195 8.46392 17.9083 8.5752 17.771 8.5752H16.7769C16.6396 8.5752 16.5283 8.68647 16.5283 8.82374V19.1295C16.5283 19.1954 16.5545 19.2586 16.6011 19.3052L19.8471 22.5521C19.944 22.6491 19.9441 22.8062 19.8474 22.9033L19.7598 22.9912L19.6718 23.0788C19.5747 23.1756 19.4176 23.1754 19.3207 23.0785L15.8916 19.6504L15.855 19.6138C15.8084 19.5672 15.7822 19.504 15.7822 19.4381V8.82374C15.7822 8.68647 15.6709 8.5752 15.5337 8.5752H14.2915C14.1542 8.5752 14.043 8.46392 14.043 8.32665V4.84718C14.043 4.70991 14.1542 4.59863 14.2915 4.59863H17.771C17.9083 4.59863 18.0195 4.70991 18.0195 4.84718V8.32665ZM43.7441 12.4282C43.7441 12.5655 43.6329 12.6768 43.4956 12.6768H42.0044C41.8671 12.6768 41.7559 12.788 41.7559 12.9253V19.0653C41.7559 19.1316 41.7294 19.1952 41.6823 19.2419L41.6465 19.2773L38.0937 22.8301C37.9967 22.9272 37.8393 22.9272 37.7422 22.8301L37.5664 22.6543C37.4693 22.5572 37.4693 22.3998 37.5664 22.3028L40.937 18.9322C40.9836 18.8856 41.0098 18.8223 41.0098 18.7564V12.9253C41.0098 12.788 40.8985 12.6768 40.7612 12.6768H39.27C39.1328 12.6768 39.0215 12.5655 39.0215 12.4282V8.20265C39.0215 8.06538 39.1328 7.9541 39.27 7.9541H43.4956C43.6329 7.9541 43.7441 8.06538 43.7441 8.20265V12.4282ZM4.22559 22.3696C4.22559 22.5069 4.33686 22.6182 4.47413 22.6182H7.20751C7.34478 22.6182 7.45605 22.5069 7.45605 22.3696V19.6362C7.45605 19.499 7.34478 19.3877 7.20751 19.3877H4.47413C4.33686 19.3877 4.22559 19.499 4.22559 19.6362V22.3696ZM23.4873 4.35059C24.5854 4.35059 25.4755 5.24076 25.4756 6.33887C25.4754 7.19744 24.9307 7.926 24.1683 8.20369C24.0618 8.2425 23.9844 8.33999 23.9844 8.45337V11.2359C23.9844 11.3018 23.9582 11.3651 23.9116 11.4117L19.4595 15.8637C19.4129 15.9103 19.3867 15.9736 19.3867 16.0395V19.5112C19.3867 19.6485 19.2754 19.7598 19.1382 19.7598H18.8892C18.7519 19.7598 18.6406 19.6485 18.6406 19.5112V15.7319C18.6406 15.6659 18.6668 15.6027 18.7134 15.5561L18.75 15.5195L23.1665 11.1021C23.2131 11.0555 23.2393 10.9923 23.2393 10.9264V8.52804C23.2393 8.40268 23.1453 8.2986 23.0234 8.26945C22.1494 8.06058 21.4992 7.2768 21.499 6.33887C21.4991 5.24092 22.3894 4.35084 23.4873 4.35059ZM33.9268 4.84766C35.0247 4.84782 35.915 5.73794 35.915 6.83594C35.9149 7.77392 35.2647 8.55771 34.3907 8.76654C34.2688 8.79567 34.1748 8.89976 34.1748 9.02512V10.9273C34.1748 10.9932 34.201 11.0565 34.2476 11.1031L38.6641 15.5195L38.7005 15.5562C38.7466 15.6028 38.7725 15.6657 38.7725 15.7312V19.5112C38.7725 19.6485 38.6612 19.7598 38.5239 19.7598H38.2759C38.1386 19.7598 38.0273 19.6485 38.0273 19.5112V16.0405C38.0273 15.9745 38.0012 15.9113 37.9545 15.8647L33.5381 11.4482L33.5017 11.4115C33.4556 11.365 33.4297 11.3021 33.4297 11.2366V8.95043C33.4297 8.83705 33.3523 8.73956 33.2457 8.70076C32.4834 8.42302 31.9386 7.69447 31.9385 6.83594C31.9385 5.73786 32.8287 4.84769 33.9268 4.84766ZM11.0605 12.6592C10.3743 12.6592 9.81842 13.2151 9.81836 13.9014C9.81836 14.5877 10.3742 15.1445 11.0605 15.1445C11.7469 15.1445 12.3037 14.5877 12.3037 13.9014C12.3037 13.2151 11.7468 12.6592 11.0605 12.6592ZM31.0684 4.47411C31.0684 4.61138 30.9571 4.72266 30.8198 4.72266H29.3286C29.1914 4.72266 29.0801 4.83393 29.0801 4.9712V12.0552C29.0801 12.1924 28.9688 12.3037 28.8315 12.3037H28.5825C28.4453 12.3037 28.334 12.1924 28.334 12.0552V4.9712C28.334 4.83393 28.2227 4.72266 28.0854 4.72266H26.5942C26.457 4.72266 26.3457 4.61138 26.3457 4.47411V0.248544C26.3457 0.111277 26.457 0 26.5942 0H30.8198C30.9571 0 31.0684 0.111277 31.0684 0.248544V4.47411ZM39.7676 11.6821C39.7676 11.8194 39.8789 11.9307 40.0161 11.9307H42.7495C42.8868 11.9307 42.998 11.8194 42.998 11.6821V8.94874C42.998 8.81147 42.8868 8.7002 42.7495 8.7002H40.0161C39.8789 8.7002 39.7676 8.81147 39.7676 8.94874V11.6821ZM33.9268 5.59375C33.2405 5.59379 32.6846 6.14966 32.6846 6.83594C32.6848 7.52208 33.2406 8.07906 33.9268 8.0791C34.6128 8.07894 35.1697 7.522 35.1699 6.83594C35.1699 6.14974 34.6129 5.59391 33.9268 5.59375ZM23.4873 5.09668C22.8012 5.09693 22.2452 5.65272 22.2451 6.33887C22.2453 7.02487 22.8013 7.58178 23.4873 7.58203C24.1735 7.58203 24.7303 7.02503 24.7305 6.33887C24.7304 5.65256 24.1736 5.09668 23.4873 5.09668ZM27.0918 3.72802C27.0918 3.86529 27.2031 3.97656 27.3403 3.97656H30.0737C30.211 3.97656 30.3223 3.86529 30.3223 3.72802V0.994638C30.3223 0.857371 30.211 0.746094 30.0737 0.746094H27.3403C27.2031 0.746094 27.0918 0.857371 27.0918 0.994637V3.72802Z" fill="white"/>
<path d="M4.06684 50.9526C3.40087 48.4671 4.45214 46.5202 5.06102 45.8574C5.06102 45.9403 4.93675 46.7273 5.06102 47.473C5.30956 46.9759 8.29209 46.4788 9.28627 48.9642C10.2804 51.4497 9.28627 52.8664 8.54064 53.3137C7.91928 53.6865 4.89931 54.0594 4.06684 50.9526Z" fill="white"/>
<path d="M52.4888 50.9526C53.1548 48.4671 52.1035 46.5202 51.4946 45.8574C51.4946 45.9403 51.6189 46.7273 51.4946 47.473C51.2461 46.9759 48.2636 46.4788 47.2694 48.9642C46.2752 51.4497 47.2694 52.8664 48.015 53.3137C48.6364 53.6865 51.6564 54.0594 52.4888 50.9526Z" fill="white"/>
<path d="M4.35059 36.8942C9.81854 36.2728 21.0527 36.5462 28.2108 42.1136V42.1137C35.3688 36.5463 46.603 36.2729 52.071 36.8943L50.7156 46.3826C50.3309 46.3143 49.8798 46.297 49.413 46.3611C48.3092 46.5126 47.04 47.1394 46.4396 48.6955C45.3659 51.4785 46.3949 53.2913 47.4974 53.9527C47.7858 54.1258 48.2142 54.2363 48.65 54.2805C48.9328 54.3091 49.2517 54.313 49.5879 54.2766L48.7157 60.3817C45.0376 59.7604 35.7874 59.6112 28.2108 63.9856V63.9855C20.6342 59.6111 11.3839 59.7602 7.7059 60.3816L6.83371 54.2765C7.16988 54.3129 7.4888 54.309 7.77163 54.2803C8.20742 54.2362 8.63582 54.1257 8.92423 53.9526C10.0267 53.2912 11.0557 51.4784 9.98194 48.6954C9.38155 47.1393 8.11237 46.5125 7.00861 46.361C6.54174 46.2969 6.09065 46.3142 5.706 46.3825L4.35059 36.8942ZM9.19725 31.9385C12.7183 32.3527 21.2764 34.6725 27.3409 40.6375C21.9972 36.9094 11.1857 35.0454 9.19725 35.0454V31.9385ZM47.2244 35.0454C45.2361 35.0454 34.4244 36.9094 29.0807 40.6375C35.1452 34.6725 43.7034 32.3527 47.2244 31.9385V35.0454Z" fill="white"/>
<path d="M7.67585 44.3213V40.2317H8.64353L9.77825 42.4032H9.78977L10.913 40.2317H11.8864V44.3213H10.9302V42.0691H10.9187L10.0893 43.5667H9.47297L8.64353 42.0634H8.62625V44.3213H7.67585ZM12.6257 44.3213V40.2317H15.2926V41.0899H13.5646V41.8733H14.9297V42.7027H13.5646V43.463H15.4136V44.3213H12.6257ZM15.9951 44.3213V40.2317H17.412C18.708 40.2317 19.5375 41.0726 19.5375 42.2822C19.5375 43.4861 18.7541 44.3213 17.4293 44.3213H15.9951ZM16.934 43.463H17.366C18.0687 43.463 18.5295 42.9446 18.5295 42.2822C18.5295 41.5968 18.0629 41.0899 17.4351 41.0899H16.934V43.463Z" fill="#1B8FF3"/>
<path d="M40.2267 44.3731C39.2187 44.3731 38.539 43.751 38.539 42.6163V40.2317H39.5067V42.5587C39.5067 43.0598 39.7486 43.4746 40.2267 43.4746C40.653 43.4746 40.964 43.1405 40.964 42.5587V40.2317H41.9259V42.6163C41.9259 43.6819 41.3154 44.3731 40.2267 44.3731ZM42.6182 44.3213V40.2317H43.5456L45.1757 42.7546L45.1872 42.7488V40.2317H46.1376V44.3213H45.1814L43.5802 41.8675H43.5686V44.3213H42.6182ZM46.8994 44.3213V40.2317H47.8844V44.3213H46.8994Z" fill="#1B8FF3"/>
<mask id="path-9-outside-1_40006840_3977" maskUnits="userSpaceOnUse" x="18.916" y="30.9395" width="17" height="35" fill="black">
<rect fill="white" x="18.916" y="30.9395" width="17" height="35"/>
<path d="M28.8662 63.3877C28.8561 63.9041 28.6133 63.9866 28.5117 64.002H28.4707C28.3693 63.9867 28.1263 63.9047 28.1162 63.3877C28.1111 63.1712 28.0498 60.146 27.9688 56.1846C28.2729 55.9413 28.6636 55.7542 29.0234 55.6934C28.9373 59.8675 28.8714 63.1608 28.8662 63.3877ZM29.4385 57.5635C30.5892 58.0856 31.2939 58.9529 31.2939 60.4482C31.2939 60.6661 31.1569 60.5746 31.1113 60.3516C31.0599 60.1274 30.2901 58.7702 29.4238 58.6182C29.4238 58.0555 29.4385 57.5635 29.4385 57.5635ZM29.6162 50.1426C30.9494 50.5785 32.252 51.3492 32.252 52.7686C32.2518 54.1876 31.2075 54.8008 29.3828 55.252C27.9541 55.5661 27.5433 55.9918 27.543 56.2402V57.7256C27.5286 57.7198 26.2197 57.187 26.2197 56.0527C26.2199 54.9123 27.5838 54.4057 28.6533 54.1016C29.7226 53.7975 30.5084 53.5337 30.5088 52.8193C30.5088 52.1046 29.5703 51.8857 29.5703 51.8857L29.6162 50.1426ZM29.0693 53.6553C28.7856 53.7161 28.243 53.8683 27.9287 54.0254C27.878 51.6277 27.8271 49.0324 27.7764 46.584C28.0907 46.4725 28.8508 46.27 29.2158 46.1787C29.1651 48.6219 29.115 51.2273 29.0693 53.6553ZM29.8545 37.3379C32.3586 37.3379 34.5995 38.9397 34.5996 41.3271C34.5996 43.7146 33.1902 44.8202 30.7217 45.4336C28.2532 46.0469 26.1546 46.3357 26.1543 47.8916C26.1543 48.5555 26.7216 49.0628 27.3652 49.4277V51.2021C27.3225 51.1957 24.0449 50.6903 24.0449 47.709C24.0453 44.7085 27.5384 44.3127 28.8057 43.9883C31.0814 43.3598 32.5263 43.0356 32.5264 41.292C32.5264 39.5484 30.5191 39.0362 29.8193 39.0361C29.8193 38.3366 29.8545 37.3379 29.8545 37.3379ZM27.1836 39.376C26.7679 39.5128 26.4629 39.7103 25.9307 40.3135C25.3829 40.9674 23.685 42.022 23.3252 42.1689C22.9664 42.3153 22.4518 42.3009 22.3984 42.3008C22.3478 42.3008 22.1141 42.6903 21.9316 42.8779C21.7765 43.0374 21.6363 43.5014 21.5977 43.6367C21.5947 43.6472 21.5801 43.6464 21.5781 43.6357C21.5599 43.535 21.5616 43.3539 21.668 42.9902C21.5198 43.0741 20.9699 43.2574 20.916 43.0908C20.9141 43.0839 20.9206 43.0778 20.9277 43.0791C21.2566 43.1476 21.5653 42.8506 21.7949 42.7158C22.028 42.5789 22.2252 42.2902 22.21 42.0977C22.1593 41.8089 22.347 41.4187 22.499 41.1045C22.6511 40.7902 22.5096 40.6375 22.9658 40.0039C23.7008 38.7469 24.6034 38.4021 25.2725 38.2754C25.9415 38.1485 26.7422 37.586 27.168 37.5859C27.168 37.5859 27.1836 39.1022 27.1836 39.376ZM28.542 31.9395C29.5301 31.9801 29.7939 32.6184 29.7939 33.5762C29.7939 34.5596 29.4082 35.2747 29.4082 36.1162C29.4082 36.4001 29.3526 39.1325 29.2715 43.1016C28.9876 43.1928 28.4352 43.3651 27.7207 43.5576C27.6396 39.3655 27.5732 36.4103 27.5732 36.1162C27.5732 35.2747 27.1885 34.5647 27.1885 33.5762C27.1885 32.6183 27.4521 31.98 28.4404 31.9395H28.542ZM24 39.7559C23.9595 39.7913 23.9185 40.0189 23.7666 40.1406C23.6399 40.242 23.6041 40.4708 23.6143 40.5215C23.6254 40.5716 23.9395 40.486 23.9951 40.4404C24.1421 40.3137 24.3392 39.9986 24.4355 39.958C24.5318 39.9124 24.5722 39.8467 24.5215 39.7656C24.2818 39.7058 24.0079 39.7544 24 39.7559Z"/>
</mask>
<path d="M28.8662 63.3877C28.8561 63.9041 28.6133 63.9866 28.5117 64.002H28.4707C28.3693 63.9867 28.1263 63.9047 28.1162 63.3877C28.1111 63.1712 28.0498 60.146 27.9688 56.1846C28.2729 55.9413 28.6636 55.7542 29.0234 55.6934C28.9373 59.8675 28.8714 63.1608 28.8662 63.3877ZM29.4385 57.5635C30.5892 58.0856 31.2939 58.9529 31.2939 60.4482C31.2939 60.6661 31.1569 60.5746 31.1113 60.3516C31.0599 60.1274 30.2901 58.7702 29.4238 58.6182C29.4238 58.0555 29.4385 57.5635 29.4385 57.5635ZM29.6162 50.1426C30.9494 50.5785 32.252 51.3492 32.252 52.7686C32.2518 54.1876 31.2075 54.8008 29.3828 55.252C27.9541 55.5661 27.5433 55.9918 27.543 56.2402V57.7256C27.5286 57.7198 26.2197 57.187 26.2197 56.0527C26.2199 54.9123 27.5838 54.4057 28.6533 54.1016C29.7226 53.7975 30.5084 53.5337 30.5088 52.8193C30.5088 52.1046 29.5703 51.8857 29.5703 51.8857L29.6162 50.1426ZM29.0693 53.6553C28.7856 53.7161 28.243 53.8683 27.9287 54.0254C27.878 51.6277 27.8271 49.0324 27.7764 46.584C28.0907 46.4725 28.8508 46.27 29.2158 46.1787C29.1651 48.6219 29.115 51.2273 29.0693 53.6553ZM29.8545 37.3379C32.3586 37.3379 34.5995 38.9397 34.5996 41.3271C34.5996 43.7146 33.1902 44.8202 30.7217 45.4336C28.2532 46.0469 26.1546 46.3357 26.1543 47.8916C26.1543 48.5555 26.7216 49.0628 27.3652 49.4277V51.2021C27.3225 51.1957 24.0449 50.6903 24.0449 47.709C24.0453 44.7085 27.5384 44.3127 28.8057 43.9883C31.0814 43.3598 32.5263 43.0356 32.5264 41.292C32.5264 39.5484 30.5191 39.0362 29.8193 39.0361C29.8193 38.3366 29.8545 37.3379 29.8545 37.3379ZM27.1836 39.376C26.7679 39.5128 26.4629 39.7103 25.9307 40.3135C25.3829 40.9674 23.685 42.022 23.3252 42.1689C22.9664 42.3153 22.4518 42.3009 22.3984 42.3008C22.3478 42.3008 22.1141 42.6903 21.9316 42.8779C21.7765 43.0374 21.6363 43.5014 21.5977 43.6367C21.5947 43.6472 21.5801 43.6464 21.5781 43.6357C21.5599 43.535 21.5616 43.3539 21.668 42.9902C21.5198 43.0741 20.9699 43.2574 20.916 43.0908C20.9141 43.0839 20.9206 43.0778 20.9277 43.0791C21.2566 43.1476 21.5653 42.8506 21.7949 42.7158C22.028 42.5789 22.2252 42.2902 22.21 42.0977C22.1593 41.8089 22.347 41.4187 22.499 41.1045C22.6511 40.7902 22.5096 40.6375 22.9658 40.0039C23.7008 38.7469 24.6034 38.4021 25.2725 38.2754C25.9415 38.1485 26.7422 37.586 27.168 37.5859C27.168 37.5859 27.1836 39.1022 27.1836 39.376ZM28.542 31.9395C29.5301 31.9801 29.7939 32.6184 29.7939 33.5762C29.7939 34.5596 29.4082 35.2747 29.4082 36.1162C29.4082 36.4001 29.3526 39.1325 29.2715 43.1016C28.9876 43.1928 28.4352 43.3651 27.7207 43.5576C27.6396 39.3655 27.5732 36.4103 27.5732 36.1162C27.5732 35.2747 27.1885 34.5647 27.1885 33.5762C27.1885 32.6183 27.4521 31.98 28.4404 31.9395H28.542ZM24 39.7559C23.9595 39.7913 23.9185 40.0189 23.7666 40.1406C23.6399 40.242 23.6041 40.4708 23.6143 40.5215C23.6254 40.5716 23.9395 40.486 23.9951 40.4404C24.1421 40.3137 24.3392 39.9986 24.4355 39.958C24.5318 39.9124 24.5722 39.8467 24.5215 39.7656C24.2818 39.7058 24.0079 39.7544 24 39.7559Z" fill="url(#paint0_linear_40006840_3977)"/>
<path d="M28.8662 63.3877C28.8561 63.9041 28.6133 63.9866 28.5117 64.002H28.4707C28.3693 63.9867 28.1263 63.9047 28.1162 63.3877C28.1111 63.1712 28.0498 60.146 27.9688 56.1846C28.2729 55.9413 28.6636 55.7542 29.0234 55.6934C28.9373 59.8675 28.8714 63.1608 28.8662 63.3877ZM29.4385 57.5635C30.5892 58.0856 31.2939 58.9529 31.2939 60.4482C31.2939 60.6661 31.1569 60.5746 31.1113 60.3516C31.0599 60.1274 30.2901 58.7702 29.4238 58.6182C29.4238 58.0555 29.4385 57.5635 29.4385 57.5635ZM29.6162 50.1426C30.9494 50.5785 32.252 51.3492 32.252 52.7686C32.2518 54.1876 31.2075 54.8008 29.3828 55.252C27.9541 55.5661 27.5433 55.9918 27.543 56.2402V57.7256C27.5286 57.7198 26.2197 57.187 26.2197 56.0527C26.2199 54.9123 27.5838 54.4057 28.6533 54.1016C29.7226 53.7975 30.5084 53.5337 30.5088 52.8193C30.5088 52.1046 29.5703 51.8857 29.5703 51.8857L29.6162 50.1426ZM29.0693 53.6553C28.7856 53.7161 28.243 53.8683 27.9287 54.0254C27.878 51.6277 27.8271 49.0324 27.7764 46.584C28.0907 46.4725 28.8508 46.27 29.2158 46.1787C29.1651 48.6219 29.115 51.2273 29.0693 53.6553ZM29.8545 37.3379C32.3586 37.3379 34.5995 38.9397 34.5996 41.3271C34.5996 43.7146 33.1902 44.8202 30.7217 45.4336C28.2532 46.0469 26.1546 46.3357 26.1543 47.8916C26.1543 48.5555 26.7216 49.0628 27.3652 49.4277V51.2021C27.3225 51.1957 24.0449 50.6903 24.0449 47.709C24.0453 44.7085 27.5384 44.3127 28.8057 43.9883C31.0814 43.3598 32.5263 43.0356 32.5264 41.292C32.5264 39.5484 30.5191 39.0362 29.8193 39.0361C29.8193 38.3366 29.8545 37.3379 29.8545 37.3379ZM27.1836 39.376C26.7679 39.5128 26.4629 39.7103 25.9307 40.3135C25.3829 40.9674 23.685 42.022 23.3252 42.1689C22.9664 42.3153 22.4518 42.3009 22.3984 42.3008C22.3478 42.3008 22.1141 42.6903 21.9316 42.8779C21.7765 43.0374 21.6363 43.5014 21.5977 43.6367C21.5947 43.6472 21.5801 43.6464 21.5781 43.6357C21.5599 43.535 21.5616 43.3539 21.668 42.9902C21.5198 43.0741 20.9699 43.2574 20.916 43.0908C20.9141 43.0839 20.9206 43.0778 20.9277 43.0791C21.2566 43.1476 21.5653 42.8506 21.7949 42.7158C22.028 42.5789 22.2252 42.2902 22.21 42.0977C22.1593 41.8089 22.347 41.4187 22.499 41.1045C22.6511 40.7902 22.5096 40.6375 22.9658 40.0039C23.7008 38.7469 24.6034 38.4021 25.2725 38.2754C25.9415 38.1485 26.7422 37.586 27.168 37.5859C27.168 37.5859 27.1836 39.1022 27.1836 39.376ZM28.542 31.9395C29.5301 31.9801 29.7939 32.6184 29.7939 33.5762C29.7939 34.5596 29.4082 35.2747 29.4082 36.1162C29.4082 36.4001 29.3526 39.1325 29.2715 43.1016C28.9876 43.1928 28.4352 43.3651 27.7207 43.5576C27.6396 39.3655 27.5732 36.4103 27.5732 36.1162C27.5732 35.2747 27.1885 34.5647 27.1885 33.5762C27.1885 32.6183 27.4521 31.98 28.4404 31.9395H28.542ZM24 39.7559C23.9595 39.7913 23.9185 40.0189 23.7666 40.1406C23.6399 40.242 23.6041 40.4708 23.6143 40.5215C23.6254 40.5716 23.9395 40.486 23.9951 40.4404C24.1421 40.3137 24.3392 39.9986 24.4355 39.958C24.5318 39.9124 24.5722 39.8467 24.5215 39.7656C24.2818 39.7058 24.0079 39.7544 24 39.7559Z" fill="url(#paint1_linear_40006840_3977)"/>
<path d="M28.8662 63.3877L27.8665 63.365L27.8664 63.3681L28.8662 63.3877ZM28.5117 64.002V65.002H28.5869L28.6612 64.9907L28.5117 64.002ZM28.4707 64.002L28.3224 64.9909L28.3961 65.002H28.4707V64.002ZM28.1162 63.3877L29.116 63.3681L29.1159 63.364L28.1162 63.3877ZM27.9688 56.1846L27.3441 55.4037L26.9589 55.7118L26.969 56.205L27.9688 56.1846ZM29.0234 55.6934L30.0232 55.714L30.0481 54.506L28.8568 54.7073L29.0234 55.6934ZM29.4385 57.5635L29.8517 56.6528L28.4836 56.0321L28.4389 57.5337L29.4385 57.5635ZM31.2939 60.4482L32.2939 60.4484V60.4482H31.2939ZM31.1113 60.3516L32.091 60.1512L32.0887 60.1395L32.086 60.1279L31.1113 60.3516ZM29.4238 58.6182L28.4238 58.6182L28.4238 59.4579L29.2509 59.6031L29.4238 58.6182ZM29.6162 50.1426L29.927 49.1921L28.6519 48.7751L28.6166 50.1163L29.6162 50.1426ZM32.252 52.7686L33.252 52.7687V52.7686H32.252ZM29.3828 55.252L29.5976 56.2286L29.6102 56.2258L29.6228 56.2227L29.3828 55.252ZM27.543 56.2402L26.543 56.239V56.2402H27.543ZM27.543 57.7256L27.1678 58.6526L28.543 59.209V57.7256H27.543ZM26.2197 56.0527L25.2197 56.0526V56.0527H26.2197ZM28.6533 54.1016L28.9268 55.0634L28.9268 55.0634L28.6533 54.1016ZM30.5088 52.8193L31.5088 52.8198V52.8193H30.5088ZM29.5703 51.8857L28.5707 51.8594L28.5492 52.6745L29.3432 52.8596L29.5703 51.8857ZM29.0693 53.6553L29.2789 54.6331L30.0543 54.4669L30.0692 53.6741L29.0693 53.6553ZM27.9287 54.0254L26.9289 54.0465L26.9623 55.6262L28.3757 54.9199L27.9287 54.0254ZM27.7764 46.584L27.442 45.6415L26.7616 45.8829L26.7766 46.6047L27.7764 46.584ZM29.2158 46.1787L30.2156 46.1995L30.2427 44.8912L28.9733 45.2086L29.2158 46.1787ZM29.8545 37.3379V36.3379H28.8891L28.8551 37.3027L29.8545 37.3379ZM34.5996 41.3271L35.5996 41.3271L35.5996 41.3271L34.5996 41.3271ZM30.7217 45.4336L30.9628 46.4041L30.9628 46.4041L30.7217 45.4336ZM26.1543 47.8916L25.1543 47.8914V47.8916H26.1543ZM27.3652 49.4277H28.3652V48.8452L27.8585 48.5579L27.3652 49.4277ZM27.3652 51.2021L27.2159 52.1909L28.3652 52.3646V51.2021H27.3652ZM24.0449 47.709L23.0449 47.7089V47.709H24.0449ZM28.8057 43.9883L29.0537 44.957L29.0628 44.9547L29.0719 44.9522L28.8057 43.9883ZM32.5264 41.292L33.5264 41.292V41.292H32.5264ZM29.8193 39.0361L28.8193 39.0361L28.8193 40.036L29.8192 40.0361L29.8193 39.0361ZM27.1836 39.376L27.4963 40.3258L28.1836 40.0995V39.376H27.1836ZM25.9307 40.3135L25.1808 39.6519L25.1723 39.6615L25.1641 39.6714L25.9307 40.3135ZM23.3252 42.1689L23.7029 43.0949L23.7033 43.0947L23.3252 42.1689ZM22.3984 42.3008L22.4002 41.3008H22.3984V42.3008ZM21.9316 42.8779L22.6484 43.5753L22.6486 43.5751L21.9316 42.8779ZM21.5977 43.6367L22.5589 43.9126L22.5593 43.9111L21.5977 43.6367ZM21.5781 43.6357L20.5942 43.8141L20.5942 43.8145L21.5781 43.6357ZM21.668 42.9902L22.6277 43.271L23.3195 40.9067L21.1755 42.1199L21.668 42.9902ZM20.916 43.0908L19.9524 43.3582L19.958 43.3785L19.9645 43.3985L20.916 43.0908ZM20.9277 43.0791L21.1315 42.1001L21.1201 42.0977L21.1085 42.0956L20.9277 43.0791ZM21.7949 42.7158L22.3011 43.5782L22.3015 43.578L21.7949 42.7158ZM22.21 42.0977L23.2069 42.019L23.2031 41.9717L23.1949 41.925L22.21 42.0977ZM22.499 41.1045L21.5989 40.6689L21.5989 40.6689L22.499 41.1045ZM22.9658 40.0039L23.7774 40.5882L23.8051 40.5497L23.8291 40.5087L22.9658 40.0039ZM25.2725 38.2754L25.4585 39.2579L25.4587 39.2579L25.2725 38.2754ZM27.168 37.5859L28.1679 37.5756L28.1577 36.5859L27.1679 36.5859L27.168 37.5859ZM28.542 31.9395L28.5831 30.9403L28.5626 30.9395H28.542V31.9395ZM29.7939 33.5762L30.7939 33.5762L30.7939 33.5761L29.7939 33.5762ZM29.4082 36.1162L30.4082 36.1162V36.1162H29.4082ZM29.2715 43.1016L29.5775 44.0536L30.2567 43.8353L30.2713 43.122L29.2715 43.1016ZM27.7207 43.5576L26.7209 43.577L26.7456 44.8561L27.9809 44.5232L27.7207 43.5576ZM27.5732 36.1162L26.5732 36.1162L26.5732 36.1162L27.5732 36.1162ZM27.1885 33.5762L26.1885 33.5761V33.5762H27.1885ZM28.4404 31.9395V30.9395H28.4199L28.3994 30.9403L28.4404 31.9395ZM24 39.7559L23.8237 38.7715L23.5504 38.8205L23.3415 39.0033L24 39.7559ZM23.7666 40.1406L24.3913 40.9215L24.3917 40.9212L23.7666 40.1406ZM23.6143 40.5215L22.6337 40.7176L22.6359 40.7285L22.6383 40.7394L23.6143 40.5215ZM23.9951 40.4404L24.6284 41.2144L24.6383 41.2062L24.6481 41.1978L23.9951 40.4404ZM24.4355 39.958L24.8236 40.8796L24.8438 40.8711L24.8637 40.8617L24.4355 39.958ZM24.5215 39.7656L25.3695 39.2356L25.1554 38.8931L24.7635 38.7953L24.5215 39.7656ZM28.8662 63.3877L27.8664 63.3681C27.8643 63.4776 27.8412 63.3752 27.964 63.2319C28.0936 63.0807 28.2609 63.0285 28.3623 63.0132L28.5117 64.002L28.6612 64.9907C28.8641 64.96 29.2036 64.8589 29.4825 64.5335C29.7547 64.216 29.858 63.8142 29.866 63.4073L28.8662 63.3877ZM28.5117 64.002V63.002H28.4707V64.002V65.002H28.5117V64.002ZM28.4707 64.002L28.619 63.013C28.7202 63.0282 28.888 63.0802 29.0181 63.2318C29.1414 63.3754 29.1182 63.4781 29.116 63.3681L28.1162 63.3877L27.1164 63.4073C27.1244 63.8143 27.2278 64.2166 27.5003 64.5342C27.7798 64.8599 28.1198 64.9605 28.3224 64.9909L28.4707 64.002ZM28.1162 63.3877L29.1159 63.364C29.1108 63.1497 29.0496 60.1279 28.9685 56.1641L27.9688 56.1846L26.969 56.205C27.05 60.1641 27.1113 63.1928 27.1165 63.4114L28.1162 63.3877ZM27.9688 56.1846L28.5934 56.9655C28.7845 56.8126 29.0211 56.7079 29.1901 56.6794L29.0234 55.6934L28.8568 54.7073C28.306 54.8004 27.7613 55.07 27.3441 55.4037L27.9688 56.1846ZM29.0234 55.6934L28.0237 55.6727C27.9375 59.8492 27.8716 63.1394 27.8665 63.365L28.8662 63.3877L29.866 63.4104C29.8711 63.1822 29.9372 59.8859 30.0232 55.714L29.0234 55.6934ZM29.4385 57.5635L29.0253 58.4741C29.4816 58.6812 29.7809 58.925 29.9717 59.2045C30.1588 59.4787 30.2939 59.8638 30.2939 60.4482H31.2939H32.2939C32.2939 59.5373 32.0767 58.7411 31.6237 58.0772C31.1744 57.4188 30.546 56.9679 29.8517 56.6528L29.4385 57.5635ZM31.2939 60.4482L30.2939 60.4481C30.2939 60.4272 30.2952 60.376 30.3101 60.3063C30.3234 60.2443 30.3594 60.1102 30.4641 59.9668C30.5805 59.8074 30.7906 59.6307 31.0965 59.5838C31.3829 59.5398 31.6067 59.6326 31.7272 59.7036C31.9421 59.8301 32.0286 59.9965 32.0438 60.0252C32.0747 60.0838 32.0863 60.1279 32.091 60.1512L31.1113 60.3516L30.1316 60.552C30.1592 60.6867 30.205 60.8259 30.2744 60.9576C30.3281 61.0594 30.4575 61.2768 30.7123 61.4269C30.8527 61.5096 31.0958 61.6073 31.3998 61.5606C31.7234 61.511 31.9496 61.324 32.0795 61.146C32.2903 60.8573 32.2939 60.5453 32.2939 60.4484L31.2939 60.4482ZM31.1113 60.3516L32.086 60.1279C32.0541 59.9889 31.9966 59.8616 31.9646 59.7936C31.9229 59.7048 31.8716 59.6078 31.814 59.5079C31.699 59.3085 31.5435 59.0714 31.3559 58.8355C31.0274 58.4223 30.4184 57.7774 29.5967 57.6332L29.4238 58.6182L29.2509 59.6031C29.2498 59.6029 29.3105 59.6162 29.4302 59.7098C29.5447 59.7991 29.6689 59.9274 29.7904 60.0802C29.91 60.2306 30.0107 60.3843 30.0815 60.5072C30.1169 60.5685 30.141 60.6154 30.1546 60.6443C30.1779 60.694 30.1557 60.6582 30.1367 60.5752L31.1113 60.3516ZM29.4238 58.6182L30.4238 58.6182C30.4238 58.345 30.4274 58.0879 30.431 57.8988C30.4328 57.8044 30.4345 57.7273 30.4359 57.6741C30.4365 57.6476 30.4371 57.627 30.4375 57.6132C30.4377 57.6063 30.4378 57.6012 30.4379 57.5978C30.4379 57.5961 30.438 57.5949 30.438 57.5941C30.438 57.5937 30.438 57.5935 30.438 57.5933C30.438 57.5933 30.438 57.5932 30.438 57.5932C30.438 57.5932 30.438 57.5932 30.438 57.5932C30.438 57.5932 30.438 57.5932 30.438 57.5932C30.438 57.5932 30.438 57.5932 29.4385 57.5635C28.4389 57.5337 28.4389 57.5337 28.4389 57.5338C28.4389 57.5338 28.4389 57.5338 28.4389 57.5338C28.4389 57.5338 28.4389 57.5339 28.4389 57.5339C28.4389 57.534 28.4389 57.5342 28.4389 57.5343C28.4389 57.5347 28.4389 57.5351 28.4389 57.5357C28.4388 57.5368 28.4388 57.5384 28.4387 57.5405C28.4386 57.5446 28.4384 57.5505 28.4382 57.5582C28.4378 57.5735 28.4372 57.5958 28.4365 57.6242C28.4351 57.6808 28.4332 57.7619 28.4313 57.8609C28.4276 58.0584 28.4238 58.3287 28.4238 58.6182L29.4238 58.6182ZM29.6162 50.1426L29.3054 51.0931C29.9154 51.2925 30.4322 51.5433 30.7809 51.844C31.1047 52.1233 31.252 52.4117 31.252 52.7686H32.252H33.252C33.252 51.7061 32.748 50.8995 32.0871 50.3295C31.4513 49.7812 30.6502 49.4286 29.927 49.1921L29.6162 50.1426ZM32.252 52.7686L31.252 52.7684C31.2519 53.1787 31.1257 53.3955 30.8811 53.5891C30.5683 53.8365 30.028 54.0624 29.1428 54.2812L29.3828 55.252L29.6228 56.2227C30.5624 55.9904 31.4565 55.6841 32.1221 55.1574C32.8559 54.5768 33.2518 53.7775 33.252 52.7687L32.252 52.7686ZM29.3828 55.252L29.1681 54.2753C28.3947 54.4453 27.8116 54.6624 27.3953 54.924C27.0362 55.1495 26.5438 55.5786 26.543 56.239L27.543 56.2402L28.543 56.2415C28.5427 56.4577 28.4552 56.5918 28.4245 56.632C28.3928 56.6735 28.3875 56.6626 28.4592 56.6175C28.6056 56.5256 28.9422 56.3727 29.5976 56.2286L29.3828 55.252ZM27.543 56.2402H26.543V57.7256H27.543H28.543V56.2402H27.543ZM27.543 57.7256L27.9181 56.7986C27.9532 56.8128 27.7319 56.7249 27.5182 56.5459C27.2996 56.3627 27.2197 56.2 27.2197 56.0527H26.2197H25.2197C25.2197 57.0398 25.7943 57.7106 26.2337 58.0788C26.6781 58.4512 27.1184 58.6325 27.1678 58.6526L27.543 57.7256ZM26.2197 56.0527L27.2197 56.0529C27.2197 55.9581 27.2515 55.8149 27.5789 55.6031C27.9192 55.3828 28.4028 55.2125 28.9268 55.0634L28.6533 54.1016L28.3798 53.1397C27.8343 53.2948 27.1012 53.5299 26.4922 53.924C25.8702 54.3266 25.2199 55.0069 25.2197 56.0526L26.2197 56.0527ZM28.6533 54.1016L28.9268 55.0634C29.4357 54.9187 30.0277 54.7462 30.4871 54.4773C30.9994 54.1775 31.5084 53.6555 31.5088 52.8198L30.5088 52.8193L29.5088 52.8189C29.5088 52.7986 29.5192 52.7489 29.5483 52.7071C29.5669 52.6803 29.5636 52.7004 29.4768 52.7513C29.2758 52.8689 28.9402 52.9803 28.3798 53.1397L28.6533 54.1016ZM30.5088 52.8193H31.5088C31.5088 51.9529 30.9234 51.4537 30.5628 51.2323C30.3707 51.1144 30.1869 51.0375 30.0558 50.9903C29.9886 50.966 29.9308 50.9481 29.887 50.9355C29.865 50.9292 29.8462 50.9241 29.8312 50.9202C29.8237 50.9183 29.817 50.9166 29.8114 50.9152C29.8086 50.9145 29.806 50.9139 29.8037 50.9133C29.8025 50.9131 29.8014 50.9128 29.8004 50.9126C29.7998 50.9124 29.7993 50.9123 29.7988 50.9122C29.7986 50.9121 29.7982 50.9121 29.7981 50.912C29.7978 50.912 29.7974 50.9119 29.5703 51.8857C29.3432 52.8596 29.3429 52.8595 29.3425 52.8595C29.3424 52.8594 29.3421 52.8594 29.3419 52.8593C29.3414 52.8592 29.341 52.8591 29.3406 52.859C29.3398 52.8588 29.339 52.8586 29.3383 52.8585C29.3369 52.8581 29.3357 52.8578 29.3346 52.8576C29.3325 52.857 29.3312 52.8567 29.3305 52.8565C29.3292 52.8562 29.3306 52.8565 29.3342 52.8576C29.3418 52.8597 29.3574 52.8645 29.3781 52.872C29.423 52.8881 29.4738 52.9106 29.5163 52.9367C29.625 53.0034 29.5088 52.9711 29.5088 52.8193H30.5088ZM29.5703 51.8857L30.57 51.9121L30.6159 50.1689L29.6162 50.1426L28.6166 50.1163L28.5707 51.8594L29.5703 51.8857ZM29.0693 53.6553L28.8598 52.6775C28.5483 52.7442 27.9088 52.9174 27.4817 53.1309L27.9287 54.0254L28.3757 54.9199C28.4604 54.8776 28.614 54.8191 28.8069 54.7593C28.9917 54.702 29.1692 54.6566 29.2789 54.6331L29.0693 53.6553ZM27.9287 54.0254L28.9285 54.0043C28.8778 51.6063 28.8269 49.0137 28.7762 46.5633L27.7764 46.584L26.7766 46.6047C26.8272 49.051 26.8783 51.6492 26.9289 54.0465L27.9287 54.0254ZM27.7764 46.584L28.1107 47.5264C28.3727 47.4335 29.0868 47.2418 29.4584 47.1489L29.2158 46.1787L28.9733 45.2086C28.6149 45.2982 27.8087 45.5114 27.442 45.6415L27.7764 46.584ZM29.2158 46.1787L28.216 46.158C28.1653 48.6021 28.1151 51.2083 28.0695 53.6365L29.0693 53.6553L30.0692 53.6741C30.1148 51.2463 30.1649 48.6417 30.2156 46.1995L29.2158 46.1787ZM29.8545 37.3379V38.3379C32.0256 38.3379 33.5995 39.6884 33.5996 41.3272L34.5996 41.3271L35.5996 41.3271C35.5994 38.1911 32.6915 36.3379 29.8545 36.3379V37.3379ZM34.5996 41.3271H33.5996C33.5996 42.3027 33.322 42.9021 32.8843 43.3335C32.4098 43.8012 31.6436 44.1741 30.4805 44.4631L30.7217 45.4336L30.9628 46.4041C32.2683 46.0797 33.441 45.5931 34.2884 44.7578C35.1725 43.8863 35.5996 42.7391 35.5996 41.3271H34.5996ZM30.7217 45.4336L30.4806 44.4631C29.3308 44.7488 28.0555 45.0038 27.1314 45.3845C26.6524 45.5819 26.1615 45.8516 25.7855 46.2598C25.3829 46.6968 25.1544 47.2473 25.1543 47.8914L26.1543 47.8916L27.1543 47.8918C27.1543 47.7579 27.1883 47.6889 27.2564 47.6149C27.351 47.5122 27.5392 47.3796 27.8934 47.2337C28.6358 46.9278 29.6441 46.7317 30.9628 46.4041L30.7217 45.4336ZM26.1543 47.8916H25.1543C25.1543 48.5302 25.4323 49.047 25.7641 49.4283C26.0887 49.8013 26.4973 50.0852 26.872 50.2976L27.3652 49.4277L27.8585 48.5579C27.5895 48.4053 27.3927 48.2531 27.2728 48.1153C27.1599 47.9857 27.1543 47.9169 27.1543 47.8916H26.1543ZM27.3652 49.4277H26.3652V51.2021H27.3652H28.3652V49.4277H27.3652ZM27.3652 51.2021L27.5146 50.2134C27.5426 50.2176 26.8654 50.1147 26.2073 49.7159C25.5841 49.3382 25.0449 48.7493 25.0449 47.709H24.0449H23.0449C23.0449 49.6501 24.1446 50.8045 25.1708 51.4264C26.1622 52.0272 27.1452 52.1802 27.2159 52.1909L27.3652 51.2021ZM24.0449 47.709L25.0449 47.7091C25.045 46.7163 25.5714 46.1515 26.3965 45.74C27.3013 45.2887 28.2833 45.1542 29.0537 44.957L28.8057 43.9883L28.5577 43.0195C28.0608 43.1467 26.6626 43.3723 25.5039 43.9502C24.2655 44.5678 23.0451 45.7011 23.0449 47.7089L24.0449 47.709ZM28.8057 43.9883L29.0719 44.9522C30.1387 44.6576 31.2356 44.3826 32.0242 43.9216C32.4489 43.6732 32.8428 43.3418 33.1228 42.8745C33.4048 42.4039 33.5264 41.8706 33.5264 41.292L32.5264 41.292L31.5264 41.292C31.5264 41.5852 31.4673 41.7463 31.4072 41.8465C31.3452 41.95 31.2356 42.0658 31.0146 42.1951C30.5118 42.4891 29.7484 42.6905 28.5395 43.0244L28.8057 43.9883ZM32.5264 41.292H33.5264C33.5264 39.9558 32.7285 39.1099 31.9416 38.6479C31.1886 38.2058 30.3351 38.0362 29.8195 38.0361L29.8193 39.0361L29.8192 40.0361C30.0033 40.0362 30.5033 40.1227 30.9289 40.3726C31.3206 40.6025 31.5264 40.8846 31.5264 41.292H32.5264ZM29.8193 39.0361L30.8193 39.0361C30.8193 38.6997 30.8278 38.2856 30.8366 37.9507C30.8409 37.7844 30.8453 37.6395 30.8485 37.5364C30.8501 37.4848 30.8515 37.4437 30.8524 37.4157C30.8529 37.4016 30.8533 37.3909 30.8535 37.3837C30.8536 37.3801 30.8537 37.3773 30.8538 37.3756C30.8538 37.3747 30.8538 37.374 30.8539 37.3736C30.8539 37.3734 30.8539 37.3732 30.8539 37.3732C30.8539 37.3731 30.8539 37.3731 30.8539 37.3731C30.8539 37.3731 30.8539 37.3731 30.8539 37.3731C30.8539 37.3731 30.8539 37.3731 29.8545 37.3379C28.8551 37.3027 28.8551 37.3027 28.8551 37.3027C28.8551 37.3028 28.8551 37.3028 28.8551 37.3028C28.8551 37.3029 28.8551 37.3029 28.8551 37.303C28.8551 37.3031 28.8551 37.3034 28.8551 37.3036C28.8551 37.3042 28.855 37.305 28.855 37.306C28.8549 37.308 28.8548 37.311 28.8547 37.3149C28.8544 37.3227 28.854 37.334 28.8535 37.3487C28.8526 37.3779 28.8512 37.4204 28.8495 37.4734C28.8462 37.5793 28.8417 37.7279 28.8373 37.8986C28.8284 38.238 28.8193 38.673 28.8193 39.0361L29.8193 39.0361ZM27.1836 39.376L26.8708 38.4261C26.2306 38.637 25.7843 38.9679 25.1808 39.6519L25.9307 40.3135L26.6805 40.9751C27.1415 40.4526 27.3053 40.3887 27.4963 40.3258L27.1836 39.376ZM25.9307 40.3135L25.1641 39.6714C24.9908 39.8782 24.5395 40.2363 23.9973 40.6029C23.7439 40.7743 23.4973 40.9298 23.2962 41.0493C23.1956 41.1091 23.11 41.1577 23.0434 41.1936C22.9692 41.2336 22.9412 41.2456 22.9471 41.2432L23.3252 42.1689L23.7033 43.0947C23.9909 42.9773 24.5834 42.621 25.1176 42.2597C25.6512 41.8989 26.3227 41.4027 26.6973 40.9556L25.9307 40.3135ZM23.3252 42.1689L22.9475 41.243C22.9362 41.2476 22.9041 41.2584 22.8469 41.2694C22.792 41.28 22.73 41.2879 22.6661 41.2931C22.5366 41.3036 22.4421 41.3009 22.4002 41.3008L22.3984 42.3008L22.3967 43.3008C22.3864 43.3008 22.4592 43.3018 22.5303 43.3007C22.608 43.2995 22.7113 43.296 22.8285 43.2865C23.0439 43.2689 23.3822 43.2257 23.7029 43.0949L23.3252 42.1689ZM22.3984 42.3008V41.3008C22.1062 41.3008 21.9037 41.4272 21.8487 41.4624C21.7686 41.5135 21.7113 41.5656 21.6825 41.5929C21.6228 41.6497 21.5761 41.7062 21.552 41.736C21.5 41.8003 21.4434 41.8788 21.4047 41.9322C21.3587 41.9957 21.3196 42.0497 21.2816 42.0991C21.2633 42.123 21.2479 42.1422 21.2352 42.1573C21.229 42.1648 21.2241 42.1704 21.2204 42.1746C21.2185 42.1767 21.2171 42.1782 21.2161 42.1793C21.2151 42.1804 21.2147 42.1808 21.2147 42.1808L21.9316 42.8779L22.6486 43.5751C22.7343 43.4869 22.8105 43.3918 22.8672 43.3181C22.9259 43.2417 22.9826 43.1632 23.0242 43.1058C23.0731 43.0383 23.0958 43.0077 23.1075 42.9932C23.1153 42.9835 23.0967 43.0081 23.0601 43.0428C23.0429 43.0592 22.996 43.1027 22.925 43.148C22.8882 43.1715 22.8294 43.2056 22.7517 43.2354C22.6759 43.2645 22.5534 43.3008 22.3984 43.3008V42.3008ZM21.9316 42.8779L21.2149 42.1806C21.0762 42.3231 20.9853 42.4818 20.9332 42.5815C20.8745 42.6938 20.8262 42.808 20.7886 42.9048C20.7134 43.0988 20.659 43.2818 20.636 43.3623L21.5977 43.6367L22.5593 43.9111C22.5749 43.8562 22.61 43.7396 22.6533 43.6279C22.675 43.5719 22.6932 43.5317 22.7057 43.508C22.7115 43.4967 22.7123 43.4966 22.7071 43.5044C22.703 43.5105 22.6843 43.5384 22.6484 43.5753L21.9316 42.8779ZM21.5977 43.6367L20.6365 43.3609C20.925 42.3555 22.3747 42.4263 22.562 43.4569L21.5781 43.6357L20.5942 43.8145C20.7854 44.8666 22.2643 44.9388 22.5589 43.9126L21.5977 43.6367ZM21.5781 43.6357L22.5621 43.4574C22.5735 43.5202 22.5672 43.549 22.5702 43.5217C22.5736 43.4913 22.5859 43.4139 22.6277 43.271L21.668 42.9902L20.7082 42.7094C20.5831 43.1372 20.5358 43.4924 20.5942 43.8141L21.5781 43.6357ZM21.668 42.9902L21.1755 42.1199C21.2092 42.1008 21.2069 42.1058 21.1567 42.1239C21.1161 42.1385 21.0743 42.1507 21.0435 42.1574C20.9966 42.1677 21.031 42.1536 21.1154 42.1604C21.1579 42.1638 21.2793 42.1771 21.423 42.2526C21.5887 42.3397 21.7794 42.5107 21.8675 42.7832L20.916 43.0908L19.9645 43.3985C20.1806 44.0667 20.8258 44.1436 20.9555 44.154C21.1627 44.1706 21.354 44.1367 21.4698 44.1115C21.7036 44.0605 21.9781 43.9637 22.1605 43.8606L21.668 42.9902ZM20.916 43.0908L21.8796 42.8234C21.9871 43.2109 21.845 43.5742 21.6181 43.7964C21.3989 44.011 21.0777 44.1234 20.7469 44.0626L20.9277 43.0791L21.1085 42.0956C20.5133 41.9861 19.7168 42.5089 19.9524 43.3582L20.916 43.0908ZM20.9277 43.0791L20.7239 44.0581C21.2446 44.1665 21.6698 43.9682 21.8881 43.8456C22.0054 43.7798 22.1089 43.7089 22.1761 43.6626C22.2595 43.6051 22.2834 43.5886 22.3011 43.5782L21.7949 42.7158L21.2887 41.8534C21.2349 41.885 21.1859 41.9171 21.1472 41.9431C21.1099 41.9682 21.0693 41.9964 21.0415 42.0156C20.9759 42.0607 20.9387 42.085 20.9089 42.1017C20.8798 42.1181 20.8863 42.1105 20.9199 42.1019C20.9593 42.0917 21.036 42.0802 21.1315 42.1001L20.9277 43.0791ZM21.7949 42.7158L22.3015 43.578C22.5631 43.4243 22.7757 43.2073 22.9244 42.9871C23.0535 42.7958 23.2405 42.4445 23.2069 42.019L22.21 42.0977L21.2131 42.1764C21.2026 42.0437 21.2309 41.9528 21.242 41.9215C21.255 41.8848 21.2666 41.8682 21.2667 41.8681C21.2678 41.8665 21.2667 41.8681 21.2652 41.8696C21.2632 41.8715 21.2695 41.8647 21.2884 41.8536L21.7949 42.7158ZM22.21 42.0977L23.1949 41.925C23.2065 41.9907 23.1991 42.0276 23.2004 42.0194C23.2014 42.0127 23.2067 41.9864 23.2239 41.9364C23.2609 41.8291 23.3188 41.7061 23.3992 41.5401L22.499 41.1045L21.5989 40.6689C21.5272 40.817 21.4153 41.0463 21.3331 41.2848C21.2574 41.5043 21.155 41.8712 21.225 42.2703L22.21 42.0977ZM22.499 41.1045L23.3992 41.5401C23.4814 41.3702 23.5222 41.2224 23.548 41.1066C23.5585 41.0593 23.5692 41.0045 23.5735 40.9832C23.5794 40.954 23.5829 40.9381 23.5863 40.9252C23.59 40.9108 23.6066 40.8254 23.7774 40.5882L22.9658 40.0039L22.1543 39.4196C21.8689 39.816 21.728 40.1238 21.6504 40.4227C21.6335 40.4881 21.6215 40.5456 21.613 40.5873C21.603 40.6368 21.6006 40.6503 21.5959 40.6715C21.5912 40.6925 21.5927 40.6816 21.5989 40.6689L22.499 41.1045ZM22.9658 40.0039L23.8291 40.5087C24.3892 39.5507 25.0123 39.3424 25.4585 39.2579L25.2725 38.2754L25.0864 37.2929C24.1945 37.4618 23.0124 37.9432 22.1026 39.4991L22.9658 40.0039ZM25.2725 38.2754L25.4587 39.2579C25.9411 39.1664 26.4313 38.93 26.7326 38.7901C26.9084 38.7085 27.0345 38.6509 27.1386 38.6117C27.2595 38.5662 27.2495 38.5859 27.168 38.5859L27.168 37.5859L27.1679 36.5859C26.8735 36.586 26.6038 36.676 26.434 36.7399C26.2473 36.8102 26.0515 36.9012 25.8903 36.9761C25.5175 37.1492 25.2729 37.2575 25.0862 37.2929L25.2725 38.2754ZM27.168 37.5859C26.168 37.5962 26.168 37.5962 26.168 37.5963C26.168 37.5963 26.168 37.5963 26.168 37.5963C26.168 37.5964 26.168 37.5964 26.168 37.5965C26.168 37.5967 26.168 37.597 26.168 37.5973C26.168 37.5981 26.1681 37.5991 26.1681 37.6006C26.1681 37.6034 26.1681 37.6077 26.1682 37.6133C26.1683 37.6244 26.1685 37.6408 26.1687 37.6618C26.1691 37.7037 26.1697 37.764 26.1705 37.8371C26.1719 37.9835 26.1739 38.1814 26.1758 38.3878C26.1798 38.804 26.1836 39.2452 26.1836 39.376H27.1836H28.1836C28.1836 39.2331 28.1796 38.7792 28.1757 38.3689C28.1738 38.162 28.1718 37.9637 28.1704 37.8171C28.1696 37.7439 28.169 37.6835 28.1686 37.6415C28.1684 37.6204 28.1682 37.604 28.1681 37.5928C28.168 37.5872 28.168 37.5829 28.168 37.58C28.1679 37.5786 28.1679 37.5775 28.1679 37.5767C28.1679 37.5764 28.1679 37.5761 28.1679 37.5759C28.1679 37.5758 28.1679 37.5758 28.1679 37.5757C28.1679 37.5757 28.1679 37.5757 28.1679 37.5757C28.1679 37.5756 28.1679 37.5756 27.168 37.5859ZM28.542 31.9395L28.5009 32.9386C28.6447 32.9445 28.7029 32.97 28.713 32.975C28.7177 32.9772 28.7155 32.9767 28.7106 32.9724C28.7058 32.9682 28.7044 32.9656 28.7063 32.9684C28.7112 32.9758 28.7358 33.0172 28.7578 33.1238C28.7799 33.2311 28.7939 33.3783 28.7939 33.5762L29.7939 33.5762L30.7939 33.5761C30.7939 33.0453 30.7291 32.3974 30.3707 31.8594C29.9608 31.2442 29.3103 30.9702 28.5831 30.9403L28.542 31.9395ZM29.7939 33.5762H28.7939C28.7939 33.9393 28.7243 34.2625 28.628 34.6688C28.5379 35.0491 28.4082 35.5568 28.4082 36.1162H29.4082H30.4082C30.4082 35.8342 30.4714 35.5635 30.5741 35.13C30.6707 34.7225 30.7939 34.1965 30.7939 33.5762H29.7939ZM29.4082 36.1162L28.4082 36.1162C28.4082 36.3865 28.353 39.1001 28.2717 43.0811L29.2715 43.1016L30.2713 43.122C30.3521 39.1648 30.4082 36.4137 30.4082 36.1162L29.4082 36.1162ZM29.2715 43.1016L28.9655 42.1495C28.6924 42.2373 28.1558 42.4047 27.4605 42.5921L27.7207 43.5576L27.9809 44.5232C28.7146 44.3254 29.2827 44.1483 29.5775 44.0536L29.2715 43.1016ZM27.7207 43.5576L28.7205 43.5383C28.6391 39.3299 28.5732 36.3975 28.5732 36.1162L27.5732 36.1162L26.5732 36.1162C26.5732 36.4231 26.6401 39.4011 26.7209 43.577L27.7207 43.5576ZM27.5732 36.1162H28.5732C28.5732 35.5569 28.4438 35.0505 28.354 34.6709C28.2581 34.266 28.1885 33.9423 28.1885 33.5762H27.1885H26.1885C26.1885 34.1985 26.3112 34.7241 26.4078 35.1317C26.5103 35.5647 26.5732 35.8341 26.5732 36.1162H27.5732ZM27.1885 33.5762L28.1885 33.5762C28.1885 33.3783 28.2025 33.231 28.2246 33.1236C28.2466 33.017 28.2712 32.9756 28.2761 32.9682C28.2779 32.9655 28.2765 32.9681 28.2717 32.9724C28.2668 32.9767 28.2646 32.9772 28.2692 32.9749C28.2793 32.97 28.3375 32.9445 28.4814 32.9386L28.4404 31.9395L28.3994 30.9403C27.6721 30.9701 27.0216 31.244 26.6116 31.8594C26.2532 32.3974 26.1885 33.0454 26.1885 33.5761L27.1885 33.5762ZM28.4404 31.9395V32.9395H28.542V31.9395V30.9395H28.4404V31.9395ZM24 39.7559L23.3415 39.0033C23.2595 39.0751 23.2051 39.1457 23.1744 39.1894C23.1419 39.2356 23.1185 39.2767 23.1037 39.3043C23.0753 39.357 23.0551 39.4046 23.0465 39.4251C23.0379 39.4454 23.0259 39.4751 23.023 39.4821C23.0175 39.4955 23.0145 39.5025 23.0125 39.5071C23.0077 39.5176 23.0125 39.505 23.0278 39.4819C23.0433 39.4585 23.0787 39.4104 23.1415 39.3601L23.7666 40.1406L24.3917 40.9212C24.5304 40.8101 24.628 40.6878 24.6952 40.5864C24.7621 40.4853 24.8081 40.3908 24.8377 40.3247C24.8528 40.2911 24.8652 40.2611 24.8738 40.2401C24.885 40.2126 24.8858 40.2105 24.8891 40.2026C24.8924 40.1949 24.8832 40.2179 24.8655 40.2509C24.8559 40.2687 24.8377 40.301 24.8103 40.34C24.7847 40.3763 24.7355 40.4411 24.6585 40.5084L24 39.7559ZM23.7666 40.1406L23.1419 39.3598C22.8502 39.5931 22.7315 39.9 22.6836 40.0552C22.6548 40.1485 22.6353 40.2407 22.6242 40.3264C22.6179 40.3754 22.5973 40.5358 22.6337 40.7176L23.6143 40.5215L24.5948 40.3254C24.6145 40.4237 24.6129 40.4985 24.6124 40.5173C24.6117 40.548 24.6093 40.5705 24.6077 40.5833C24.6044 40.6087 24.5999 40.6279 24.5947 40.6449C24.5896 40.6613 24.5784 40.6932 24.5545 40.7348C24.5316 40.7746 24.4823 40.8487 24.3913 40.9215L23.7666 40.1406ZM23.6143 40.5215L22.6383 40.7394C22.7724 41.3402 23.3075 41.4847 23.3961 41.5061C23.5464 41.5426 23.6737 41.5376 23.7236 41.535C23.8436 41.5286 23.953 41.5056 24.0213 41.4892C24.0984 41.4707 24.1799 41.4467 24.2562 41.4189C24.2825 41.4093 24.4663 41.347 24.6284 41.2144L23.9951 40.4404L23.3619 39.6665C23.4507 39.5938 23.528 39.5587 23.5351 39.5553C23.5572 39.5448 23.5707 39.54 23.5712 39.5398C23.5726 39.5393 23.5645 39.5421 23.5547 39.5444C23.5362 39.5489 23.5615 39.5408 23.6177 39.5378C23.6357 39.5368 23.7363 39.5307 23.867 39.5624C23.9361 39.5791 24.4589 39.7153 24.5902 40.3036L23.6143 40.5215ZM23.9951 40.4404L24.6481 41.1978C24.7455 41.1138 24.8258 41.0222 24.8755 40.9636C24.928 40.9016 24.982 40.8331 25.0154 40.7913C25.0574 40.7388 25.0749 40.7182 25.082 40.7105C25.0848 40.7074 25.0715 40.7225 25.0452 40.745C25.0313 40.7569 25.0077 40.776 24.9755 40.7977C24.9446 40.8186 24.8932 40.8504 24.8236 40.8796L24.4355 39.958L24.0475 39.0364C23.8967 39.0999 23.7916 39.1854 23.7448 39.2254C23.6887 39.2734 23.643 39.3207 23.6116 39.3548C23.55 39.4216 23.491 39.4953 23.4532 39.5425C23.407 39.6004 23.3781 39.637 23.3493 39.671C23.3177 39.7084 23.3182 39.7037 23.3421 39.6831L23.9951 40.4404ZM24.4355 39.958L24.8637 40.8617C24.9996 40.7973 25.2716 40.6423 25.4319 40.3146C25.6306 39.9084 25.5367 39.5032 25.3695 39.2356L24.5215 39.7656L23.6735 40.2956C23.6232 40.2152 23.5647 40.0892 23.548 39.9238C23.5306 39.7508 23.564 39.5815 23.6354 39.4356C23.7641 39.1725 23.9678 39.0731 24.0074 39.0543L24.4355 39.958ZM24.5215 39.7656L24.7635 38.7953C24.299 38.6795 23.8387 38.7688 23.8237 38.7715L24 39.7559L24.1763 40.7402C24.1545 40.7441 24.1799 40.7387 24.2226 40.7366C24.2432 40.7356 24.2615 40.7357 24.2758 40.7366C24.2911 40.7376 24.2915 40.7389 24.2795 40.7359L24.5215 39.7656Z" fill="#1B8FF3" mask="url(#path-9-outside-1_40006840_3977)"/>
<path d="M29.0227 55.6923C28.9366 59.8693 28.8706 63.1643 28.8655 63.3873C28.8554 63.9043 28.6121 63.9855 28.5108 64.0007H28.4702C28.3689 63.9855 28.1255 63.9043 28.1153 63.3873C28.1103 63.1744 28.0495 60.1481 27.9684 56.1841C28.2725 55.9408 28.6628 55.7532 29.0227 55.6923ZM29.4384 57.5631C30.589 58.0852 31.2937 58.9519 31.2937 60.4473C31.2937 60.6653 31.1568 60.574 31.1112 60.351C31.0604 60.1278 30.2899 58.7695 29.4232 58.6174C29.4232 58.0581 29.4382 57.5689 29.4384 57.5631ZM29.6159 50.1416C30.949 50.5775 32.2518 51.3481 32.2518 52.7674C32.2518 54.1868 31.2075 54.8001 29.3826 55.2513C27.9531 55.5656 27.5425 55.9914 27.5425 56.2398V57.725C27.5363 57.7225 26.2195 57.1901 26.2195 56.0522C26.2195 54.9117 27.5832 54.4048 28.6527 54.1007C29.7223 53.7965 30.5079 53.5329 30.5079 52.8182C30.5079 52.1062 29.5776 51.8872 29.5702 51.8855L29.6159 50.1416ZM29.2153 46.1776C29.1646 48.621 29.114 51.2265 29.0684 53.6546C28.7845 53.7155 28.2421 53.8676 27.9278 54.0247C27.8771 51.627 27.8264 49.0316 27.7758 46.5833C28.0901 46.4717 28.8504 46.2689 29.2153 46.1776ZM29.8541 37.3371C32.3582 37.3371 34.5988 38.9391 34.5988 41.3266C34.5988 43.7141 33.1895 44.8192 30.7209 45.4325C28.2522 46.0459 26.1536 46.3349 26.1536 47.8911C26.1536 48.5551 26.7214 49.062 27.3651 49.427V51.2012C27.3651 51.2012 24.0448 50.7095 24.0448 47.7086C24.0448 44.7077 27.5374 44.3123 28.8047 43.9879C31.0807 43.3593 32.5254 43.0349 32.5254 41.2911C32.5254 39.5473 30.5181 39.0354 29.8186 39.0354C29.8186 38.3358 29.8541 37.3371 29.8541 37.3371ZM27.1674 37.5855C27.1675 37.5927 27.1826 39.1018 27.1826 39.3748C26.767 39.5117 26.4628 39.7094 25.9305 40.3126C25.3831 40.9666 23.6849 42.021 23.325 42.168C22.9652 42.3149 22.4484 42.2997 22.3974 42.2997C22.3467 42.2997 22.1136 42.6901 21.9311 42.8776C21.7486 43.0652 21.5863 43.6735 21.5863 43.6735C21.5609 43.5822 21.5458 43.4048 21.6674 42.9891C21.5153 43.0753 20.9375 43.2679 20.9121 43.0752C21.2467 43.1564 21.561 42.8522 21.7942 42.7154C22.0274 42.5785 22.225 42.2895 22.2098 42.0969C22.1591 41.808 22.3467 41.4176 22.4988 41.1034C22.6508 40.7891 22.5089 40.637 22.9651 40.0034C23.7002 38.7463 24.6025 38.4016 25.2716 38.2748C25.9407 38.1481 26.7416 37.5855 27.1674 37.5855ZM28.5412 31.9385C29.5296 31.979 29.7932 32.6177 29.7933 33.5758C29.7933 34.5592 29.4079 35.274 29.4079 36.1155C29.4079 36.3994 29.3522 39.1315 29.2711 43.1006C28.9872 43.1918 28.4346 43.3642 27.7199 43.5568C27.6388 39.3647 27.5729 36.4096 27.5729 36.1155C27.5729 35.274 27.1877 34.5642 27.1877 33.5758C27.1877 32.6177 27.4514 31.979 28.4398 31.9385H28.5412ZM24.5214 39.7651C24.2781 39.7043 23.9992 39.755 23.9992 39.755C23.9587 39.7906 23.9181 40.0186 23.7661 40.1402C23.6393 40.2416 23.6038 40.4698 23.614 40.5205C23.6241 40.5711 23.9384 40.4849 23.9942 40.4393C24.1412 40.3126 24.3388 39.9983 24.4351 39.9577C24.5314 39.9121 24.5721 39.8462 24.5214 39.7651Z" fill="white"/>
<path d="M68.7657 37.3867V13.0327H74.5284L81.2858 25.9643H81.3544L88.0432 13.0327H93.8401V37.3867H88.1461V23.9748H88.0775L83.138 32.8932H79.4678L74.5284 23.9405H74.4255V37.3867H68.7657ZM98.2428 37.3867V13.0327H114.124V18.1436H103.834V22.8086H111.963V27.748H103.834V32.2758H114.845V37.3867H98.2428ZM118.308 37.3867V13.0327H126.746C134.464 13.0327 139.403 18.0407 139.403 25.244C139.403 32.413 134.738 37.3867 126.849 37.3867H118.308ZM123.899 32.2758H126.472C130.656 32.2758 133.4 29.1887 133.4 25.244C133.4 21.1621 130.622 18.1436 126.883 18.1436H123.899V32.2758ZM152.671 37.6954C146.668 37.6954 142.621 33.9909 142.621 27.2335V13.0327H148.383V26.8905C148.383 29.8747 149.824 32.3444 152.671 32.3444C155.209 32.3444 157.061 30.3549 157.061 26.8905V13.0327H162.79V27.2335C162.79 33.5793 159.154 37.6954 152.671 37.6954ZM166.913 37.3867V13.0327H172.435L182.143 28.0567L182.211 28.0224V13.0327H187.871V37.3867H182.177L172.641 22.7743H172.572V37.3867H166.913ZM192.408 37.3867V13.0327H198.273V37.3867H192.408Z" fill="white"/>
<path d="M69.1486 48.6152V43.6168H69.9934L72.4363 47.2072H72.4504V43.6168H73.2952V48.6152H72.4293L70.0145 45.0882H70.0005V48.6152H69.1486ZM78.045 44.0744H77.4607L76.5948 43.0536H77.4607L78.045 44.0744ZM76.3132 44.173L75.926 44.7151H75.1445L75.9119 43.6943H76.7356L77.4748 44.7151H76.7074L76.3273 44.173H76.3132ZM76.2921 45.1304C77.2565 45.1304 77.9113 45.8556 77.9113 46.8552C77.9113 46.982 77.8972 47.1016 77.8901 47.158H75.3839C75.4825 47.6578 75.8556 47.9535 76.3906 47.9535C76.7989 47.9535 77.0805 47.7704 77.2565 47.5522L77.8057 48.0239C77.517 48.397 77.0876 48.6716 76.3484 48.6716C75.3065 48.6716 74.5673 47.9746 74.5673 46.8975C74.5673 45.8415 75.2853 45.1304 76.2921 45.1304ZM76.285 45.8415C75.8485 45.8415 75.5106 46.0879 75.398 46.5384H77.1157C77.0172 46.1231 76.7356 45.8415 76.285 45.8415ZM79.0766 48.6152V45.1797H79.865V45.6514H79.8791C80.1607 45.3135 80.5761 45.1304 81.0266 45.1304C81.7799 45.1304 82.2868 45.5599 82.2868 46.5948V48.6152H81.4983V46.7989C81.4983 46.0738 81.2238 45.8415 80.7521 45.8415C80.217 45.8415 79.865 46.2146 79.865 46.8904V48.6152H79.0766ZM86.8582 48.6716C86.2669 48.6716 85.9008 48.2984 85.9008 47.5311V45.8485H85.4784V45.1797H85.9008V44.0392L86.6893 43.9548V45.1797H87.696V45.8485H86.6893V47.4536C86.6893 47.8056 86.7949 47.9324 87.0201 47.9324C87.1539 47.9324 87.344 47.8831 87.527 47.7845L87.7312 48.4674C87.527 48.58 87.3088 48.6716 86.8582 48.6716ZM89.9611 44.7151C90.2849 44.4828 90.4609 44.2645 90.4539 44.1096C90.4539 44.0181 90.3765 43.9618 90.2497 43.9618C90.0526 43.9618 89.8977 44.0181 89.6302 44.2012L89.4472 43.7928C89.6021 43.6309 89.94 43.4197 90.4398 43.4197C90.82 43.4197 91.1016 43.5957 91.1016 43.997C91.1016 44.349 90.7637 44.6236 90.5384 44.7151H89.9611ZM90.0597 48.6716C89.1093 48.6716 88.3982 47.9746 88.3982 46.9116C88.3982 45.8767 89.1093 45.1304 90.0526 45.1304C90.4891 45.1304 90.8693 45.2924 91.1157 45.6021L91.1297 45.5951V45.1797H91.9182V48.6152H91.1649V48.1647L91.1509 48.1576C90.9045 48.4885 90.5384 48.6716 90.0597 48.6716ZM90.1864 47.9535C90.7214 47.9535 91.1649 47.5381 91.1649 46.9186C91.1649 46.3061 90.7496 45.8415 90.1864 45.8415C89.6373 45.8415 89.2008 46.2568 89.2008 46.9186C89.2008 47.524 89.6021 47.9535 90.1864 47.9535ZM93.2652 48.6152V45.1797H94.0537V45.6514H94.0677C94.3493 45.3135 94.7647 45.1304 95.2153 45.1304C95.9685 45.1304 96.4754 45.5599 96.4754 46.5948V48.6152H95.6869V46.7989C95.6869 46.0738 95.4124 45.8415 94.9407 45.8415C94.4057 45.8415 94.0537 46.2146 94.0537 46.8904V48.6152H93.2652ZM99.325 50.0584C98.8111 50.0584 98.3113 49.9317 97.9241 49.6994L98.1141 49.0095C98.4873 49.2066 98.79 49.3474 99.2828 49.3474C99.9586 49.3474 100.304 48.9602 100.304 48.5026V48.1436H100.29C100.029 48.404 99.67 48.5589 99.2476 48.5589C98.2901 48.5589 97.5721 47.8831 97.5721 46.8623C97.5721 45.8556 98.2549 45.1304 99.2053 45.1304C99.5996 45.1304 99.9868 45.2712 100.275 45.5458H100.29V45.1797H101.078V48.2632C101.078 49.3052 100.599 50.0584 99.325 50.0584ZM99.3532 47.8338C99.9234 47.8338 100.325 47.4114 100.325 46.8271C100.325 46.2428 99.9023 45.8485 99.3532 45.8485C98.7689 45.8485 98.3746 46.2568 98.3746 46.8412C98.3746 47.4536 98.797 47.8338 99.3532 47.8338ZM104.753 48.6152V43.6168H105.605V47.8549H107.921V48.6152H104.753ZM109.148 48.6152V43.6168H109.999L111.647 46.6088H111.661L113.308 43.6168H114.16V48.6152H113.308V45.2712H113.294L111.928 47.6508H111.372L110.006 45.2712H109.999V48.6152H109.148ZM117.227 48.6716C116.587 48.6716 115.939 48.4252 115.418 47.8831L115.953 47.2284C116.312 47.6648 116.805 47.8831 117.235 47.8831C117.784 47.8831 118.065 47.6437 118.065 47.2776C118.065 46.8412 117.734 46.7004 117.101 46.4751C116.34 46.2076 115.587 45.8696 115.587 44.9544C115.587 44.173 116.305 43.5605 117.171 43.5605C117.763 43.5605 118.319 43.7717 118.826 44.173L118.319 44.8418C117.91 44.5039 117.509 44.3279 117.171 44.3279C116.784 44.3279 116.474 44.5391 116.467 44.9122C116.46 45.2783 116.798 45.405 117.403 45.6373C118.262 45.9752 118.952 46.2076 118.952 47.172C118.952 48.2069 118.03 48.6716 117.227 48.6716ZM122.384 48.6152V43.4338H123.172V45.6092H123.179C123.468 45.2924 123.883 45.1304 124.348 45.1304C125.101 45.1304 125.629 45.5317 125.629 46.5596V48.6152H124.841V46.7637C124.841 46.0808 124.566 45.8415 124.094 45.8415C123.524 45.8415 123.172 46.1935 123.172 46.8693V48.6152H122.384ZM127.372 44.7151L128.14 43.6943H128.964L129.703 44.7151H128.935L128.555 44.173H128.541L128.154 44.7151H127.372ZM128.541 48.6716C127.457 48.6716 126.739 47.9112 126.739 46.9045C126.739 45.8908 127.457 45.1304 128.541 45.1304C129.597 45.1304 130.343 45.8485 130.343 46.9045C130.343 47.9464 129.597 48.6716 128.541 48.6716ZM128.541 47.9535C129.097 47.9535 129.541 47.524 129.541 46.9045C129.541 46.2709 129.104 45.8415 128.541 45.8415C127.943 45.8415 127.541 46.3061 127.541 46.9045C127.541 47.4888 127.95 47.9535 128.541 47.9535ZM128.541 49.1644C128.837 49.1644 129.069 49.4037 129.069 49.6924C129.069 49.974 128.837 50.2133 128.541 50.2133C128.245 50.2133 128.006 49.974 128.006 49.6924C128.006 49.4037 128.245 49.1644 128.541 49.1644ZM131.96 44.6728C131.664 44.6728 131.432 44.4335 131.432 44.1448C131.432 43.8632 131.664 43.6239 131.96 43.6239C132.256 43.6239 132.495 43.8632 132.495 44.1448C132.495 44.4335 132.256 44.6728 131.96 44.6728ZM131.566 48.6152V45.1797H132.354V48.6152H131.566ZM137.043 48.6716C136.452 48.6716 136.086 48.2984 136.086 47.5311V45.8485H135.663V45.1797H136.086V44.0392L136.874 43.9548V45.1797H137.881V45.8485H136.874V47.4536C136.874 47.8056 136.98 47.9324 137.205 47.9324C137.339 47.9324 137.529 47.8831 137.712 47.7845L137.916 48.4674C137.712 48.58 137.494 48.6716 137.043 48.6716ZM140.163 48.6716C139.403 48.6716 138.875 48.2914 138.875 47.2706V45.1797H139.664V47.0594C139.664 47.7423 139.875 47.9535 140.346 47.9535C140.804 47.9535 141.226 47.5663 141.226 46.8271V45.1797H142.015V48.6152H141.226V48.1858L141.212 48.1788C140.938 48.5096 140.558 48.6716 140.163 48.6716ZM140.487 49.1644C140.783 49.1644 141.015 49.4037 141.015 49.6924C141.015 49.974 140.783 50.2133 140.487 50.2133C140.192 50.2133 139.952 49.974 139.952 49.6924C139.952 49.4037 140.192 49.1644 140.487 49.1644ZM146.73 48.6152V44.3772H145.315V43.6168H149.018V44.3772H147.581V48.6152H146.73ZM150.448 44.6728C150.152 44.6728 149.92 44.4335 149.92 44.1448C149.92 43.8632 150.152 43.6239 150.448 43.6239C150.744 43.6239 150.983 43.8632 150.983 44.1448C150.983 44.4335 150.744 44.6728 150.448 44.6728ZM150.054 48.6152V45.1797H150.842V48.6152H150.054ZM152.275 48.6152V45.1797H153.063V45.6514H153.077C153.359 45.3135 153.774 45.1304 154.225 45.1304C154.978 45.1304 155.485 45.5599 155.485 46.5948V48.6152H154.696V46.7989C154.696 46.0738 154.422 45.8415 153.95 45.8415C153.415 45.8415 153.063 46.2146 153.063 46.8904V48.6152H152.275ZM156.8 48.6152V43.4338H157.588V45.6092H157.595C157.884 45.2924 158.299 45.1304 158.764 45.1304C159.517 45.1304 160.045 45.5317 160.045 46.5596V48.6152H159.257V46.7637C159.257 46.0808 158.982 45.8415 158.511 45.8415C157.94 45.8415 157.588 46.1935 157.588 46.8693V48.6152H156.8ZM163.595 48.6152V43.4338H164.384V45.6092H164.391C164.679 45.2924 165.095 45.1304 165.559 45.1304C166.312 45.1304 166.84 45.5317 166.84 46.5596V48.6152H166.052V46.7637C166.052 46.0808 165.777 45.8415 165.306 45.8415C164.736 45.8415 164.384 46.1935 164.384 46.8693V48.6152H163.595ZM169.753 48.6716C168.668 48.6716 167.95 47.9112 167.95 46.9045C167.95 45.8908 168.668 45.1304 169.753 45.1304C170.809 45.1304 171.555 45.8485 171.555 46.9045C171.555 47.9464 170.809 48.6716 169.753 48.6716ZM169.753 47.9535C170.309 47.9535 170.752 47.524 170.752 46.9045C170.752 46.2709 170.316 45.8415 169.753 45.8415C169.154 45.8415 168.753 46.3061 168.753 46.9045C168.753 47.4888 169.161 47.9535 169.753 47.9535ZM174.178 48.6716C173.228 48.6716 172.517 47.9746 172.517 46.9116C172.517 45.8767 173.228 45.1304 174.171 45.1304C174.607 45.1304 174.988 45.2924 175.234 45.6021L175.248 45.5951V45.1797H176.037V48.6152H175.283V48.1647L175.269 48.1576C175.023 48.4885 174.657 48.6716 174.178 48.6716ZM174.305 47.9535C174.84 47.9535 175.283 47.5381 175.283 46.9186C175.283 46.3061 174.868 45.8415 174.305 45.8415C173.756 45.8415 173.319 46.2568 173.319 46.9186C173.319 47.524 173.72 47.9535 174.305 47.9535ZM180.872 48.6152V46.4047L179.204 43.6168H180.175L181.295 45.5528H181.309L182.421 43.6168H183.407L181.724 46.4047V48.6152H180.872ZM186.607 48.6152V43.4338H187.396V45.6092H187.403C187.691 45.2924 188.107 45.1304 188.571 45.1304C189.324 45.1304 189.852 45.5317 189.852 46.5596V48.6152H189.064V46.7637C189.064 46.0808 188.789 45.8415 188.318 45.8415C187.748 45.8415 187.396 46.1935 187.396 46.8693V48.6152H186.607ZM192.765 48.6716C191.68 48.6716 190.962 47.9112 190.962 46.9045C190.962 45.8908 191.68 45.1304 192.765 45.1304C193.821 45.1304 194.567 45.8485 194.567 46.9045C194.567 47.9464 193.821 48.6716 192.765 48.6716ZM192.765 47.9535C193.321 47.9535 193.764 47.524 193.764 46.9045C193.764 46.2709 193.328 45.8415 192.765 45.8415C192.166 45.8415 191.765 46.3061 191.765 46.9045C191.765 47.4888 192.173 47.9535 192.765 47.9535ZM192.765 49.1644C193.06 49.1644 193.293 49.4037 193.293 49.6924C193.293 49.974 193.06 50.2133 192.765 50.2133C192.469 50.2133 192.23 49.974 192.23 49.6924C192.23 49.4037 192.469 49.1644 192.765 49.1644ZM197.289 48.6716C196.275 48.6716 195.536 47.9535 195.536 46.9045C195.536 45.8485 196.275 45.1304 197.317 45.1304C197.852 45.1304 198.415 45.3487 198.76 45.7711L198.225 46.2357C198.028 46.0034 197.732 45.8415 197.359 45.8415C196.747 45.8415 196.338 46.2709 196.338 46.8975C196.338 47.5311 196.754 47.9535 197.359 47.9535C197.739 47.9535 198.049 47.7845 198.225 47.5522L198.767 48.0309C198.478 48.404 198.035 48.6716 197.289 48.6716Z" fill="white"/>
<defs>
<linearGradient id="paint0_linear_40006840_3977" x1="27.7575" y1="31.9395" x2="27.7575" y2="64.002" gradientUnits="userSpaceOnUse">
<stop stop-color="#1B8FF3"/>
<stop offset="1" stop-color="#1B8FF3"/>
</linearGradient>
<linearGradient id="paint1_linear_40006840_3977" x1="27.7575" y1="31.9395" x2="27.7575" y2="64.002" gradientUnits="userSpaceOnUse">
<stop stop-color="#1B8FF3"/>
<stop offset="1" stop-color="#0064BA"/>
</linearGradient>
</defs>
</svg>
