
<svg width="48" height="48" viewBox="0 0 48 48" fill="none" xmlns="http://www.w3.org/2000/svg">
<path fill-rule="evenodd" clip-rule="evenodd" d="M34.4484 36.9457L37.8993 44.303C37.9496 44.407 37.937 44.5192 37.8658 44.6066C37.7987 44.6981 37.694 44.7396 37.5808 44.7188L33.0881 43.9412L30.7913 47.8542C30.7368 47.9499 30.6362 48.0039 30.523 47.9998C30.41 47.9956 30.3177 47.9332 30.2675 47.8293L27.4034 41.7257C29.374 42.1058 31.3411 41.2947 32.464 39.5893L33.8328 37.5128C33.997 37.2648 34.1943 37.0798 34.4484 36.9457ZM20.5961 41.7257L17.7321 47.8293C17.686 47.9332 17.5895 47.9956 17.4765 47.9998C17.3633 48.0039 17.2627 47.9499 17.2082 47.8542L14.9157 43.9412L10.4187 44.7188C10.3055 44.7396 10.2008 44.6981 10.1337 44.6066C10.0625 44.5192 10.0499 44.407 10.1002 44.303L13.5511 36.9457C13.8052 37.0798 14.0025 37.2648 14.1667 37.5128L15.5359 39.59C16.6585 41.2948 18.6255 42.1058 20.5961 41.7257ZM23.6295 0.268C23.6816 0.1082 23.8311 0 23.9998 0C24.1684 0 24.3179 0.1082 24.37 0.268L24.9769 2.1287C25.0021 2.20646 25.0516 2.27428 25.1181 2.32243C25.1846 2.37058 25.2648 2.39658 25.3472 2.3967H27.3112C27.4798 2.3967 27.6294 2.5048 27.6815 2.6646C27.7336 2.8244 27.6764 2.9995 27.54 3.0982L25.9511 4.2482C25.8845 4.2965 25.835 4.36442 25.8096 4.44228C25.7842 4.52014 25.7842 4.60396 25.8097 4.6818L26.4166 6.5425C26.442 6.62034 26.442 6.70416 26.4167 6.78201C26.3913 6.85986 26.3418 6.92778 26.2752 6.9761C26.2088 7.02425 26.1286 7.0502 26.0464 7.0502C25.9641 7.0502 25.884 7.02425 25.8175 6.9761L24.2285 5.8261C24.1621 5.77799 24.082 5.75206 23.9998 5.75206C23.9175 5.75206 23.8374 5.77799 23.771 5.8261L22.182 6.9761C22.1155 7.02425 22.0354 7.0502 21.9531 7.0502C21.8709 7.0502 21.7907 7.02425 21.7243 6.9761C21.6577 6.92778 21.6082 6.85986 21.5829 6.78201C21.5575 6.70416 21.5575 6.62034 21.5829 6.5425L22.1898 4.6818C22.2153 4.60396 22.2153 4.52014 22.1899 4.44228C22.1645 4.36442 22.115 4.2965 22.0484 4.2482L20.4595 3.0982C20.3231 2.9995 20.2659 2.8244 20.318 2.6646C20.3701 2.5048 20.5197 2.3967 20.6883 2.3967H22.6523C22.7347 2.39658 22.8149 2.37058 22.8814 2.32243C22.9479 2.27428 22.9974 2.20646 23.0226 2.1287L23.6295 0.268ZM11.7198 3.6311C11.6844 3.4669 11.7594 3.2991 11.9054 3.2154C12.0514 3.1317 12.2355 3.1513 12.3611 3.2638L13.8244 4.5741C13.8854 4.62892 13.9624 4.66314 14.0443 4.67183C14.1261 4.68053 14.2087 4.66326 14.28 4.6225L15.9809 3.6482C16.0523 3.60742 16.1348 3.59012 16.2167 3.5988C16.2986 3.60748 16.3756 3.64168 16.4367 3.6965C16.4979 3.75132 16.5401 3.8239 16.5574 3.90393C16.5746 3.98395 16.566 4.06733 16.5327 4.1422L15.7361 5.9264C15.7028 6.00125 15.6942 6.08462 15.7114 6.16463C15.7287 6.24464 15.7709 6.31721 15.8321 6.372L17.2955 7.6824C17.3567 7.73719 17.3989 7.80977 17.4162 7.88978C17.4334 7.96979 17.4247 8.05316 17.3914 8.128C17.3581 8.20265 17.3018 8.26488 17.2306 8.30571C17.1594 8.34653 17.0769 8.36382 16.9951 8.3551L15.0396 8.1474C14.9578 8.1387 14.8753 8.156 14.804 8.19682C14.7328 8.23764 14.6765 8.29986 14.6432 8.3745L13.8467 10.1587C13.8134 10.2333 13.757 10.2955 13.6858 10.3363C13.6146 10.3771 13.5321 10.3944 13.4504 10.3857C13.3684 10.3769 13.2913 10.3426 13.23 10.2878C13.1688 10.233 13.1265 10.1604 13.1093 10.0804L12.6973 8.1678C12.6801 8.08777 12.6379 8.01518 12.5766 7.96036C12.5154 7.90554 12.4383 7.87129 12.3563 7.8625L10.4008 7.6549C10.3188 7.6461 10.2417 7.61184 10.1804 7.557C10.1192 7.50216 10.077 7.42954 10.0598 7.3495C10.0425 7.26964 10.0511 7.18638 10.0844 7.11169C10.1177 7.03699 10.1741 6.97471 10.2454 6.9338L11.9462 5.9594C12.0175 5.91849 12.0739 5.85621 12.1072 5.78152C12.1406 5.70683 12.1492 5.62356 12.1319 5.5437L11.7198 3.6311ZM3.10052 12.4521C2.98714 12.3275 2.96738 12.1449 3.05174 12C3.1361 11.8551 3.30522 11.7807 3.47071 11.8158L5.39834 12.2247C5.47884 12.2419 5.56276 12.2333 5.63804 12.2002C5.71332 12.1671 5.77608 12.1112 5.81731 12.0405L6.79937 10.3529C6.84061 10.2822 6.90338 10.2263 6.97866 10.1932C7.05394 10.1601 7.13786 10.1516 7.21834 10.1688C7.299 10.1859 7.37217 10.2278 7.42744 10.2885C7.48271 10.3492 7.51725 10.4257 7.52614 10.5071L7.73538 12.4474C7.74424 12.5287 7.77875 12.6052 7.834 12.666C7.88926 12.7267 7.96242 12.7686 8.04308 12.7857L9.97071 13.1945C10.0514 13.2116 10.1245 13.2535 10.1798 13.3143C10.235 13.375 10.2695 13.4515 10.2784 13.5329C10.2872 13.614 10.2698 13.6958 10.2287 13.7665C10.1875 13.8372 10.1248 13.8931 10.0496 13.9261L8.2514 14.7164C8.17617 14.7494 8.11347 14.8053 8.07233 14.876C8.03119 14.9467 8.01375 15.0285 8.02252 15.1097L8.23185 17.05C8.24064 17.1311 8.22321 17.213 8.18207 17.2836C8.14093 17.3543 8.0782 17.4102 8.00296 17.4432C7.92754 17.4763 7.84351 17.4849 7.76287 17.4678C7.68223 17.4507 7.60909 17.4088 7.55386 17.348L6.23316 15.8961C6.17793 15.8353 6.10479 15.7934 6.02416 15.7763C5.94352 15.7592 5.8595 15.7678 5.78405 15.8008L3.98583 16.5912C3.91037 16.6242 3.82633 16.6328 3.74568 16.6157C3.66503 16.5986 3.59187 16.5567 3.53662 16.4959C3.48137 16.4353 3.4469 16.3589 3.43816 16.2777C3.42941 16.1964 3.44684 16.1145 3.48794 16.0437L4.4699 14.3561C4.51098 14.2853 4.52839 14.2034 4.51963 14.1222C4.51086 14.0409 4.47638 13.9646 4.42112 13.904L3.10052 12.4521ZM35.6385 3.2638C35.764 3.1513 35.9481 3.1317 36.0941 3.2154C36.2401 3.2991 36.3151 3.4669 36.2798 3.6311L35.8676 5.5437C35.8503 5.62356 35.8589 5.70683 35.8923 5.78152C35.9257 5.85621 35.982 5.91849 36.0533 5.9594L37.7542 6.9338C37.8254 6.97471 37.8818 7.03699 37.9151 7.11169C37.9485 7.18638 37.9571 7.26964 37.9397 7.3495C37.9225 7.42953 37.8803 7.50213 37.819 7.55696C37.7578 7.6118 37.6807 7.64607 37.5987 7.6549L35.6432 7.8625C35.5612 7.87129 35.4841 7.90554 35.4229 7.96036C35.3616 8.01518 35.3194 8.08777 35.3022 8.1678L34.8902 10.0804C34.873 10.1604 34.8307 10.233 34.7695 10.2878C34.7083 10.3426 34.6311 10.3769 34.5492 10.3857C34.4674 10.3944 34.3849 10.3771 34.3137 10.3363C34.2425 10.2955 34.1861 10.2333 34.1529 10.1587L33.3563 8.3745C33.323 8.29986 33.2667 8.23764 33.1955 8.19682C33.1242 8.156 33.0418 8.1387 32.96 8.1474L31.0044 8.3551C30.9226 8.36382 30.8401 8.34653 30.7689 8.30571C30.6977 8.26488 30.6414 8.20265 30.6081 8.128C30.5748 8.05316 30.5661 7.96979 30.5834 7.88978C30.6006 7.80977 30.6428 7.73719 30.7041 7.6824L32.1674 6.372C32.2286 6.31721 32.2709 6.24464 32.2881 6.16463C32.3054 6.08462 32.2967 6.00125 32.2634 5.9264L31.4668 4.1422C31.4335 4.06733 31.4249 3.98395 31.4421 3.90393C31.4594 3.8239 31.5016 3.75132 31.5629 3.6965C31.6239 3.64168 31.7009 3.60748 31.7828 3.5988C31.8647 3.59012 31.9473 3.60742 32.0186 3.6482L33.7195 4.6225C33.7908 4.66326 33.8734 4.68053 33.9552 4.67183C34.0371 4.66314 34.1141 4.62892 34.1751 4.5741L35.6385 3.2638ZM44.5288 11.8158C44.6943 11.7807 44.8634 11.8551 44.9478 12C45.0321 12.1449 45.0124 12.3275 44.899 12.4521L43.5784 13.904C43.5231 13.9646 43.4887 14.0409 43.4799 14.1222C43.4711 14.2034 43.4885 14.2853 43.5296 14.3561L44.5116 16.0437C44.5527 16.1145 44.5701 16.1964 44.5614 16.2777C44.5526 16.3589 44.5181 16.4353 44.4629 16.4959C44.4076 16.5567 44.3345 16.5986 44.2538 16.6157C44.1732 16.6328 44.0891 16.6242 44.0137 16.5912L42.2155 15.8008C42.14 15.7678 42.056 15.7592 41.9754 15.7763C41.8947 15.7934 41.8216 15.8353 41.7664 15.8961L40.4457 17.348C40.3904 17.4088 40.3173 17.4507 40.2366 17.4678C40.156 17.4849 40.072 17.4763 39.9965 17.4432C39.9213 17.4102 39.8586 17.3543 39.8174 17.2836C39.7763 17.213 39.7589 17.1311 39.7677 17.05L39.977 15.1097C39.9858 15.0285 39.9683 14.9467 39.9272 14.876C39.886 14.8053 39.8233 14.7494 39.7481 14.7164L37.9499 13.9261C37.8747 13.8931 37.812 13.8372 37.7709 13.7665C37.7297 13.6958 37.7123 13.614 37.7211 13.5329C37.73 13.4515 37.7645 13.375 37.8197 13.3143C37.875 13.2535 37.9481 13.2116 38.0288 13.1945L39.9564 12.7857C40.0371 12.7686 40.1103 12.7267 40.1655 12.666C40.2208 12.6052 40.2553 12.5287 40.2641 12.4474L40.4734 10.5071C40.4822 10.4257 40.5168 10.3492 40.572 10.2885C40.6273 10.2277 40.7005 10.1858 40.7812 10.1688C40.8617 10.1516 40.9456 10.1601 41.0209 10.1932C41.0961 10.2263 41.1589 10.2822 41.2001 10.3529L42.1822 12.0405C42.2234 12.1112 42.2862 12.1671 42.3615 12.2002C42.4368 12.2333 42.5207 12.2419 42.6012 12.2247L44.5288 11.8158ZM25.9967 9.9136L28.0043 11.4064C28.5533 11.8139 29.1275 12.0219 29.8148 12.0593L32.3168 12.1965C33.813 12.2797 35.0326 13.2943 35.3721 14.7414L35.9463 17.1657C36.1014 17.8269 36.4073 18.355 36.9103 18.8207L38.7375 20.5215C39.8314 21.5403 40.108 23.0955 39.429 24.422L38.2975 26.6426C37.9915 27.2497 37.8826 27.8485 37.9664 28.5263L38.2639 30.9963C38.4399 32.4726 37.6478 33.8406 36.2648 34.427L33.9639 35.4042C33.3311 35.6703 32.8617 36.0654 32.4844 36.635L31.1141 38.7142C30.2925 39.9617 28.8006 40.4981 27.3631 40.0698L24.9616 39.3504C24.3078 39.1508 23.6918 39.1508 23.038 39.3504L20.6364 40.0698C19.1989 40.4981 17.707 39.9617 16.8855 38.7142L15.5151 36.635C15.1378 36.0654 14.6685 35.6703 14.0356 35.4042L11.7347 34.427C10.3558 33.8406 9.55961 32.4726 9.73558 30.9963L10.0331 28.5263C10.117 27.8485 10.008 27.2497 9.70202 26.6426L8.57049 24.422C7.89149 23.0955 8.16815 21.5403 9.26199 20.5215L11.0892 18.8207C11.5922 18.355 11.8982 17.8269 12.0533 17.1657L12.6274 14.7414C12.9669 13.2943 14.1865 12.2797 15.6827 12.1965L18.1847 12.0593C18.8721 12.0219 19.4504 11.8139 19.9952 11.4064L22.0028 9.9136C23.2056 9.0237 24.794 9.0237 25.9967 9.9136ZM30.8816 32.1036C32.878 30.2683 34.1275 27.6445 34.1275 24.7308C34.1275 19.1805 29.5937 14.6821 23.9998 14.6821C18.4058 14.6821 13.872 19.1805 13.872 24.7308C13.872 27.6445 15.1215 30.2683 17.1179 32.1036C17.853 29.0067 20.6558 26.7008 23.9998 26.7008C27.3437 26.7008 30.1465 29.0067 30.8816 32.1036ZM23.9998 25.7008C22.032 25.7008 20.4231 24.1045 20.4231 22.1521C20.4231 20.1996 22.032 18.6033 23.9998 18.6033C25.9675 18.6033 27.5765 20.1996 27.5765 22.1521C27.5765 24.1045 25.9675 25.7008 23.9998 25.7008Z" fill="white"/>
</svg>
