<svg width="60" height="44" viewBox="0 0 60 44" fill="none" xmlns="http://www.w3.org/2000/svg">
<path d="M28.4456 2.98554C29.7172 2.84313 30.989 2.98609 32.2606 3.55574C30.989 3.98298 29.7171 4.41022 28.4456 4.97987C27.1741 5.40709 25.902 5.97678 24.6306 6.40399C23.7829 6.68875 22.6529 6.97367 21.6641 7.11605C19.8276 7.40085 18.9798 8.25482 18.8384 9.82105C18.8384 10.9603 19.262 11.8154 19.9684 12.5274C21.6637 14.3787 23.783 14.6633 26.0434 14.3785C27.7389 14.0937 29.4351 13.9513 31.1306 13.6665C32.1193 13.5242 32.9667 13.8091 33.8142 14.3785C35.0858 15.233 36.3582 16.2299 37.4885 17.2268C41.0206 20.075 44.4113 22.7814 47.8021 25.6297C48.9321 26.484 49.2151 27.4807 48.7914 28.6198C48.3676 29.9013 47.2371 30.7558 45.9657 30.7559C45.542 30.7559 45.1182 30.6136 44.8357 30.329C42.8577 28.7625 41.0208 27.3379 39.1842 25.7715C39.0429 25.6291 38.9005 25.6288 38.7592 25.4864C38.3355 25.2019 37.9117 25.2026 37.6292 25.6297C37.3469 26.0568 37.3476 26.4834 37.7713 26.9105C38.3364 27.4801 38.9014 27.9074 39.6078 28.3346C40.3142 28.9043 41.1614 29.4751 41.8678 30.1871C42.9977 31.1839 43.1396 32.7496 42.0099 34.0311C41.021 35.3128 39.6072 35.4562 38.3356 34.4595C37.0641 33.4626 35.793 32.4649 34.6627 31.468C34.0977 31.0409 33.6736 31.041 33.2499 31.468C32.9673 31.8952 32.9676 32.3225 33.5327 32.8921C34.3803 33.6041 35.228 34.3169 36.0756 34.8864C37.0643 35.7409 37.3463 36.8801 36.6399 38.1617C36.0748 39.443 34.6628 40.1552 33.5327 39.8709C33.2502 39.8709 33.1083 39.7282 32.967 39.5858C31.978 38.8737 31.1297 38.1617 30.282 37.4496C29.7171 37.0226 29.2938 37.0225 29.0113 37.4496C28.7287 37.8768 28.729 38.3041 29.2941 38.8737C30.0002 39.4432 30.5652 40.0126 31.2713 40.4397C31.8363 40.8668 31.837 41.2944 31.837 41.8638C31.6957 42.8607 30.8474 43.8576 29.8584 44C29.4347 44 28.8694 44.001 28.4456 43.7163C27.598 42.8619 26.8919 42.2915 26.1855 41.722C27.7395 39.4435 26.6091 36.3104 23.3598 35.3134C23.6424 33.7469 23.3595 32.3227 22.3705 31.041C21.3816 29.9018 19.9688 29.3319 18.4148 29.3318C18.4147 27.9079 17.9906 26.6264 17.0019 25.6297C16.0129 24.6328 14.7405 24.205 13.3276 24.3474C13.3276 22.354 12.6218 20.93 10.9269 19.9332C9.37282 18.9363 7.67715 19.0787 5.98183 20.3601C5.69926 19.9329 5.27512 19.6475 4.99255 19.0778C5.98147 17.6539 7.11224 16.3727 8.10113 14.9487C10.9268 11.3884 13.6105 7.68483 16.4362 4.12456C16.7187 3.83983 16.861 3.6976 17.2848 3.6976C19.1212 3.69757 20.9576 3.55489 22.7941 3.4125C24.6308 3.27009 26.6089 2.98556 28.4456 2.98554ZM23.077 37.0226C23.9246 37.3075 24.6317 37.8766 25.0555 38.5886C25.4792 39.3005 25.3375 40.1552 24.7727 40.7248C24.3488 41.2944 23.7837 41.8649 23.3598 42.2922C23.0773 42.5768 22.6531 42.5764 22.3705 42.861C21.0991 42.7186 19.9691 41.7221 19.8276 40.5829C19.8276 40.2981 19.9692 39.7282 20.1105 39.5858C20.8168 38.7314 21.5234 38.0197 22.2298 37.3077C22.5124 37.0229 22.7944 37.0226 23.077 37.0226ZM18.8384 31.1829C20.6746 31.1833 22.2282 33.0346 21.8048 34.7432C21.6635 35.1704 21.5217 35.4564 21.2391 35.8836C20.5329 36.5955 19.9682 37.3079 19.2619 38.0198C18.2731 39.0164 17.425 39.3011 16.4362 38.7319C15.1648 38.3047 14.4584 37.1651 14.3169 35.8836C14.5995 35.314 14.7408 34.7443 15.0233 34.4595C15.8711 33.4626 16.7185 32.6076 17.5662 31.7531C17.8488 31.4683 18.4145 31.1829 18.8384 31.1829ZM11.7726 27.0538C12.479 26.1994 13.1854 25.7719 14.3155 26.0566C15.4458 26.3414 16.1531 27.0535 16.5769 28.1928C16.8594 29.0471 16.5762 29.9012 16.0112 30.4708C15.1635 31.3253 14.4568 32.1809 13.6091 33.0354C13.1853 33.4623 12.6199 33.6046 12.1962 33.8893C10.5009 33.8891 9.08849 32.4648 9.22977 30.7559C9.22984 30.1865 9.51161 29.6167 9.79409 29.3318C10.3592 28.4774 11.2075 27.9081 11.7726 27.0538ZM8.24048 21.0722C9.51206 20.7874 10.7839 21.6421 11.3491 22.7814C11.9141 23.9206 11.7737 24.9179 10.7847 25.9148C10.0784 26.7691 9.22972 27.4803 8.52333 28.3346C8.24088 28.7617 7.67638 28.9047 7.25258 28.9049C5.41608 28.9049 4.00311 27.4811 4.144 25.9148C4.144 25.3451 4.42577 24.7746 4.70832 24.3474C5.55603 23.3505 6.40487 22.4968 7.25258 21.6424C7.535 21.3577 7.95791 21.2145 8.24048 21.0722ZM42.8571 3.6976C43.2807 3.55528 43.4223 3.84019 43.5635 3.9827C45.5414 6.68836 47.5199 9.39396 49.4978 11.9572C51.1932 14.2357 52.7475 16.3724 54.4429 18.6509L55.0086 19.2211C53.3131 21.3572 51.0517 22.7817 48.5085 23.7786C48.3671 23.7782 48.0843 23.6357 47.8021 23.4935C43.9875 20.5029 40.3139 17.3691 36.4992 14.3785C36.0754 13.9515 35.51 13.6666 35.0863 13.2395C33.5324 12.1005 31.8375 11.6734 29.8598 12.1005C28.3057 12.3853 26.6097 12.6701 25.0555 12.8125C23.6427 12.9549 22.2295 12.6696 21.2405 11.5303C20.8169 11.1032 20.5346 10.5337 20.3933 9.9643C20.2521 9.39465 20.5346 8.96769 21.0998 8.82528H21.2405C24.6314 8.54045 27.5987 6.97308 30.707 5.83378C32.8261 5.12179 34.9453 4.97902 37.2056 4.83662C39.1835 4.69422 41.0205 4.55191 42.8571 3.6976ZM48.2257 0.137292C49.2145 -0.147367 50.0617 -0.00438389 50.9093 0.707497C51.6157 1.27715 52.182 1.84652 52.7471 2.55858C54.5838 4.97949 56.4199 7.5434 58.2565 9.9643C58.8216 10.6763 59.2455 11.5312 59.6694 12.3856C60.2342 13.5247 60.0938 14.6641 59.105 15.6608C58.2574 16.5152 57.2682 17.3696 56.2793 18.2239C52.3233 12.9547 48.5082 7.82776 44.6935 2.55858C45.8237 1.70414 46.8129 0.706906 48.2257 0.137292ZM9.09041 0.849353C10.2207 -0.147498 11.3516 -0.290212 12.4818 0.56425C13.612 1.13387 14.4594 1.84656 15.4483 2.55858C11.4923 7.8278 7.53707 12.9553 3.58106 18.0821C2.59215 17.2277 1.60248 16.5152 0.896064 15.6608C-0.0929421 14.6639 -0.234781 13.524 0.330366 12.2423C0.612933 11.6727 0.895797 11.1027 1.31965 10.5331C3.43888 7.68496 5.55915 4.83737 7.81966 2.13162C8.24346 1.70445 8.66662 1.27653 9.09041 0.849353Z" fill="white"/>
</svg>
