<svg width="60" height="60" viewBox="0 0 60 60" fill="none" xmlns="http://www.w3.org/2000/svg">
<path d="M35.6825 49.5471C36.1117 49.1175 36.398 49.1171 36.9702 49.2603C37.6854 49.5466 38.4004 49.6901 38.9725 50.1196C40.8321 51.2652 41.6902 52.9839 41.8332 55.1318V57.4219C41.8332 58.9969 40.8324 59.9998 39.2591 60H20.8057C19.0892 60 18.0877 58.9974 18.0877 57.2791V54.5581C18.3738 52.1241 19.6615 50.5495 21.8069 49.5471C22.9512 49.1175 23.6671 49.1164 24.8115 49.9756C27.9584 52.5531 32.6786 52.2676 35.6825 49.5471ZM54.1359 47.2559C54.2789 47.1127 54.5647 46.9687 54.7078 47.1118C55.8521 47.5414 56.9968 47.9709 57.8551 48.5437C59.2854 49.5461 60 51.1223 60 52.8406V55.4175C60 56.7063 58.9986 57.7084 57.7112 57.8516C53.2768 57.9947 48.6995 57.8516 44.1221 57.8516C44.1221 56.4199 44.1224 55.1313 43.9794 53.8428C43.5503 51.4084 42.2623 49.5468 39.9736 48.2581C39.8306 48.1149 39.6874 48.1144 39.5444 47.9712V47.8284C40.2595 47.542 40.9746 47.2551 41.5467 47.1118C41.6897 47.1118 42.1194 47.2555 42.2625 47.3987C45.2663 49.9761 49.4143 50.4054 52.7043 48.4009C53.2765 48.1145 53.7067 47.6855 54.1359 47.2559ZM17.6584 47.2559C17.9444 46.9696 18.2307 46.8258 18.6596 47.1118C19.2317 47.3982 19.804 47.542 20.5192 47.8284C16.5143 50.1195 15.6564 53.6991 16.0854 57.8516H2.78164C1.06538 57.8515 0.0638132 56.8498 0.0635762 55.1318C0.0635762 54.1294 -0.0794702 53.2692 0.0635762 52.2668C0.349771 49.8327 1.78108 48.2578 3.92667 47.3987C4.92758 46.9693 5.64264 46.9689 6.64351 47.6843C9.93345 50.2618 14.5114 49.9763 17.6584 47.2559ZM30.1025 36.3721C33.8217 36.3721 36.8263 39.3799 36.8263 43.103C36.8261 46.826 33.6785 49.8331 30.1025 49.6899C26.3835 49.6897 23.3795 46.682 23.5226 42.959C23.3798 39.2362 26.3836 36.2291 30.1025 36.3721ZM11.7931 34.0808C15.5123 34.0808 18.5165 36.9454 18.6596 40.8118C18.8024 44.5346 15.7985 47.5413 12.0796 47.5415C8.50348 47.5415 5.35581 44.6777 5.35581 40.9546C5.21279 37.2315 8.21694 34.224 11.7931 34.0808ZM48.2705 34.2249C51.9895 34.2251 54.8504 37.0888 54.8504 40.8118C54.8503 44.5346 51.8463 47.5412 48.2705 47.5415C44.5514 47.5415 41.5469 44.5348 41.5467 40.8118C41.5467 37.0886 44.5513 34.2249 48.2705 34.2249ZM35.8252 29.0698C36.1113 28.7835 36.3973 28.6398 36.8263 28.783C37.8276 29.2125 38.8288 29.6421 39.6871 30.2148C40.9745 31.074 41.5475 32.3628 41.6906 33.938C41.6906 34.2244 41.6897 34.5113 41.5467 34.6545C40.5456 36.2294 39.6879 37.8044 39.4017 39.6655C38.6866 39.8087 38.2575 39.6658 37.9714 38.9502C36.3979 35.7999 33.6797 34.0809 30.1037 34.0808C26.5276 34.0808 23.9527 35.7998 22.2361 38.9502C21.8071 39.666 21.5207 39.8086 20.8057 39.6655C20.5197 38.8064 20.3764 37.9474 19.9473 37.2314C19.5181 36.3723 18.946 35.7994 18.5169 34.9402C18.3739 34.6538 18.2303 34.2244 18.2303 33.938C18.5164 31.9332 19.6607 30.3575 21.5203 29.4983C21.6633 29.4983 21.8066 29.3556 21.9495 29.3555C23.0939 28.9259 23.8098 28.7831 24.9542 29.6423C28.2441 32.2194 32.8214 31.9334 35.8252 29.0698ZM32.6779 0C34.5375 0 35.8252 1.43226 35.8252 3.15063C35.8252 4.0096 35.9682 4.29651 36.8263 4.4397C38.829 5.01249 40.8321 5.8714 42.6917 6.87378C43.5496 7.30315 43.6924 7.30264 44.4074 6.58691C45.6948 5.29813 47.4123 5.29851 48.6997 6.44409C49.987 7.73275 51.2746 8.87855 52.4189 10.1672C53.563 11.456 53.5624 13.3174 52.275 14.4629C51.56 15.1787 51.5606 15.3225 51.9897 16.1816C52.9909 18.043 53.849 20.0475 54.4212 22.052C54.7073 22.9112 54.8503 23.0554 55.8516 23.0554C57.711 23.0554 58.9987 24.3435 58.9989 26.2048V31.3599C58.9989 33.2214 57.7112 34.5105 55.8516 34.5105C55.4226 34.5105 55.1366 34.6544 54.7078 34.6545C52.1329 32.077 48.9851 31.3609 45.2659 32.3633C46.2672 26.6354 44.9801 21.7659 40.9748 17.7563C37.6848 14.6061 33.8226 13.0315 29.2453 13.3179C19.5181 14.0339 12.7947 23.055 14.9404 32.5061C11.2212 31.5037 8.07452 32.2199 5.4997 34.7974C4.92773 34.7974 4.49831 34.6546 4.06934 34.6545C2.49583 34.6545 1.06471 33.3647 1.06471 31.7896V26.3489C1.06471 24.6305 2.49583 23.4843 4.06934 23.3411C5.21311 23.341 5.21342 23.198 5.64237 22.196C6.35761 20.3345 7.21598 18.3289 7.93121 16.4673C8.36015 15.4653 8.35977 15.3216 7.64465 14.6057C6.35766 13.3169 6.35773 11.4555 7.50197 10.3101C8.93239 9.02132 10.2204 7.87566 11.5077 6.58691C12.7951 5.44172 14.6546 5.4413 15.7988 6.72974C16.5141 7.44573 16.6575 7.4462 17.5158 7.0166C19.3752 6.01436 21.3775 5.15526 23.3799 4.58252C24.2381 4.29615 24.381 4.15277 24.381 3.15063C24.381 1.43229 25.6688 5.84954e-05 27.5283 0H32.6779ZM30.1037 16.0376C33.8227 16.0379 36.8263 19.0456 36.8263 22.7686C36.8263 26.3483 33.8227 29.3552 30.1037 29.3555C26.3847 29.3555 23.3802 26.3487 23.3799 22.6257C23.3799 18.9026 26.3845 15.8944 30.1037 16.0376Z" fill="white"/>
</svg>
