<svg width="60" height="42" viewBox="0 0 60 42" fill="none" xmlns="http://www.w3.org/2000/svg">
<mask id="mask0_40003489_37986" style="mask-type:luminance" maskUnits="userSpaceOnUse" x="0" y="0" width="60" height="42">
<path d="M60 0H0V42H60V0Z" fill="white"/>
</mask>
<g mask="url(#mask0_40003489_37986)">
<path d="M54.0641 14.8234C54.0641 15.2135 54.0641 15.6036 53.9351 16.1237C53.806 16.5138 53.677 16.9039 53.548 17.294C53.4189 17.6841 53.1609 18.0742 52.9028 18.3343C52.6448 18.7244 52.3867 18.9844 52.1286 19.2445C51.8706 19.5045 51.4835 19.7646 51.2254 20.0247C50.8383 20.2847 50.5802 20.4148 50.1931 20.6748C49.806 20.8048 49.4189 20.9349 49.0319 21.0649C48.6448 21.1949 48.2577 21.1949 47.7415 21.1949C47.3544 21.1949 46.9673 21.1949 46.4512 21.0649C46.0641 20.9349 45.677 20.8048 45.2899 20.6748C44.9028 20.5448 44.5157 20.2847 44.2577 20.0247C43.8706 19.7646 43.6125 19.5045 43.3544 19.2445C43.0964 18.9844 42.8383 18.5943 42.5802 18.3343C42.3222 18.0742 42.1931 17.6841 41.9351 17.294C41.806 16.9039 41.677 16.5138 41.548 16.1237C41.4189 15.7336 41.4189 15.3435 41.4189 14.8234C41.4189 14.4333 41.4189 14.0432 41.548 13.5231C41.677 13.133 41.806 12.7429 41.9351 12.3528C42.0641 11.9627 42.3222 11.5726 42.5802 11.3126C42.8383 10.9225 43.0964 10.6624 43.3544 10.4024C43.6125 10.1423 43.9996 9.88225 44.2577 9.62218C44.6448 9.36212 45.0318 9.23209 45.2899 8.97203C45.548 8.71197 46.0641 8.71197 46.4512 8.58194C46.8383 8.4519 47.2254 8.4519 47.7415 8.4519C48.1286 8.4519 48.5157 8.4519 49.0319 8.58194C49.4189 8.71197 49.806 8.842 50.1931 8.97203C50.5802 9.10206 50.9673 9.36212 51.2254 9.62218C51.6125 9.88225 51.8706 10.1423 52.1286 10.4024C52.3867 10.6624 52.6448 11.0525 52.9028 11.3126C53.1609 11.7027 53.2899 11.9627 53.548 12.3528C53.677 12.7429 53.806 13.133 53.9351 13.5231C53.9351 13.9132 54.0641 14.3033 54.0641 14.8234Z" fill="white"/>
</g>
<mask id="mask1_40003489_37986" style="mask-type:luminance" maskUnits="userSpaceOnUse" x="0" y="0" width="60" height="42">
<path d="M60 0H0V42H60V0Z" fill="white"/>
</mask>
<g mask="url(#mask1_40003489_37986)">
<path d="M5.41968 14.8236C5.41968 15.2137 5.41968 15.6038 5.54871 16.1239C5.67774 16.644 5.80677 16.9041 5.93581 17.2942C6.06484 17.6843 6.3229 18.0743 6.58097 18.3344C6.83903 18.5945 7.0971 18.9846 7.35516 19.2446C7.61323 19.5047 8.00032 19.7647 8.25839 20.0248C8.64548 20.2849 8.90355 20.4149 9.29065 20.675C9.67774 20.805 10.0648 20.935 10.4519 21.0651C10.839 21.1951 11.2261 21.1951 11.7423 21.1951C12.1294 21.1951 12.5165 21.1951 13.0326 21.0651C13.4197 20.935 13.8068 20.805 14.1939 20.675C14.581 20.5449 14.9681 20.2849 15.2261 20.0248C15.6132 19.7647 15.8713 19.5047 16.1294 19.2446C16.3874 18.9846 16.6455 18.5945 16.9035 18.3344C17.1616 18.0743 17.2906 17.6843 17.5487 17.2942C17.6777 16.9041 17.8068 16.514 17.9358 16.1239C18.0648 15.7338 18.0648 15.3437 18.0648 14.8236C18.0648 14.4335 18.0648 14.0434 17.9358 13.5233C17.8068 13.0031 17.6777 12.7431 17.5487 12.353C17.4197 11.9629 17.1616 11.5728 16.9035 11.3127C16.6455 11.0527 16.3874 10.6626 16.1294 10.4025C15.8713 10.1425 15.4842 9.88239 15.2261 9.62233C14.9681 9.23224 14.581 9.10221 14.1939 8.84215C13.8068 8.58208 13.4197 8.58208 13.0326 8.45205C12.6455 8.32202 12.2584 8.32202 11.7423 8.32202C11.3552 8.32202 10.9681 8.32202 10.4519 8.45205C9.93581 8.58208 9.80678 8.71211 9.41968 8.84215C9.03258 9.10221 8.64548 9.23224 8.25839 9.4923C7.87129 9.75236 7.61323 10.0124 7.35516 10.2725C7.0971 10.5325 6.71 10.9226 6.58097 11.1827C6.3229 11.5728 6.06484 11.9629 5.93581 12.353C5.80677 12.7431 5.67774 13.1332 5.54871 13.5233C5.54871 13.9134 5.41968 14.3034 5.41968 14.8236Z" fill="white"/>
</g>
<mask id="mask2_40003489_37986" style="mask-type:luminance" maskUnits="userSpaceOnUse" x="0" y="0" width="60" height="42">
<path d="M60 0H0V42H60V0Z" fill="white"/>
</mask>
<g mask="url(#mask2_40003489_37986)">
<path d="M16.2576 6.37152C16.2576 6.76161 16.2576 7.1517 16.3866 7.67183C16.5156 8.06192 16.6447 8.45201 16.7737 8.84211C16.9027 9.2322 17.1608 9.62229 17.4189 9.88235C17.6769 10.2724 17.935 10.5325 18.1931 10.7926C18.4511 11.0526 18.8382 11.3127 19.0963 11.5728C19.4834 11.8328 19.7414 11.9628 20.1285 12.2229C20.5156 12.3529 20.9027 12.483 21.2898 12.613C21.6769 12.743 22.064 12.743 22.5801 12.743C22.9672 12.743 23.3543 12.743 23.8705 12.613C24.2576 12.483 24.6447 12.3529 25.0318 12.2229C25.4189 12.0929 25.806 11.9628 26.064 11.7028C26.3221 11.4427 26.7092 11.1827 26.9672 10.9226C27.2253 10.6625 27.4834 10.2724 27.7414 10.0124C27.9995 9.75232 28.1285 9.36223 28.3866 8.97214C28.5156 8.58204 28.6447 8.19195 28.7737 7.80186C28.9027 7.41177 28.9027 7.02167 28.9027 6.50155C28.9027 6.11146 28.9027 5.72136 28.7737 5.20124C28.6447 4.68111 28.6447 4.29102 28.5156 3.90093C28.3866 3.51084 28.1285 3.12074 27.8705 2.86068C27.6124 2.60062 27.3543 2.21053 27.0963 1.82043C26.8382 1.56037 26.4511 1.30031 26.1931 1.04025C25.806 0.780186 25.4189 0.650155 25.1608 0.390093C24.7737 0.260062 24.3866 0.130031 23.9995 0C23.4834 0 23.0963 0 22.5801 0C22.1931 0 21.806 0 21.2898 0.130031C20.9027 0.260062 20.5156 0.390093 20.1285 0.520124C19.7414 0.650155 19.3543 0.910217 19.0963 1.17028C18.7092 1.43034 18.4511 1.6904 18.1931 1.95046C17.935 2.21053 17.6769 2.60062 17.4189 2.86068C17.1608 3.12074 16.9027 3.51084 16.7737 3.90093C16.6447 4.29102 16.5156 4.68111 16.3866 5.07121C16.3866 5.59133 16.2576 5.98142 16.2576 6.37152Z" fill="white"/>
</g>
<mask id="mask3_40003489_37986" style="mask-type:luminance" maskUnits="userSpaceOnUse" x="0" y="0" width="60" height="42">
<path d="M60 0H0V42H60V0Z" fill="white"/>
</mask>
<g mask="url(#mask3_40003489_37986)">
<path d="M43.226 6.37152C43.226 6.76161 43.226 7.1517 43.0969 7.67183C42.9679 8.06192 42.8389 8.45201 42.7098 8.84211C42.5808 9.2322 42.3227 9.62229 42.0647 9.88235C41.8066 10.2724 41.5486 10.5325 41.2905 10.7926C41.0324 11.0526 40.6453 11.3127 40.3873 11.5728C40.0002 11.8328 39.7421 11.9628 39.355 12.2229C38.9679 12.3529 38.5808 12.483 38.1937 12.613C37.8066 12.743 37.4195 12.743 36.9034 12.743C36.5163 12.743 36.1292 12.743 35.6131 12.613C35.226 12.483 34.8389 12.3529 34.4518 12.2229C34.0647 12.0929 33.6776 11.8328 33.4195 11.5728C33.1615 11.3127 32.7744 11.0526 32.5163 10.7926C32.2582 10.5325 32.0002 10.1424 31.7421 9.88235C31.484 9.49226 31.355 9.2322 31.0969 8.84211C30.9679 8.45201 30.8389 8.06192 30.7098 7.67183C30.5808 7.28173 30.5808 6.89164 30.5808 6.37152C30.5808 5.98142 30.5808 5.59133 30.7098 5.07121C30.7098 4.68111 30.8389 4.29102 30.9679 3.90093C31.0969 3.51084 31.355 3.12074 31.6131 2.86068C31.8711 2.60062 32.1292 2.21053 32.3873 1.95046C32.6453 1.6904 33.0324 1.43034 33.2905 1.17028C33.6776 0.910217 34.0647 0.780186 34.3227 0.520124C34.7098 0.390093 35.0969 0.260062 35.484 0.130031C36.0002 0 36.3873 0 36.9034 0C37.2905 0 37.6776 0 38.1937 0.130031C38.5808 0.260062 38.9679 0.390093 39.355 0.520124C39.7421 0.650155 40.1292 0.910217 40.3873 1.17028C40.7744 1.30031 41.0324 1.56037 41.2905 1.82043C41.5486 2.0805 41.8066 2.47059 42.0647 2.73065C42.3227 3.12074 42.5808 3.51084 42.7098 3.90093C42.8389 4.29102 42.9679 4.68111 43.0969 5.07121C43.0969 5.59133 43.226 5.98142 43.226 6.37152Z" fill="white"/>
</g>
<mask id="mask4_40003489_37986" style="mask-type:luminance" maskUnits="userSpaceOnUse" x="0" y="0" width="60" height="42">
<path d="M60 0H0V42H60V0Z" fill="white"/>
</mask>
<g mask="url(#mask4_40003489_37986)">
<path d="M35.9994 20.1547C35.9994 20.5448 35.9994 20.9349 35.8704 21.455C35.7413 21.8451 35.6123 22.2352 35.4833 22.6253C35.3542 23.0154 35.0962 23.4055 34.8381 23.6656C34.5801 24.0557 34.322 24.3157 34.0639 24.5758C33.8059 24.8358 33.4188 25.0959 33.1607 25.356C32.7736 25.616 32.5155 25.7461 32.1284 26.0061C31.7413 26.1361 31.3542 26.2662 30.9672 26.3962C30.5801 26.5262 30.193 26.5262 29.6768 26.5262C29.2897 26.5262 28.9026 26.5262 28.3865 26.3962C27.9994 26.2662 27.6123 26.1361 27.2252 26.0061C26.8381 25.8761 26.451 25.616 26.193 25.356C25.9349 25.0959 25.5478 24.8358 25.2897 24.5758C25.0317 24.3157 24.7736 23.9256 24.5155 23.6656C24.2575 23.2755 24.1284 23.0154 23.8704 22.6253C23.6123 22.2352 23.6123 21.8451 23.4833 21.455C23.3542 21.0649 23.3542 20.6748 23.3542 20.1547C23.3542 19.6346 23.3542 19.3745 23.4833 18.8544C23.6123 18.3343 23.7413 18.0742 23.8704 17.6841C23.9994 17.294 24.2575 16.9039 24.5155 16.6439C24.7736 16.3838 25.0317 15.9937 25.2897 15.7337C25.5478 15.4736 25.9349 15.2135 26.193 14.9535C26.451 14.6934 26.8381 14.5634 27.2252 14.3033C27.6123 14.1733 27.9994 14.0433 28.3865 13.9132C28.7736 13.7832 29.1607 13.7832 29.6768 13.7832C30.0639 13.7832 30.451 13.7832 30.9672 13.9132C31.4833 14.0433 31.7413 14.1733 32.1284 14.3033C32.5155 14.4334 32.9026 14.6934 33.1607 14.9535C33.5478 15.2135 33.8059 15.4736 34.0639 15.7337C34.322 15.9937 34.5801 16.3838 34.8381 16.6439C35.0962 17.034 35.2252 17.4241 35.4833 17.6841C35.6123 18.0742 35.7413 18.4643 35.8704 18.8544C35.9994 19.3745 36.1284 19.7646 35.9994 20.1547Z" fill="white"/>
</g>
<mask id="mask5_40003489_37986" style="mask-type:luminance" maskUnits="userSpaceOnUse" x="0" y="0" width="60" height="42">
<path d="M60 0H0V42H60V0Z" fill="white"/>
</mask>
<g mask="url(#mask5_40003489_37986)">
<path d="M16.1293 36.0185C16.1293 31.0773 18.4518 27.0464 22.1938 25.2259C21.6777 24.1857 20.9035 23.2755 20.0002 22.6253C19.097 21.8451 18.0648 21.455 17.0325 21.0649H16.9035C16.7744 21.0649 16.6454 21.0649 16.5164 21.195C16.2583 21.325 16.0002 21.5851 15.7422 21.7151C14.968 22.2352 13.9357 24.3157 11.097 24.3157C8.2583 24.3157 8.12927 22.4953 7.61314 21.7151C7.48411 21.455 7.35507 21.325 7.09701 21.195C6.96798 21.0649 6.83895 21.0649 6.70991 21.0649H6.58088C2.32282 22.2352 0.258301 26.2662 0.258301 30.6872V36.0185C0.258301 36.1485 0.387333 36.4086 0.387333 36.5386C0.387333 36.6687 0.645398 36.6687 0.903462 36.6687H16.1293V36.0185Z" fill="white"/>
</g>
<mask id="mask6_40003489_37986" style="mask-type:luminance" maskUnits="userSpaceOnUse" x="0" y="0" width="60" height="42">
<path d="M60 0H0V42H60V0Z" fill="white"/>
</mask>
<g mask="url(#mask6_40003489_37986)">
<path d="M52.9037 21.0649H52.7746C52.6456 21.0649 52.5166 21.0649 52.3875 21.195C52.1295 21.325 52.0005 21.5851 51.8714 21.7151C51.4843 22.4953 51.2263 24.3157 48.3875 24.3157C45.5488 24.3157 44.3875 22.3653 43.7424 21.7151C43.4843 21.455 43.2263 21.325 42.9682 21.195C42.8392 21.0649 42.7101 21.0649 42.5811 21.0649H42.4521C41.2908 21.325 40.3875 21.8451 39.4843 22.6253C38.5811 23.4055 37.9359 24.1857 37.2908 25.2259C41.0327 27.0464 43.3553 31.0773 43.3553 36.0185V36.5386H58.5811C58.7101 36.5386 58.9682 36.4086 59.0972 36.4086C59.2263 36.2786 59.2263 36.1485 59.3553 35.8885V30.5572C59.3553 26.1361 57.1617 22.2352 52.9037 21.0649Z" fill="white"/>
</g>
<mask id="mask7_40003489_37986" style="mask-type:luminance" maskUnits="userSpaceOnUse" x="0" y="0" width="60" height="42">
<path d="M60 0H0V42H60V0Z" fill="white"/>
</mask>
<g mask="url(#mask7_40003489_37986)">
<path d="M18.7096 42.0001C18.5806 42.0001 18.3225 42.0001 18.1935 41.87C18.1935 41.61 18.0645 41.4799 18.0645 41.3499V36.0186C18.0645 31.5976 20.258 27.6966 24.5161 26.5264H24.6451C24.7741 26.5264 24.9032 26.5264 25.0322 26.6564C25.2903 26.7864 25.5483 27.0465 25.8064 27.1765C26.5806 27.8267 27.6128 29.7771 30.4516 29.7771C33.2903 29.7771 33.4193 27.9567 33.9354 27.1765C34.0645 26.9165 34.1935 26.7864 34.4516 26.6564C34.5806 26.5264 34.7096 26.5264 34.8386 26.5264H34.9677C39.2257 27.6966 41.4193 31.5976 41.4193 36.0186V41.3499C41.4193 41.4799 41.2903 41.74 41.1612 41.87C41.0322 42.0001 40.9032 42.0001 40.6451 42.0001H18.7096Z" fill="white"/>
</g>
</svg>
