<svg width="48" height="46" viewBox="0 0 48 46" fill="none" xmlns="http://www.w3.org/2000/svg">
<path d="M47.8702 5.26511C47.6577 5.56511 47.4202 5.84011 47.2202 6.15261C47.1327 6.29011 47.0702 6.49011 47.0702 6.65261C47.0577 8.3651 47.0702 10.0776 47.0577 11.8026C47.0577 12.0151 47.0577 12.3026 46.9452 12.4151C46.7702 12.5901 46.4702 12.7276 46.2327 12.7151C45.8952 12.6901 45.7077 12.4026 45.7077 12.0526C45.7077 11.0526 45.7077 10.0526 45.7077 9.0651C45.7077 8.2526 45.7202 7.44011 45.6952 6.62761C45.6952 6.44011 45.5827 6.21511 45.4577 6.09011C44.7202 5.41511 44.7202 4.44011 45.4577 3.75261C45.5952 3.62761 45.6952 3.39011 45.6952 3.21511C45.7202 2.47761 45.7077 1.75261 45.7077 1.01511C45.7077 0.515112 45.9577 0.227613 46.3577 0.215113C46.7827 0.202613 47.0452 0.490112 47.0577 1.02761C47.0702 1.77761 47.0577 2.52761 47.0702 3.27761C47.0702 3.41511 47.1202 3.57761 47.2077 3.69011C47.4202 4.01511 47.6452 4.31511 47.8702 4.61511C47.8702 4.82761 47.8702 5.05261 47.8702 5.26511Z" fill="white"/>
<path d="M9.17011 41.2026C8.18262 37.8401 7.20762 34.5151 6.24512 31.1901C6.27012 31.1526 6.28262 31.1026 6.29512 31.1026C8.33262 30.4651 10.3451 29.7901 12.3951 29.1901C13.4201 28.8901 14.4701 29.0276 15.4576 29.4651C18.1576 30.6651 20.8451 31.8901 23.5701 33.0776C24.9951 33.6901 25.5201 35.7651 24.8201 37.0026C24.2951 37.9401 23.2576 38.2526 21.9951 37.7901C20.3201 37.1776 18.6451 36.5401 16.9701 35.9026C16.7826 35.8276 16.5951 35.7401 16.3951 35.7026C16.0451 35.6276 15.7576 35.7651 15.6326 36.0901C15.4951 36.4276 15.5701 36.7401 15.9076 36.9401C16.0701 37.0401 16.2451 37.0901 16.4201 37.1651C18.0701 37.7776 19.7201 38.3901 21.3576 39.0151C22.1451 39.3151 22.9576 39.4651 23.7826 39.2901C25.1701 39.0026 26.0201 38.1151 26.3451 36.7526C26.4451 36.3276 26.6326 36.1526 27.0326 36.0151C30.8951 34.6651 34.7576 33.3026 38.6201 31.9401C39.4951 31.6276 40.1576 31.8651 40.5951 32.6526C41.0576 33.4901 40.9326 34.3151 40.1951 34.8651C39.7826 35.1651 39.3201 35.4026 38.8701 35.6401C33.7826 38.2401 28.6826 40.8151 23.6201 43.4651C22.2826 44.1651 20.9951 44.2776 19.6201 43.7901C17.4451 43.0151 15.2826 42.2276 13.1201 41.4401C13.1076 41.4401 13.0951 41.4276 13.0826 41.4151C11.9076 40.8276 10.7076 40.6151 9.45761 41.1901C9.38261 41.2026 9.29511 41.1901 9.17011 41.2026Z" fill="white"/>
<path d="M28.0076 26.515C25.1701 26.4525 22.7951 26.3776 20.4701 25.7526C19.9326 25.6026 19.4076 25.4026 18.9076 25.1401C18.0951 24.7151 17.6951 23.9526 17.7826 23.0901C17.9701 21.3776 18.1326 19.6401 18.7701 18.0151C19.5826 15.9401 20.8576 14.2401 22.9951 13.3901C23.7076 13.1151 24.4951 12.9526 25.2576 12.9151C26.8576 12.8401 28.4701 12.8526 30.0701 12.9026C32.6326 12.9776 34.4701 14.2901 35.7951 16.4026C36.6576 17.7901 37.0576 19.3401 37.2826 20.9401C37.3576 21.4901 37.4451 22.0526 37.5326 22.6026C37.7451 23.8651 37.2451 24.8026 36.0701 25.3151C34.6326 25.9401 33.1076 26.1401 31.5701 26.2901C30.2451 26.4151 28.9076 26.4651 28.0076 26.515Z" fill="white"/>
<path d="M32.47 4.8401C32.4325 6.4651 32.1825 7.8151 31.495 9.0526C30.8325 10.2401 29.8825 11.1276 28.52 11.4276C27.0575 11.7526 25.7575 11.3276 24.7825 10.2401C22.995 8.2526 22.495 5.8526 23.17 3.31511C23.77 1.05261 26.1575 -0.322391 28.42 0.0651089C30.895 0.490109 32.5325 2.50261 32.47 4.8401Z" fill="white"/>
<path d="M4.15756 29.265C4.22006 29.3775 4.32006 29.515 4.37006 29.665C4.94506 31.615 5.52006 33.5775 6.09506 35.5275C6.89506 38.265 7.68256 40.99 8.49506 43.715C8.59506 44.065 8.54506 44.2025 8.18256 44.3025C7.03256 44.615 5.88256 44.9525 4.73256 45.315C4.40756 45.415 4.27006 45.365 4.17006 45.0275C2.80756 40.3025 1.42006 35.59 0.0450644 30.8775C-0.0299355 30.6275 -0.0424355 30.4775 0.257564 30.39C1.48256 30.04 2.70756 29.6775 3.93256 29.315C3.97006 29.3025 4.00756 29.29 4.15756 29.265ZM2.60756 30.9025C2.23256 30.89 1.92006 31.1775 1.92006 31.565C1.92006 31.9525 2.19506 32.265 2.57006 32.2775C2.94506 32.29 3.25756 31.99 3.25756 31.615C3.27006 31.215 2.98256 30.915 2.60756 30.9025Z" fill="white"/>
<path d="M42.7951 4.16514C42.7951 5.17764 42.7826 6.19014 42.8076 7.20264C42.8076 7.40264 42.9201 7.65264 43.0576 7.79014C43.7576 8.46514 43.7576 9.41514 43.0326 10.0901C42.9076 10.2026 42.8076 10.4151 42.7951 10.5901C42.7576 11.0401 42.7951 11.4901 42.7826 11.9401C42.7701 12.4651 42.5076 12.7526 42.0701 12.7401C41.6701 12.7276 41.4201 12.4276 41.4076 11.9401C41.3951 11.6401 41.3951 11.3526 41.4076 11.0526C41.4201 10.6026 41.3951 10.2276 40.9826 9.86514C40.3826 9.32764 40.5201 8.36514 41.1201 7.77764C41.2701 7.64014 41.3826 7.40264 41.3826 7.20264C41.4076 5.16514 41.3826 3.11515 41.4076 1.07765C41.4076 0.815149 41.5701 0.452649 41.7701 0.302649C42.1951 -0.0223506 42.7451 0.352649 42.7576 0.977648C42.8076 2.04015 42.7951 3.10265 42.7951 4.16514Z" fill="white"/>
<path d="M37.1327 8.84014C37.1327 7.84014 37.1452 6.84014 37.1202 5.85264C37.1202 5.65264 37.0077 5.40264 36.8702 5.26514C36.1577 4.59014 36.1702 3.62764 36.8827 2.96514C37.0077 2.85264 37.1077 2.64014 37.1202 2.46514C37.1577 1.99014 37.1202 1.50264 37.1327 1.01515C37.1452 0.490146 37.4202 0.190146 37.8327 0.202646C38.2327 0.215146 38.4827 0.515146 38.4952 1.00265C38.5077 1.27765 38.4952 1.56514 38.4952 1.84014C38.4827 2.34014 38.4827 2.79014 38.9452 3.20264C39.5327 3.72764 39.3702 4.67764 38.7702 5.24014C38.6202 5.37764 38.5077 5.61514 38.5077 5.81514C38.4827 7.76514 38.4952 9.71514 38.4952 11.6651C38.4952 11.8026 38.5077 11.9526 38.4827 12.0901C38.4327 12.4776 38.2202 12.7276 37.8077 12.7276C37.3952 12.7276 37.1577 12.4901 37.1327 12.1026C37.0952 11.6401 37.1202 11.1651 37.1202 10.7026C37.1327 10.0901 37.1327 9.46514 37.1327 8.84014Z" fill="white"/>
<path d="M19.2202 9.04009C17.6577 9.36508 16.7452 10.2526 16.3452 11.8526C15.9452 10.2901 15.0452 9.36508 13.4702 9.05258C15.0077 8.70259 15.9577 7.82759 16.3452 6.21509C16.7327 7.81509 17.6702 8.71509 19.2202 9.04009Z" fill="white"/>
<path d="M8.78271 15.9776C10.0202 15.6776 10.7702 14.9776 11.0577 13.6776C11.3702 14.9401 12.0952 15.6776 13.3577 15.9776C12.0952 16.2651 11.3702 17.0026 11.0577 18.2651C10.7577 16.9901 10.0327 16.2651 8.78271 15.9776Z" fill="white"/>
</svg>
