<svg width="34" height="34" viewBox="0 0 34 34" fill="none" xmlns="http://www.w3.org/2000/svg">
<rect x="6.95649" y="1.3913" width="25.0435" height="25.0435" rx="4.17391" stroke="url(#paint0_linear_40006298_29034)" stroke-width="2.78261"/>
<rect x="6.95649" y="1.3913" width="25.0435" height="25.0435" rx="4.17391" stroke="url(#paint1_linear_40006298_29034)" stroke-width="2.78261"/>
<path d="M1.39136 6.95703V23.6527C1.39136 28.2631 5.12881 32.0005 9.73918 32.0005H26.4348" stroke="url(#paint2_linear_40006298_29034)" stroke-width="2.78261" stroke-linecap="round"/>
<path d="M1.39136 6.95703V23.6527C1.39136 28.2631 5.12881 32.0005 9.73918 32.0005H26.4348" stroke="url(#paint3_linear_40006298_29034)" stroke-width="2.78261" stroke-linecap="round"/>
<path d="M18.8995 21.1948C16.4063 21.1948 14.5364 19.8118 13.8936 18.0003L17.0491 16.7927C17.2828 17.6497 17.7698 18.0783 18.6268 18.0783C19.2307 18.0783 19.8345 17.6887 19.8345 16.8317C19.8345 16.111 19.328 15.5656 18.3541 15.5656H17.5555V12.8191H18.5879C19.2891 12.8191 19.7371 12.3906 19.7371 11.7283C19.7371 11.0271 19.2696 10.5986 18.5879 10.5986C17.9451 10.5986 17.575 10.9103 17.3218 11.592L14.4195 10.0532C14.9649 8.53391 16.679 7.42365 18.6853 7.42365C21.1785 7.42365 23.1653 8.74817 23.1653 11.0661C23.1653 12.3517 22.5614 13.384 21.5486 14.0657V14.1242C22.8147 14.7085 23.5938 15.7798 23.5938 17.3186C23.5938 19.7144 21.607 21.1948 18.8995 21.1948Z" fill="url(#paint4_linear_40006298_29034)"/>
<path d="M18.8995 21.1948C16.4063 21.1948 14.5364 19.8118 13.8936 18.0003L17.0491 16.7927C17.2828 17.6497 17.7698 18.0783 18.6268 18.0783C19.2307 18.0783 19.8345 17.6887 19.8345 16.8317C19.8345 16.111 19.328 15.5656 18.3541 15.5656H17.5555V12.8191H18.5879C19.2891 12.8191 19.7371 12.3906 19.7371 11.7283C19.7371 11.0271 19.2696 10.5986 18.5879 10.5986C17.9451 10.5986 17.575 10.9103 17.3218 11.592L14.4195 10.0532C14.9649 8.53391 16.679 7.42365 18.6853 7.42365C21.1785 7.42365 23.1653 8.74817 23.1653 11.0661C23.1653 12.3517 22.5614 13.384 21.5486 14.0657V14.1242C22.8147 14.7085 23.5938 15.7798 23.5938 17.3186C23.5938 19.7144 21.607 21.1948 18.8995 21.1948Z" fill="url(#paint5_linear_40006298_29034)"/>
<defs>
<linearGradient id="paint0_linear_40006298_29034" x1="19.4782" y1="0" x2="19.4782" y2="27.8261" gradientUnits="userSpaceOnUse">
<stop stop-color="#1B8FF3"/>
<stop offset="1" stop-color="#1B8FF3"/>
</linearGradient>
<linearGradient id="paint1_linear_40006298_29034" x1="19.4782" y1="0" x2="19.4782" y2="27.8261" gradientUnits="userSpaceOnUse">
<stop stop-color="#1B8FF3"/>
<stop offset="1" stop-color="#0064BA"/>
</linearGradient>
<linearGradient id="paint2_linear_40006298_29034" x1="13.9131" y1="6.95703" x2="13.9131" y2="32.0005" gradientUnits="userSpaceOnUse">
<stop stop-color="#1B8FF3"/>
<stop offset="1" stop-color="#1B8FF3"/>
</linearGradient>
<linearGradient id="paint3_linear_40006298_29034" x1="13.9131" y1="6.95703" x2="13.9131" y2="32.0005" gradientUnits="userSpaceOnUse">
<stop stop-color="#1B8FF3"/>
<stop offset="1" stop-color="#0064BA"/>
</linearGradient>
<linearGradient id="paint4_linear_40006298_29034" x1="19.4131" y1="0" x2="19.4131" y2="27" gradientUnits="userSpaceOnUse">
<stop stop-color="#1B8FF3"/>
<stop offset="1" stop-color="#1B8FF3"/>
</linearGradient>
<linearGradient id="paint5_linear_40006298_29034" x1="19.4131" y1="0" x2="19.4131" y2="27" gradientUnits="userSpaceOnUse">
<stop stop-color="#1B8FF3"/>
<stop offset="1" stop-color="#0064BA"/>
</linearGradient>
</defs>
</svg>
