<svg width="32" height="32" viewBox="0 0 32 32" fill="none" xmlns="http://www.w3.org/2000/svg">
<path d="M9.43945 21.9902C9.79987 21.9902 9.96775 22.1414 10.0684 22.4766C10.5211 23.9101 11.9972 24.7152 13.4727 24.3799C13.5983 24.3465 13.7906 24.3715 13.8828 24.4551C13.9414 24.5053 13.9086 24.7146 13.8584 24.832C12.8776 26.9865 11.8877 29.1414 10.8984 31.2959C10.8482 31.3881 10.798 31.4806 10.7227 31.6396C10.5215 30.9355 10.3538 30.3152 10.1777 29.6865C10.0017 29.0661 9.82506 28.4453 9.64062 27.7998C8.58441 28.0429 7.55337 28.2778 6.43848 28.5293C7.46122 26.3078 8.45024 24.1447 9.43945 21.9902ZM25.4863 28.5381C24.3881 28.2866 23.3563 28.0513 22.2832 27.7998C21.9227 29.0657 21.5706 30.3152 21.1934 31.623C21.1263 31.4973 21.0765 31.4217 21.043 31.3379C20.0453 29.1666 19.0474 26.9952 18.0498 24.8154C17.9996 24.7065 17.9746 24.5226 18.0332 24.4639C18.1087 24.3884 18.2928 24.3547 18.4102 24.3799C19.9946 24.7404 21.4707 23.8767 21.915 22.3174C21.9737 22.091 21.9736 22.0914 22.4766 21.9824C23.4741 24.1536 24.4636 26.3166 25.4863 28.5381ZM14.6211 8.29199C15.3588 7.56263 16.5664 7.57866 17.3125 8.31641C17.7065 8.71043 18.109 8.81187 18.6455 8.67773C19.7185 8.40961 20.7413 9.01256 21.0264 10.0771C21.1605 10.5716 21.4368 10.8648 21.9395 10.999C23.0209 11.2841 23.6247 12.316 23.3564 13.3975C23.2224 13.9171 23.3234 14.3195 23.709 14.7051C24.48 15.4763 24.4717 16.6916 23.6924 17.4629C23.332 17.8233 23.223 18.2174 23.3486 18.7119C23.684 20.0533 22.7446 21.2271 21.3613 21.2188C21.2776 21.2355 21.2023 21.2354 21.127 21.2354C21.1018 21.5118 21.1015 21.7804 21.043 22.0234C20.8083 23.0964 19.7521 23.7675 18.6875 23.4912C18.1342 23.3487 17.7057 23.4574 17.2949 23.8682C16.5572 24.6057 15.3506 24.5971 14.6045 23.8594C14.2021 23.4571 13.7826 23.3571 13.2461 23.4912C12.2149 23.7594 11.1751 23.1556 10.8984 22.1328C10.7559 21.5963 10.4623 21.3032 9.92578 21.1523C8.89482 20.8755 8.2919 19.8436 8.55176 18.8125C8.69407 18.2594 8.58449 17.8316 8.17383 17.4209C7.43653 16.6832 7.44476 15.4765 8.19043 14.7305C8.59284 14.3281 8.68589 13.9082 8.55176 13.3633C8.29203 12.3322 8.88688 11.2932 9.91797 11.0166C10.4545 10.8741 10.7481 10.5804 10.8906 10.0439C11.1589 9.02957 12.1813 8.4175 13.2041 8.66895C13.7741 8.81145 14.202 8.71103 14.6211 8.29199ZM15.9961 10.5469C12.869 10.5553 10.3959 13.0284 10.4043 16.1387C10.4127 19.1818 12.9274 21.6635 15.9873 21.6553C19.0138 21.6469 21.5127 19.1397 21.5127 16.1133C21.5126 13.0367 19.0308 10.5386 15.9961 10.5469ZM15.9961 11.4443C18.5194 11.4444 20.598 13.5313 20.6064 16.0547C20.6148 18.6536 18.5445 20.7412 15.9707 20.7412C13.3803 20.7411 11.3096 18.6705 11.3096 16.0801C11.3096 13.5063 13.3972 11.436 15.9961 11.4443ZM29.7617 12.9365V13.6992C29.7617 14.1099 29.779 14.5122 29.7539 14.9229C29.7371 15.1742 29.8374 15.2669 30.0635 15.334C30.6838 15.5184 31.2959 15.7284 32 15.9463C31.8411 16.0049 31.7488 16.0466 31.665 16.0801C31.1621 16.2477 30.6588 16.4319 30.1475 16.5576C29.8291 16.6414 29.7534 16.7926 29.7617 17.1025C29.7869 17.7229 29.7706 18.3437 29.7119 18.9893C29.3431 18.4863 28.9658 17.9914 28.6221 17.4717C28.4544 17.2118 28.3033 17.136 27.9932 17.2617C27.4063 17.4797 26.8027 17.6477 26.1152 17.874C26.6099 17.195 27.0541 16.5829 27.5068 15.9541C27.0625 15.3421 26.6182 14.73 26.1152 14.0342C26.9117 14.2941 27.6246 14.5205 28.3623 14.7637C28.8066 14.1517 29.251 13.5397 29.6953 12.9277C29.7202 12.9278 29.7369 12.9364 29.7617 12.9365ZM3.5459 14.7803C4.27527 14.5455 4.98855 14.3116 5.80176 14.0518C5.30727 14.7306 4.86275 15.3339 4.41016 15.9541C4.87124 16.5829 5.30714 17.195 5.80176 17.874C5.11431 17.6477 4.49367 17.4715 3.89844 17.2451C3.61343 17.1362 3.47958 17.2038 3.32031 17.4385C2.9682 17.9666 2.58186 18.4692 2.1543 18.9639C2.15429 18.31 2.13794 17.6562 2.16309 17.0107C2.17147 16.751 2.07925 16.6501 1.84473 16.583C1.2244 16.3986 0.620322 16.1895 0 15.9297C0.59517 15.7369 1.19039 15.5187 1.79395 15.3594C2.09575 15.2755 2.17147 15.1323 2.16309 14.8389C2.13797 14.2187 2.15424 13.5902 2.21289 12.9365C2.65712 13.5484 3.09329 14.1517 3.5459 14.7803ZM18.335 14.2861C18.1757 14.1269 17.9829 14.1014 17.79 14.2188C17.6978 14.2774 17.6141 14.3615 17.5303 14.4453C16.7004 15.2668 15.8788 16.0968 14.9902 16.9854C14.7303 16.7087 14.5121 16.4568 14.2773 16.2305C14.0343 15.9876 13.791 15.9792 13.5898 16.1719C13.3886 16.3647 13.4059 16.6246 13.6406 16.8594C13.9423 17.1778 14.2602 17.48 14.5703 17.79C14.9224 18.1421 15.1073 18.1421 15.4678 17.79C16.3816 16.8763 17.304 15.9622 18.2178 15.04C18.2847 14.9731 18.3521 14.9064 18.4023 14.8311C18.5197 14.6383 18.4942 14.4454 18.335 14.2861ZM25.1426 5.71777C25.8803 5.34051 26.5432 5.00486 27.2139 4.66113C27.2305 4.67777 27.247 4.68661 27.2637 4.70312C27.138 4.94615 27.0212 5.18959 26.8955 5.43262C26.7195 5.77628 26.56 6.12858 26.3672 6.46387C26.2498 6.66507 26.2919 6.78269 26.4512 6.93359C26.9206 7.38625 27.3815 7.8561 27.918 8.39258C27.3731 8.30875 26.9205 8.24089 26.4678 8.17383C26.1827 8.13191 25.8307 7.98183 25.6211 8.09082C25.4116 8.19979 25.3186 8.55947 25.1846 8.81934C24.975 9.22165 24.7661 9.6329 24.5146 10.1357C24.4392 9.69151 24.38 9.33114 24.3213 8.9707C24.271 8.66052 24.221 8.35022 24.1875 8.04004C24.1623 7.84734 24.07 7.78005 23.8857 7.75488C23.2067 7.6459 22.5358 7.53729 21.7812 7.41992C22.4602 7.07624 23.0386 6.76589 23.6338 6.48926C23.8433 6.38872 23.8933 6.26307 23.8516 6.05371C23.7342 5.40827 23.6427 4.76229 23.5254 4.0498C24.0953 4.63643 24.623 5.18142 25.1426 5.71777ZM8.37598 4.11719C8.2754 4.74584 8.18278 5.37485 8.06543 5.99512C8.02363 6.24636 8.06602 6.38912 8.31738 6.49805C8.90405 6.76626 9.47422 7.07589 10.1279 7.41113C9.54961 7.50333 9.05505 7.59602 8.56055 7.66309C7.77249 7.78046 7.77207 7.77209 7.66309 8.55176C7.58765 9.04631 7.50334 9.54079 7.41113 10.1191C7.08425 9.48217 6.7827 8.93715 6.53125 8.36719C6.38874 8.04031 6.21251 8.00716 5.90234 8.07422C5.29883 8.19156 4.69523 8.27539 4.0498 8.37598C4.61989 7.82266 5.15624 7.30217 5.70117 6.76562C5.33241 6.03648 4.98913 5.3658 4.64551 4.69531C4.66214 4.67862 4.66983 4.66123 4.68652 4.64453C5.34869 4.9798 6.01135 5.31537 6.70703 5.67578C7.22668 5.13937 7.75517 4.59501 8.2832 4.05859C8.32512 4.08374 8.35083 4.10042 8.37598 4.11719ZM16.3066 0.956055C16.4156 1.28292 16.525 1.60966 16.6172 1.93652C16.6675 2.11252 16.7508 2.16305 16.9268 2.16309C17.6057 2.1547 18.2849 2.15527 19.0645 2.15527C18.6035 2.49048 18.2264 2.75899 17.8408 3.04395C17.6145 3.21156 17.2786 3.34556 17.2031 3.56348C17.128 3.78135 17.3209 4.09131 17.4131 4.35938C17.5556 4.81209 17.7068 5.26521 17.8828 5.80176C17.2039 5.30723 16.5919 4.86277 15.9717 4.41016C15.3514 4.85444 14.7391 5.30719 14.0518 5.80176C14.2697 5.11432 14.4455 4.51026 14.6719 3.91504C14.7807 3.63021 14.7299 3.47913 14.4785 3.31152C13.9589 2.9679 13.4643 2.58261 12.9531 2.21387C12.9531 2.19716 12.9536 2.18026 12.9619 2.15527C13.6323 2.15527 14.2944 2.14633 14.9648 2.16309C15.1743 2.17146 15.2587 2.09629 15.3174 1.91211C15.5102 1.27496 15.72 0.645533 15.9883 0C16.0973 0.318575 16.1977 0.63748 16.3066 0.956055Z" fill="white"/>
</svg>
