<svg width="24" height="24" viewBox="0 0 24 24" fill="none" xmlns="http://www.w3.org/2000/svg">
<path d="M8 16L16.7201 15.2733C19.4486 15.046 20.0611 14.45 20.3635 11.7289L21 6" stroke="url(#paint0_linear_40006327_30151)" stroke-width="1.5" stroke-linecap="round"/>
<path d="M6 6H8.5M22 6H18.5" stroke="url(#paint1_linear_40006327_30151)" stroke-width="1.5" stroke-linecap="round"/>
<path d="M11 8.5C11.4915 9.0057 12.7998 11 13.5 11M13.5 11C14.2002 11 15.5085 9.0057 16 8.5M13.5 11V3" stroke="url(#paint2_linear_40006327_30151)" stroke-width="1.5" stroke-linecap="round" stroke-linejoin="round"/>
<path d="M6 22C7.10457 22 8 21.1046 8 20C8 18.8954 7.10457 18 6 18C4.89543 18 4 18.8954 4 20C4 21.1046 4.89543 22 6 22Z" stroke="url(#paint3_linear_40006327_30151)" stroke-width="1.5"/>
<path d="M17 22C18.1046 22 19 21.1046 19 20C19 18.8954 18.1046 18 17 18C15.8954 18 15 18.8954 15 20C15 21.1046 15.8954 22 17 22Z" stroke="url(#paint4_linear_40006327_30151)" stroke-width="1.5"/>
<path d="M8 20H15" stroke="url(#paint5_linear_40006327_30151)" stroke-width="1.5" stroke-linecap="round"/>
<path d="M2 2H2.966C3.91068 2 4.73414 2.62459 4.96326 3.51493L7.93852 15.0765C8.08887 15.6608 7.9602 16.2797 7.58824 16.7616L6.63213 18" stroke="url(#paint6_linear_40006327_30151)" stroke-width="1.5" stroke-linecap="round"/>
<defs>
<linearGradient id="paint0_linear_40006327_30151" x1="14.5" y1="6" x2="14.5" y2="16" gradientUnits="userSpaceOnUse">
<stop stop-color="#A25A40"/>
<stop offset="1" stop-color="#793C26"/>
</linearGradient>
<linearGradient id="paint1_linear_40006327_30151" x1="14" y1="6" x2="14" y2="7" gradientUnits="userSpaceOnUse">
<stop stop-color="#A25A40"/>
<stop offset="1" stop-color="#793C26"/>
</linearGradient>
<linearGradient id="paint2_linear_40006327_30151" x1="13.5" y1="3" x2="13.5" y2="11" gradientUnits="userSpaceOnUse">
<stop stop-color="#A25A40"/>
<stop offset="1" stop-color="#793C26"/>
</linearGradient>
<linearGradient id="paint3_linear_40006327_30151" x1="6" y1="18" x2="6" y2="22" gradientUnits="userSpaceOnUse">
<stop stop-color="#A25A40"/>
<stop offset="1" stop-color="#793C26"/>
</linearGradient>
<linearGradient id="paint4_linear_40006327_30151" x1="17" y1="18" x2="17" y2="22" gradientUnits="userSpaceOnUse">
<stop stop-color="#A25A40"/>
<stop offset="1" stop-color="#793C26"/>
</linearGradient>
<linearGradient id="paint5_linear_40006327_30151" x1="11.5" y1="20" x2="11.5" y2="21" gradientUnits="userSpaceOnUse">
<stop stop-color="#A25A40"/>
<stop offset="1" stop-color="#793C26"/>
</linearGradient>
<linearGradient id="paint6_linear_40006327_30151" x1="5" y1="2" x2="5" y2="18" gradientUnits="userSpaceOnUse">
<stop stop-color="#A25A40"/>
<stop offset="1" stop-color="#793C26"/>
</linearGradient>
</defs>
</svg>
