<svg width="24" height="24" viewBox="0 0 24 24" fill="none" xmlns="http://www.w3.org/2000/svg">
<path d="M3 12C7.5 12 12 7.5 12 3C12 7.5 16.5 12 21 12C16.5 12 12 16.5 12 21C12 16.5 7.5 12 3 12Z" fill="url(#paint0_linear_40004318_48339)"/>
<path d="M3 12C7.5 12 12 7.5 12 3C12 7.5 16.5 12 21 12C16.5 12 12 16.5 12 21C12 16.5 7.5 12 3 12Z" fill="url(#paint1_linear_40004318_48339)"/>
<path d="M2 19.5C2.83333 19.5 4.5 17.8333 4.5 17C4.5 17.8333 6.16667 19.5 7 19.5C6.16667 19.5 4.5 21.1667 4.5 22C4.5 21.1667 2.83333 19.5 2 19.5Z" fill="url(#paint2_linear_40004318_48339)"/>
<path d="M2 19.5C2.83333 19.5 4.5 17.8333 4.5 17C4.5 17.8333 6.16667 19.5 7 19.5C6.16667 19.5 4.5 21.1667 4.5 22C4.5 21.1667 2.83333 19.5 2 19.5Z" fill="url(#paint3_linear_40004318_48339)"/>
<path d="M16 5C17 5 19 3 19 2C19 3 21 5 22 5C21 5 19 7 19 8C19 7 17 5 16 5Z" fill="url(#paint4_linear_40004318_48339)"/>
<path d="M16 5C17 5 19 3 19 2C19 3 21 5 22 5C21 5 19 7 19 8C19 7 17 5 16 5Z" fill="url(#paint5_linear_40004318_48339)"/>
<defs>
<linearGradient id="paint0_linear_40004318_48339" x1="12" y1="3" x2="12" y2="21" gradientUnits="userSpaceOnUse">
<stop stop-color="#1B8FF3"/>
<stop offset="1" stop-color="#1B8FF3"/>
</linearGradient>
<linearGradient id="paint1_linear_40004318_48339" x1="12" y1="3" x2="12" y2="21" gradientUnits="userSpaceOnUse">
<stop stop-color="#1B8FF3"/>
<stop offset="1" stop-color="#0064BA"/>
</linearGradient>
<linearGradient id="paint2_linear_40004318_48339" x1="4.5" y1="17" x2="4.5" y2="22" gradientUnits="userSpaceOnUse">
<stop stop-color="#1B8FF3"/>
<stop offset="1" stop-color="#1B8FF3"/>
</linearGradient>
<linearGradient id="paint3_linear_40004318_48339" x1="4.5" y1="17" x2="4.5" y2="22" gradientUnits="userSpaceOnUse">
<stop stop-color="#1B8FF3"/>
<stop offset="1" stop-color="#0064BA"/>
</linearGradient>
<linearGradient id="paint4_linear_40004318_48339" x1="19" y1="2" x2="19" y2="8" gradientUnits="userSpaceOnUse">
<stop stop-color="#1B8FF3"/>
<stop offset="1" stop-color="#1B8FF3"/>
</linearGradient>
<linearGradient id="paint5_linear_40004318_48339" x1="19" y1="2" x2="19" y2="8" gradientUnits="userSpaceOnUse">
<stop stop-color="#1B8FF3"/>
<stop offset="1" stop-color="#0064BA"/>
</linearGradient>
</defs>
</svg>
