<svg width="18" height="17" viewBox="0 0 18 17" fill="none" xmlns="http://www.w3.org/2000/svg">
<path d="M8.55557 0.123673C8.62389 -0.0405852 8.85658 -0.0405853 8.9249 0.123673L11.2061 5.60835C11.2349 5.6776 11.3 5.72491 11.3748 5.7309L17.296 6.2056C17.4733 6.21982 17.5452 6.44112 17.4101 6.55685L12.8988 10.4213C12.8418 10.4701 12.8169 10.5466 12.8343 10.6196L14.2126 16.3976C14.2539 16.5707 14.0656 16.7074 13.9138 16.6147L8.84449 13.5184C8.78048 13.4793 8.69999 13.4793 8.63598 13.5184L3.56664 16.6147C3.41482 16.7074 3.22657 16.5707 3.26785 16.3976L4.64612 10.6196C4.66353 10.5466 4.63865 10.4701 4.58169 10.4213L0.0703886 6.55685C-0.0647188 6.44112 0.00718635 6.21982 0.184517 6.2056L6.10568 5.7309C6.18044 5.72491 6.24556 5.67759 6.27436 5.60835L8.55557 0.123673Z" fill="#FFB629"/>
</svg>
