<svg width="60" height="60" viewBox="0 0 60 60" fill="none" xmlns="http://www.w3.org/2000/svg">
<g clip-path="url(#clip0_40003489_37942)">
<path d="M33.144 34.5852V38.9084H42.5764V34.5852H40.0873V23.4499H42.5764V19.1267H33.144V23.4499H35.7641V34.5852H33.144Z" fill="white"/>
<path d="M20.0437 29.2139V26.4628C20.0437 24.7598 21.3537 23.4497 23.0568 23.4497C24.7599 23.4497 26.0699 24.7598 26.0699 26.4628V29.2139H20.0437ZM30.262 38.9082V26.4628C30.262 22.5327 27.1179 19.2576 23.0568 19.2576C19.1267 19.2576 15.8516 22.5327 15.8516 26.4628V38.9082H20.0437V33.275H26.0699V38.9082H30.262Z" fill="white"/>
<path d="M51.6157 47.9476C53.5808 42.8384 52.6637 38.2533 48.8646 34.1921C48.2096 37.2052 46.7685 39.9563 44.8035 42.3144C44.0175 45.4585 43.1004 48.7336 42.3144 51.8777C41.9214 53.1878 41.6594 54.4978 41.2664 55.9389C41.3974 55.9389 41.3974 55.9389 41.5284 55.9389C41.6594 55.9389 41.6594 55.9389 41.7904 55.9389C46.5065 55.1528 49.9126 52.4017 51.6157 47.9476Z" fill="white"/>
<path d="M46.3755 19.6506C47.9475 22.1397 48.9956 25.1528 49.2576 28.2969C50.9606 31.179 52.5327 33.9301 54.2358 36.8122C54.8908 37.9912 55.6768 39.1703 56.3318 40.3493C56.4628 40.2183 56.4628 40.2183 56.4628 40.2183L56.5938 40.0873C59.3449 36.1572 59.8689 31.834 57.9039 27.3799C55.8078 22.4017 51.8777 19.7816 46.3755 19.6506Z" fill="white"/>
<path d="M56.07 18.6025C56.07 18.4715 56.07 18.4715 56.07 18.3405C56.07 18.2095 56.07 18.2095 56.07 18.0785C55.1529 13.3623 52.5329 9.95621 48.0787 8.25315C42.9695 6.28809 38.3844 7.20512 34.3232 11.0042C37.3363 11.6593 40.0874 13.1003 42.4455 15.0654C45.5896 15.8514 48.8647 16.7684 52.0088 17.5545C53.3189 17.9475 54.6289 18.2095 56.07 18.6025Z" fill="white"/>
<path d="M40.2183 3.40613L40.0873 3.27512C36.1572 0.524029 31.834 1.16229e-05 27.3799 1.96508C22.4017 4.19215 19.7816 8.12228 19.6506 13.6245C22.1397 12.0524 25.1528 11.0044 28.2969 10.7424C31.179 9.03931 33.9301 7.46726 36.8122 5.7642C37.9912 5.10918 39.1703 4.32316 40.3493 3.66813C40.3493 3.40613 40.2183 3.40613 40.2183 3.40613Z" fill="white"/>
<path d="M15.0656 17.5546C15.8516 14.4105 16.7686 11.1354 17.5546 7.99131C17.9477 6.68127 18.2097 5.37122 18.6027 3.93018C18.4717 3.93018 18.4717 3.93018 18.3407 3.93018C18.2097 3.93018 18.2097 3.93018 18.0787 3.93018C13.3625 4.84721 9.95639 7.46729 8.25333 11.9214C6.28827 17.0306 7.3363 21.7468 11.0044 25.6769C11.7904 22.6638 13.1005 19.9127 15.0656 17.5546Z" fill="white"/>
<path d="M13.4935 40.3493C11.9214 37.8602 10.8734 34.8471 10.6114 31.703C8.90831 28.8209 7.33626 26.0698 5.6332 23.1878C4.97818 22.0087 4.19215 20.8297 3.53713 19.6506C3.40613 19.6506 3.40613 19.6506 3.40613 19.7816L3.27512 19.9126C0.524029 23.8428 1.16229e-05 28.1659 1.96508 32.6201C4.19215 37.5982 8.12228 40.2183 13.4935 40.3493Z" fill="white"/>
<path d="M11.9214 51.6158C17.0306 53.5809 21.6158 52.6638 25.6769 48.8647C22.6638 48.2097 19.9127 46.7686 17.5546 44.8036C14.4105 44.0175 11.1354 43.2315 7.99131 42.4455C6.68127 42.0525 5.37122 41.7905 3.93018 41.3975C3.93018 41.5285 3.93018 41.5285 3.93018 41.6595C3.93018 41.7905 3.93018 41.7905 3.93018 41.9215C4.84721 46.5066 7.46729 49.9127 11.9214 51.6158Z" fill="white"/>
<path d="M19.6506 56.4628C19.7816 56.5938 19.7816 56.5938 19.7816 56.5938L19.9126 56.7248C23.8428 59.4759 28.1659 59.9999 32.6201 58.0349C37.5982 55.8078 40.2183 51.8777 40.3493 46.3755C37.8602 47.9475 34.8471 48.9956 31.703 49.2576C28.8209 50.9606 26.0698 52.5327 23.1878 54.2358C22.0087 55.0218 20.8297 55.6768 19.6506 56.4628Z" fill="white"/>
</g>
<defs>
<clipPath id="clip0_40003489_37942">
<rect width="60" height="60" fill="white"/>
</clipPath>
</defs>
</svg>
